<?xml version="1.0" encoding="UTF-8"?>
<!-- Generator: visioncortex VTracer 0.6.12 -->
<svg role="img" aria-hidden="true" version="1.1" xmlns="http://www.w3.org/2000/svg" viewBox="0 0 461 281" width="461" height="281">
<path d="M0 0 C1.35 0.34 2.69 0.69 4.08 1.04 C7.12 1.81 10.15 2.59 13.19 3.37 C17.94 4.58 22.7 5.77 27.47 6.95 C31.72 8.01 35.96 9.08 40.21 10.14 C42.31 10.67 44.41 11.19 46.51 11.71 C49.49 12.45 52.46 13.2 55.44 13.95 C56.32 14.17 57.21 14.39 58.12 14.61 C66.36 16.72 73.73 19.23 78.38 26.69 C80.33 35.37 77.82 40.11 73.69 47.5 C71.38 51.69 71.38 51.69 71.38 53.69 C74.01 55.69 76.65 57.58 79.38 59.44 C99.34 73.21 99.34 73.21 101.38 82 C101.38 89.38 98.89 94.04 94.02 99.35 C92.76 100.5 91.48 101.63 90.19 102.75 C89.52 103.35 88.86 103.95 88.18 104.56 C85.28 107.17 82.34 109.72 79.39 112.26 C77.35 114.02 75.35 115.85 73.38 117.69 C73.38 118.68 73.38 119.67 73.38 120.69 C75.18 122.33 77 123.95 78.87 125.52 C81.78 128.03 84.52 130.68 87.25 133.38 C88.18 134.29 89.1 135.2 90.05 136.14 C94.39 140.9 94.91 144.79 94.72 150.95 C94.14 155.56 92.71 157.42 89.38 160.69 C84.21 164 78.87 166.94 73.38 169.69 C74.75 173.81 77.07 174.89 80.56 177.44 C92.78 186.73 92.78 186.73 93.86 192.13 C94.07 196.11 93.52 199.33 92 203 C86.99 208.13 80.19 210.71 73.38 212.69 C75.38 216.69 76.92 218.27 80.25 221.12 C89.16 228.77 89.16 228.77 89.88 235.12 C89.35 239.96 88.49 242.04 85.38 245.69 C84.88 246.02 84.88 246.02 82.38 247.69 C83.34 248.62 84.31 249.54 85.31 250.5 C88.88 254.21 89.28 255.51 89.69 260.56 C89.34 265.11 88.59 266.56 85.38 269.69 C82.78 270.99 80.88 270.83 77.97 270.84 C76.82 270.85 75.67 270.86 74.48 270.87 C73.22 270.87 71.95 270.88 70.64 270.88 C69.31 270.89 67.98 270.9 66.61 270.91 C62.19 270.93 57.76 270.95 53.34 270.96 C51.82 270.97 50.31 270.97 48.75 270.98 C40.74 271 32.73 271.02 24.72 271.04 C16.46 271.05 8.21 271.1 -0.04 271.15 C-6.41 271.18 -12.77 271.2 -19.13 271.2 C-22.17 271.21 -25.21 271.22 -28.25 271.25 C-58.07 271.47 -58.07 271.47 -71.62 265.69 C-73.25 265.14 -74.87 264.61 -76.51 264.1 C-77.84 263.65 -79.17 263.21 -80.54 262.75 C-81.29 262.5 -81.29 262.5 -85.1 261.23 C-86.61 260.72 -88.13 260.21 -89.69 259.69 C-91.21 259.18 -92.73 258.67 -94.29 258.15 C-97.29 257.14 -100.29 256.14 -103.29 255.13 C-106.15 254.18 -109.01 253.25 -111.87 252.34 C-113.19 251.92 -114.51 251.5 -115.87 251.06 C-117.03 250.7 -118.19 250.34 -119.39 249.96 C-124.88 247.8 -128.08 245.42 -131.62 240.69 C-132.92 234.31 -132.69 230.45 -129.62 224.69 C-130.94 223.7 -132.26 222.71 -133.62 221.69 C-133.88 222.39 -134.14 223.09 -134.4 223.82 C-136.81 229.46 -140.36 234.51 -143.62 239.69 C-144 240.3 -144 240.3 -145.91 243.4 C-153.93 256.27 -163.6 266.45 -178.9 270.25 C-182.13 270.77 -185.21 270.82 -188.49 270.83 C-189.88 270.84 -191.28 270.85 -192.72 270.86 C-194.24 270.86 -195.76 270.86 -197.34 270.86 C-198.95 270.87 -200.56 270.88 -202.22 270.88 C-207.55 270.91 -212.88 270.92 -218.21 270.93 C-220.05 270.93 -221.89 270.93 -223.73 270.94 C-232.36 270.96 -240.99 270.97 -249.62 270.98 C-259.58 270.99 -269.54 271.02 -279.5 271.06 C-287.2 271.09 -294.9 271.1 -302.6 271.1 C-307.2 271.11 -311.8 271.12 -316.4 271.14 C-321.53 271.17 -326.66 271.16 -331.78 271.16 C-332.55 271.16 -332.55 271.16 -336.4 271.2 C-337.8 271.19 -339.19 271.18 -340.64 271.18 C-341.85 271.18 -343.06 271.18 -344.31 271.18 C-348.33 270.58 -350.48 269.21 -353.62 266.69 C-356.27 262.63 -357.4 259.5 -356.62 254.69 C-353.38 249.07 -349.72 244.18 -345.56 239.19 C-341.08 233.76 -336.76 228.27 -332.56 222.62 C-327.7 216.08 -322.68 209.69 -317.57 203.34 C-310.22 194.21 -303.03 184.95 -295.91 175.62 C-295.16 174.66 -294.4 173.69 -293.62 172.69 C-292.91 171.68 -292.2 170.67 -291.46 169.62 C-286.25 164.23 -281.89 161.75 -274.23 161.61 C-271.71 161.74 -269.19 161.86 -266.67 162.01 C-242.33 163.46 -242.33 163.46 -236.02 158.74 C-232.06 153.05 -230.95 146.35 -229.6 139.66 C-227.75 132.13 -224.46 125.15 -221.38 118.06 C-220.79 116.65 -220.21 115.23 -219.61 113.77 C-216.24 105.67 -213.19 99.49 -206.38 93.81 C-198.76 90.7 -190.12 91.75 -182.1 92.24 C-175.93 92.61 -169.75 92.82 -163.57 93.04 C-160.31 93.18 -157.06 93.36 -153.81 93.59 C-132.07 95.08 -132.07 95.08 -123.62 91.69 C-117.38 85.62 -115.37 77.34 -113.48 69.09 C-112.12 63.69 -109.98 58.64 -107.88 53.5 C-107.21 51.76 -106.55 50.01 -105.89 48.27 C-103.37 42.54 -99.67 38.5 -94.23 35.26 C-90.41 34.42 -86.79 34.46 -82.88 34.5 C-82.05 34.51 -81.22 34.51 -80.37 34.52 C-72.11 34.62 -63.87 35.1 -55.62 35.69 C-55.36 34.97 -55.09 34.26 -54.81 33.52 C-49.59 21.05 -40.07 2.41 -27.38 -3.19 C-18.02 -5.4 -9.11 -2.35 0 0 Z " fill="#243341" transform="translate(357.625,4.3125)"/>
<path d="M0 0 C1.79 0.01 3.57 0.03 5.36 0.03 C10.04 0.06 14.73 0.14 19.41 0.23 C24.2 0.31 28.98 0.35 33.77 0.39 C43.15 0.48 52.53 0.61 61.91 0.78 C63.03 5.5 63.03 5.5 61.98 8.03 C60.46 11.96 60.79 15.61 60.91 19.78 C61.9 20.11 62.89 20.44 63.91 20.78 C64.24 19.79 64.57 18.8 64.91 17.78 C67.91 20.78 67.91 20.78 68.1 23.23 C68.04 24.16 67.98 25.08 67.91 26.03 C67.78 30.98 68.35 34.42 70.91 38.78 C71.9 39.11 72.89 39.44 73.91 39.78 C77.34 43.13 78.84 44.81 79.23 49.66 C79.18 50.17 79.18 50.17 78.91 52.78 C80.23 53.11 81.55 53.44 82.91 53.78 C82.91 54.44 82.91 55.1 82.91 55.78 C83.66 55.57 84.4 55.35 85.17 55.13 C89.14 54.63 91.08 56.64 94.14 58.96 C94.54 59.27 94.54 59.27 96.54 60.84 C98.25 62.15 99.96 63.45 101.67 64.75 C102.1 65.09 102.1 65.09 104.31 66.79 C108.32 69.86 112.4 72.85 116.48 75.84 C117.25 76.41 118.03 76.98 118.82 77.57 C124.49 81.74 130.16 85.9 135.85 90.03 C136.6 90.58 137.35 91.13 138.13 91.7 C145.11 96.75 149.74 98.47 158.3 98.36 C164.34 97.39 167.69 93.97 171.91 89.78 C173.17 88.73 174.43 87.68 175.73 86.59 C178.58 84.08 181.26 81.5 183.91 78.78 C189.53 73.06 195.3 67.64 201.6 62.66 C204.24 60.52 206.54 58.21 208.91 55.78 C213.33 51.27 217.79 46.94 222.58 42.83 C225.59 40.19 228.49 37.45 231.41 34.72 C241.12 25.78 241.12 25.78 245.91 22.78 C248.91 22.91 248.91 22.91 250.91 23.78 C250.91 24.77 250.91 25.76 250.91 26.78 C251.57 26.78 252.23 26.78 252.91 26.78 C252.91 27.44 252.91 28.1 252.91 28.78 C253.9 29.11 254.89 29.44 255.91 29.78 C257.6 31.43 259.27 33.09 260.91 34.78 C261.9 35.44 262.89 36.1 263.91 36.78 C263.91 37.77 263.91 38.76 263.91 39.78 C264.57 39.78 265.23 39.78 265.91 39.78 C267.04 46.41 267.04 46.41 265.91 49.78 C263.78 50.78 261.64 51.77 259.46 52.68 C253.09 55.43 247.6 58.57 242.91 63.78 C242.03 64.56 241.14 65.35 240.23 66.16 C237.51 69.24 236.77 71.8 235.91 75.78 C236.64 75.25 237.36 74.71 238.1 74.16 C240.91 72.78 240.91 72.78 243.25 73.43 C246.32 74.99 248.67 76.86 251.29 79.09 C254.47 81.78 257.61 84.32 261.1 86.59 C262.03 87.32 262.96 88.04 263.91 88.78 C263.91 90.1 263.91 91.42 263.91 92.78 C260.76 94.31 257.77 95.51 254.48 96.66 C253.52 97 252.57 97.35 251.59 97.71 C248.7 98.75 245.81 99.77 242.91 100.78 C241.39 101.32 239.87 101.86 238.3 102.42 C235.52 103.41 232.73 104.38 229.95 105.36 C225.98 106.76 222.04 108.23 218.1 109.72 C212.33 111.9 206.54 113.98 200.71 116 C190.97 119.39 181.28 122.89 171.6 126.44 C168.95 127.41 166.3 128.38 163.65 129.35 C161.92 129.99 160.18 130.62 158.45 131.26 C157.62 131.56 156.78 131.87 155.93 132.18 C150.14 134.3 144.42 136.56 138.74 138.95 C132.71 140.73 128.13 139.82 122.47 137.36 C121.24 136.83 120.01 136.31 118.75 135.77 C117.44 135.19 116.13 134.62 114.79 134.03 C112.02 132.84 109.25 131.65 106.48 130.46 C105.06 129.85 103.65 129.25 102.2 128.62 C95.42 125.71 88.61 122.9 81.79 120.09 C80.57 119.59 79.35 119.09 78.09 118.57 C73.38 116.62 68.66 114.67 63.91 112.78 C63.58 113.44 63.58 113.44 61.91 116.78 C59.29 117.53 59.29 117.53 56.91 117.78 C57.04 117.4 57.04 117.4 57.66 115.47 C57.75 114.58 57.83 113.69 57.91 112.78 C56.59 111.79 55.27 110.8 53.91 109.78 C53.58 111.43 53.25 113.08 52.91 114.78 C51.59 114.12 50.27 113.46 48.91 112.78 C49.24 114.1 49.57 115.42 49.91 116.78 C48.35 119.91 46.73 122.81 44.91 125.78 C44.47 126.54 44.02 127.29 43.56 128.07 C42.22 130.34 40.85 132.59 39.48 134.84 C39.25 135.22 39.25 135.22 38.11 137.12 C29.71 150.9 20 162.28 3.65 166.34 C0.42 166.86 -2.67 166.92 -5.95 166.93 C-7.34 166.94 -8.74 166.94 -10.18 166.95 C-10.94 166.95 -10.94 166.95 -14.8 166.96 C-15.6 166.96 -15.6 166.96 -19.68 166.98 C-25.01 167 -30.34 167.01 -35.68 167.02 C-37.51 167.02 -39.35 167.03 -41.19 167.03 C-49.82 167.05 -58.45 167.07 -67.08 167.07 C-77.04 167.08 -87 167.11 -96.96 167.15 C-104.66 167.18 -112.36 167.19 -120.07 167.2 C-124.66 167.2 -129.26 167.21 -133.86 167.23 C-138.99 167.26 -144.12 167.26 -149.25 167.25 C-150.01 167.26 -150.01 167.26 -153.86 167.29 C-155.26 167.28 -156.66 167.28 -158.1 167.27 C-159.31 167.27 -160.52 167.27 -161.77 167.28 C-165.79 166.68 -167.94 165.31 -171.09 162.78 C-173.73 158.72 -174.86 155.6 -174.09 150.78 C-170.84 145.17 -167.18 140.27 -163.02 135.28 C-158.54 129.86 -154.22 124.37 -150.02 118.72 C-145.16 112.17 -140.14 105.79 -135.03 99.44 C-127.68 90.3 -120.49 81.04 -113.38 71.72 C-112.62 70.75 -111.86 69.78 -111.09 68.78 C-110.37 67.77 -109.66 66.76 -108.92 65.72 C-103.71 60.32 -99.35 57.84 -91.69 57.7 C-89.17 57.83 -86.65 57.96 -84.13 58.11 C-59.62 59.55 -59.62 59.55 -53.42 54.69 C-49.45 48.86 -48.17 42.18 -46.87 35.34 C-45.57 29.42 -43.24 23.98 -40.9 18.41 C-40.52 17.39 -40.13 16.36 -39.74 15.31 C-37.84 10.51 -36.94 8.3 -32.41 5.55 C-29.09 4.78 -29.09 4.78 -27.09 5.78 C-26.76 5.12 -26.43 4.46 -26.09 3.78 C-25.76 4.61 -25.76 4.61 -24.09 8.78 C-23.78 8.13 -23.78 8.13 -22.22 4.83 C-16.97 -2.09 -7.85 -0.19 0 0 Z " fill="#24313A" transform="translate(175.0859375,108.21875)"/>
<path d="M0 0 C2.89 2.89 2.81 4.95 3 9 C1.8 12.94 1.8 12.94 -0.04 17.21 C-0.37 17.97 -0.69 18.74 -1.03 19.53 C-2.07 21.96 -3.13 24.39 -4.19 26.81 C-4.88 28.43 -5.58 30.05 -6.27 31.67 C-7.55 34.67 -8.85 37.67 -10.15 40.67 C-12.18 45.42 -14.1 50.2 -16 55 C-15.3 54.99 -15.3 54.99 -11.78 54.94 C-6.6 54.86 -1.43 54.82 3.75 54.78 C5.99 54.76 8.23 54.73 10.47 54.7 C13.69 54.65 16.91 54.63 20.13 54.61 C21.13 54.59 22.13 54.57 23.15 54.55 C28.97 54.54 32.43 55.03 37 59 C39.59 62.11 39.99 63.86 40.38 67.94 C39.74 74.77 36.52 78.68 32.12 83.75 C28.03 89.13 28.03 89.13 27.91 92.65 C28.68 95.32 29.68 97.55 31 100 C31.92 101.77 32.83 103.54 33.75 105.31 C34.2 106.09 34.65 106.87 35.11 107.68 C37.26 113.29 33.47 119 31.25 124.19 C30.91 124.99 30.58 125.79 30.23 126.61 C29.54 128.24 28.82 129.87 28.08 131.48 C27 134 27 134 26.24 136.81 C25.2 139.96 24.43 141.72 22 144 C16.14 145.3 10.41 145.03 4.44 144.81 C1.25 144.73 -1.94 144.68 -5.13 144.64 C-6.54 144.6 -7.96 144.55 -9.41 144.5 C-13 145 -13 145 -15.49 147.52 C-15.99 148.34 -16.49 149.16 -17 150 C-11.09 150.1 -5.18 150.17 0.72 150.22 C2.73 150.24 4.74 150.27 6.75 150.3 C9.64 150.35 12.53 150.37 15.42 150.39 C15.87 150.4 15.87 150.4 18.14 150.45 C21.77 150.45 24.35 150.44 27.41 148.38 C29.31 145.54 30.68 142.72 32.02 139.57 C32.57 138.3 33.12 137.03 33.68 135.72 C34.24 134.39 34.8 133.06 35.38 131.69 C35.93 130.4 36.48 129.11 37.05 127.79 C40.44 119.83 43.66 111.82 46.73 103.73 C47.15 102.83 47.57 101.93 48 101 C48.66 101 49.32 101 50 101 C50.33 101.99 50.66 102.98 51 104 C51.99 104 52.98 104 54 104 C56.05 110.15 52.46 117.26 50 123 C49.34 123 48.68 123 48 123 C48 125.31 48 127.62 48 130 C47.01 130 46.02 130 45 130 C45 132.97 45 135.94 45 139 C45.99 139.33 46.98 139.66 48 140 C48.33 139.34 48.66 138.68 49 138 C49.99 138 50.98 138 52 138 C52 136.35 52 134.7 52 133 C53.29 131.63 54.63 130.3 56 129 C57.8 125.72 59.41 122.37 61.02 119 C63.33 115.5 65.04 114.3 69 113 C69.99 113.66 70.98 114.32 72 115 C72.33 114.34 72.66 113.68 73 113 C73.99 113.33 74.98 113.66 76 114 C73.62 120.53 69.69 126.14 66 132 C65.62 132.61 65.62 132.61 63.72 135.71 C55.7 148.59 46.02 158.76 30.73 162.57 C27.5 163.08 24.41 163.14 21.14 163.15 C19.74 163.15 18.35 163.16 16.91 163.17 C16.15 163.17 16.15 163.17 12.29 163.18 C11.48 163.18 11.48 163.18 7.41 163.2 C2.08 163.22 -3.26 163.23 -8.59 163.24 C-10.43 163.24 -12.27 163.25 -14.1 163.25 C-22.73 163.27 -31.36 163.28 -39.99 163.29 C-49.95 163.3 -59.91 163.33 -69.87 163.37 C-77.58 163.4 -85.28 163.41 -92.98 163.42 C-97.58 163.42 -102.18 163.43 -106.78 163.45 C-111.9 163.48 -117.03 163.48 -122.16 163.47 C-122.92 163.48 -122.92 163.48 -126.77 163.51 C-128.17 163.5 -129.57 163.49 -131.01 163.49 C-132.22 163.49 -133.43 163.49 -134.68 163.49 C-138.7 162.9 -140.85 161.52 -144 159 C-146.65 154.94 -147.77 151.82 -147 147 C-143.76 141.39 -140.1 136.49 -135.94 131.5 C-131.46 126.08 -127.13 120.58 -122.94 114.94 C-118.08 108.39 -113.06 102 -107.94 95.66 C-100.59 86.52 -93.4 77.26 -86.29 67.94 C-85.53 66.97 -84.78 66 -84 65 C-83.64 64.49 -83.64 64.49 -81.84 61.94 C-76.62 56.54 -72.27 54.06 -64.61 53.92 C-62.08 54.05 -59.56 54.18 -57.04 54.32 C-32.53 55.77 -32.53 55.77 -26.33 50.91 C-22.36 45.08 -21.08 38.4 -19.78 31.56 C-18.48 25.64 -16.16 20.2 -13.81 14.62 C-13.43 13.6 -13.05 12.58 -12.65 11.53 C-10.75 6.73 -9.86 4.52 -5.32 1.77 C-2 1 -2 1 0 2 C0 1.34 0 0.68 0 0 Z " fill="#253341" transform="translate(148,112)"/>
<path d="M0 0 C0.67 0.17 0.67 0.17 4.08 1.04 C7.12 1.81 10.15 2.59 13.19 3.37 C17.94 4.58 22.7 5.77 27.47 6.95 C31.72 8.01 35.96 9.08 40.21 10.14 C42.31 10.67 44.41 11.19 46.51 11.71 C49.49 12.45 52.46 13.2 55.44 13.95 C56.32 14.17 57.21 14.39 58.12 14.61 C66.36 16.72 73.73 19.23 78.38 26.69 C80.33 35.37 77.82 40.11 73.69 47.5 C71.38 51.69 71.38 51.69 71.38 53.69 C74.01 55.69 76.65 57.58 79.38 59.44 C99.34 73.21 99.34 73.21 101.38 82 C101.38 89.38 98.89 94.04 94.02 99.35 C92.76 100.5 91.48 101.63 90.19 102.75 C89.86 103.05 89.86 103.05 88.18 104.56 C85.28 107.17 82.34 109.72 79.39 112.26 C77.35 114.02 75.35 115.85 73.38 117.69 C73.38 118.68 73.38 119.67 73.38 120.69 C75.18 122.33 77 123.95 78.87 125.52 C81.78 128.03 84.52 130.68 87.25 133.38 C88.18 134.29 89.1 135.2 90.05 136.14 C94.39 140.9 94.91 144.79 94.72 150.95 C94.14 155.56 92.71 157.42 89.38 160.69 C84.21 164 78.87 166.94 73.38 169.69 C74.75 173.81 77.07 174.89 80.56 177.44 C92.78 186.73 92.78 186.73 93.86 192.13 C94.07 196.11 93.52 199.33 92 203 C86.99 208.13 80.19 210.71 73.38 212.69 C75.38 216.69 76.92 218.27 80.25 221.12 C89.16 228.77 89.16 228.77 89.88 235.12 C89.35 239.96 88.49 242.04 85.38 245.69 C84.38 246.35 83.39 247.01 82.38 247.69 C83.34 248.62 84.31 249.54 85.31 250.5 C88.88 254.21 89.28 255.51 89.69 260.56 C89.34 265.11 88.59 266.56 85.38 269.69 C82.78 270.99 80.88 270.83 77.97 270.84 C76.82 270.85 75.67 270.86 74.48 270.87 C73.22 270.87 71.95 270.88 70.64 270.88 C69.31 270.89 67.98 270.9 66.61 270.91 C62.19 270.93 57.76 270.95 53.34 270.96 C51.82 270.97 50.31 270.97 48.75 270.98 C40.74 271 32.73 271.02 24.72 271.04 C16.46 271.05 8.21 271.1 -0.04 271.15 C-6.41 271.18 -12.77 271.2 -19.13 271.2 C-22.17 271.21 -25.21 271.22 -28.25 271.25 C-58.07 271.47 -58.07 271.47 -71.62 265.69 C-73.25 265.14 -74.87 264.61 -76.51 264.1 C-77.84 263.65 -79.17 263.21 -80.54 262.75 C-82.04 262.25 -83.55 261.74 -85.1 261.23 C-86.61 260.72 -88.13 260.21 -89.69 259.69 C-91.21 259.18 -92.73 258.67 -94.29 258.15 C-97.29 257.14 -100.29 256.14 -103.29 255.13 C-106.15 254.18 -109.01 253.25 -111.87 252.34 C-113.19 251.92 -114.51 251.5 -115.87 251.06 C-117.03 250.7 -118.19 250.34 -119.39 249.96 C-124.88 247.8 -128.08 245.42 -131.62 240.69 C-132.66 235.59 -133.07 232.68 -130.94 227.88 C-130.72 227.35 -130.72 227.35 -129.62 224.69 C-131.44 222.5 -131.44 222.5 -133.62 220.69 C-133.62 219.37 -133.62 218.05 -133.62 216.69 C-132.63 216.36 -131.65 216.03 -130.62 215.69 C-130.29 216.02 -129.97 216.35 -129.62 216.69 C-129.29 215.7 -128.97 214.71 -128.62 213.69 C-124.62 215.69 -124.62 215.69 -123.62 217.69 C-123.96 218.68 -124.28 219.67 -124.62 220.69 C-121.62 219.69 -121.62 219.69 -119.62 218.69 C-119.29 217.7 -118.97 216.71 -118.62 215.69 C-117.69 216.08 -116.75 216.47 -115.78 216.87 C-114.46 217.43 -113.13 217.98 -111.77 218.55 C-111.03 218.85 -111.03 218.85 -107.29 220.41 C-104.04 221.77 -100.78 223.13 -97.52 224.48 C-89.68 227.74 -81.84 231.01 -74.02 234.36 C-72.72 234.91 -71.41 235.46 -70.06 236.03 C-67.61 237.07 -65.17 238.12 -62.73 239.18 C-54.24 242.76 -48.81 243.91 -40.06 240.38 C-39.37 240.1 -39.37 240.1 -35.84 238.72 C-35.03 238.4 -34.23 238.08 -33.4 237.76 C-27.67 235.55 -21.89 233.48 -16.12 231.38 C-5.62 227.54 4.86 223.66 15.31 219.68 C19.99 217.91 24.68 216.24 29.43 214.67 C34.81 212.9 40.1 210.93 45.38 208.88 C52.67 206.07 60 203.35 67.38 200.75 C68.21 200.46 69.04 200.16 69.89 199.86 C73.69 198.53 77.4 197.32 81.38 196.69 C81.38 195.37 81.38 194.05 81.38 192.69 C80.06 192.03 78.74 191.37 77.38 190.69 C75.18 189.07 73.02 187.42 70.88 185.75 C69.75 184.87 68.63 184 67.47 183.1 C66.45 182.3 65.43 181.51 64.38 180.69 C63.06 179.7 61.74 178.71 60.38 177.69 C57.81 178.44 57.81 178.44 55.38 179.69 C54.38 180.02 53.39 180.35 52.38 180.69 C54.18 173.46 56.15 169.06 62.38 164.69 C63.03 164.69 63.69 164.69 64.38 164.69 C64.71 163.7 65.03 162.71 65.38 161.69 C78.57 153.69 78.57 153.69 83.38 153.69 C83.38 150.39 83.38 147.09 83.38 143.69 C82.72 143.69 82.06 143.69 81.38 143.69 C81.38 142.7 81.38 141.71 81.38 140.69 C80.63 140.4 79.89 140.11 79.12 139.81 C75.74 138.43 74.53 136.58 72.38 133.69 C71.72 133.36 71.06 133.03 70.38 132.69 C70.38 132.03 70.38 131.37 70.38 130.69 C69.72 130.69 69.06 130.69 68.38 130.69 C68.04 129.7 67.72 128.71 67.38 127.69 C62.81 127 62.81 127 58.38 126.69 C58.04 127.68 57.72 128.67 57.38 129.69 C52.92 133.69 52.92 133.69 50.38 133.69 C50.04 134.68 49.72 135.67 49.38 136.69 C48.38 136.36 47.39 136.03 46.38 135.69 C46.04 136.35 45.72 137.01 45.38 137.69 C44.04 135.02 44.7 133.52 45.38 130.69 C45.04 131.02 44.72 131.35 44.38 131.69 C43.06 131.36 41.74 131.03 40.38 130.69 C47.7 123.91 55.04 117.15 62.4 110.41 C64.42 108.57 66.43 106.72 68.44 104.87 C69.45 103.94 70.46 103.02 71.5 102.06 C71.99 101.61 71.99 101.61 74.46 99.33 C76.39 97.58 78.34 95.86 80.32 94.17 C81.22 93.39 82.13 92.61 83.06 91.81 C83.87 91.13 84.68 90.46 85.51 89.76 C87.75 87.27 88.48 86.05 88.38 82.69 C84.72 78.04 79.62 74.81 74.81 71.44 C74.06 70.9 73.3 70.35 72.53 69.8 C69.1 67.38 66.48 65.71 62.38 64.69 C61.77 65.77 61.17 66.85 60.55 67.97 C59.75 69.36 58.95 70.75 58.12 72.19 C57.34 73.58 56.55 74.97 55.73 76.41 C54.96 77.49 54.18 78.57 53.38 79.69 C52.06 79.69 50.74 79.69 49.38 79.69 C49.38 78.37 49.38 77.05 49.38 75.69 C48.72 75.69 48.06 75.69 47.38 75.69 C47.04 76.35 46.72 77.01 46.38 77.69 C46.38 76.7 46.38 75.71 46.38 74.69 C45.06 74.36 43.74 74.03 42.38 73.69 C43.96 71.08 45.54 68.48 47.12 65.88 C47.61 65.07 48.1 64.27 48.6 63.45 C51.25 59.09 53.95 54.78 56.74 50.51 C57.01 50.09 57.01 50.09 58.39 47.97 C59.44 46.35 60.5 44.75 61.58 43.15 C64.5 38.64 66.08 35.08 66.38 29.69 C65.45 29.58 64.53 29.47 63.57 29.36 C58.35 28.52 53.31 27.25 48.19 25.94 C46.04 25.39 43.89 24.85 41.74 24.3 C41.21 24.17 41.21 24.17 38.5 23.48 C34.77 22.53 31.04 21.61 27.31 20.68 C20.82 19.07 14.34 17.43 7.88 15.69 C6.7 15.37 5.52 15.06 4.31 14.74 C2.17 14.17 0.04 13.6 -2.1 13.01 C-4.77 12.29 -7.45 11.58 -10.12 10.88 C-10.96 10.64 -11.8 10.41 -12.66 10.17 C-17.62 8.89 -21.68 8.14 -26.62 9.69 C-27.71 11.7 -27.71 11.7 -28.62 14.69 C-30.46 17.66 -32.33 20.59 -34.25 23.5 C-34.77 24.29 -35.28 25.08 -35.81 25.89 C-37.08 27.82 -38.35 29.76 -39.62 31.69 C-43.62 30.69 -43.62 30.69 -46.62 27.69 C-46.79 28.02 -46.79 28.02 -47.62 29.69 C-49.29 30.69 -50.96 31.69 -52.62 32.69 C-52.79 33.02 -52.79 33.02 -53.62 34.69 C-54.28 34.36 -54.94 34.03 -55.62 33.69 C-36.28 0.74 -36.28 0.74 -27.38 -3.19 C-18.02 -5.4 -9.11 -2.35 0 0 Z " fill="#223242" transform="translate(357.625,4.3125)"/>
<path d="M0 0 C4.08 1.16 8.17 2.21 12.3 3.22 C14.07 3.66 15.85 4.11 17.62 4.55 C18.58 4.79 19.54 5.03 20.52 5.27 C22.58 5.79 24.65 6.31 26.71 6.82 C31.83 8.1 36.95 9.38 42.07 10.65 C42.96 10.87 43.86 11.1 44.78 11.33 C47.21 11.93 49.65 12.54 52.08 13.14 C55.84 14.1 59.57 15.13 63.3 16.22 C64.37 23.66 60.72 28.11 56.8 34.03 C55.41 36.19 54.02 38.35 52.63 40.5 C51.91 41.61 51.19 42.72 50.45 43.87 C47.03 49.19 43.73 54.58 40.42 59.97 C39.76 61.04 39.11 62.11 38.43 63.21 C33.44 71.34 28.49 79.49 23.55 87.66 C17.74 97.25 11.85 106.79 5.82 116.25 C4.24 118.73 2.67 121.22 1.11 123.71 C0.49 124.71 -0.13 125.7 -0.77 126.72 C-1.27 127.53 -1.78 128.35 -2.3 129.19 C-3.7 131.22 -3.7 131.22 -6.7 134.22 C-13.25 134.75 -18.66 133.68 -24.93 131.84 C-25.78 131.59 -26.64 131.34 -27.52 131.09 C-30.27 130.29 -33.02 129.47 -35.77 128.66 C-37.66 128.1 -39.56 127.55 -41.45 127 C-46.05 125.66 -50.65 124.3 -55.25 122.94 C-59.77 121.61 -64.3 120.29 -68.83 118.97 C-70.75 118.41 -72.68 117.84 -74.6 117.28 C-79.61 115.8 -84.64 114.48 -89.7 113.22 C-93.64 111.91 -93.64 111.91 -96.7 110.22 C-97.86 107.17 -97.92 105.73 -96.66 102.7 C-96.09 101.8 -95.53 100.9 -94.95 99.97 C-94.3 98.91 -93.65 97.85 -92.98 96.76 C-90.05 92.21 -87.13 87.66 -84.17 83.13 C-79.88 76.54 -75.74 69.86 -71.61 63.16 C-68.01 57.32 -64.38 51.51 -60.7 45.72 C-56.49 39.08 -52.33 32.41 -48.2 25.72 C-47.12 23.97 -46.04 22.23 -44.96 20.48 C-42.74 16.91 -40.55 13.33 -38.36 9.74 C-37.28 8 -36.21 6.27 -35.14 4.53 C-34.9 4.13 -34.9 4.13 -33.66 2.08 C-25.61 -10.86 -12.33 -3.55 0 0 Z " fill="#EBECE7" transform="translate(360.703125,17.78125)"/>
<path d="M0 0 C0.93 -0 1.85 -0 2.81 -0 C5.87 0 8.92 0.02 11.98 0.05 C14.1 0.05 16.23 0.06 18.35 0.06 C23.93 0.07 29.51 0.1 35.09 0.13 C40.79 0.17 46.49 0.18 52.19 0.19 C63.36 0.23 74.54 0.28 85.71 0.34 C84.88 5.89 81.98 9.47 78.65 13.84 C78.03 14.67 77.41 15.49 76.77 16.34 C74.76 19.02 72.74 21.68 70.71 24.34 C70.37 24.79 70.37 24.79 68.64 27.05 C65.9 30.65 63.15 34.25 60.4 37.84 C55.88 43.76 51.51 49.78 47.21 55.86 C44.21 60.03 41.14 64.13 38.02 68.22 C37.5 68.91 36.98 69.6 36.44 70.31 C26.03 83.9 26.03 83.9 21.71 85.34 C18.59 85.43 15.49 85.47 12.38 85.45 C11.9 85.45 11.9 85.45 9.48 85.45 C6.31 85.45 3.15 85.45 -0.02 85.44 C-2.21 85.44 -4.4 85.43 -6.6 85.43 C-12.37 85.43 -18.15 85.42 -23.92 85.41 C-29.82 85.4 -35.71 85.39 -41.6 85.39 C-53.16 85.38 -64.73 85.36 -76.29 85.34 C-74.44 80.29 -71.51 76.42 -68.23 72.22 C-67.64 71.46 -67.05 70.7 -66.45 69.92 C-62.58 64.93 -58.61 60.05 -54.58 55.19 C-51.81 51.75 -49.17 48.2 -46.54 44.65 C-41.93 38.44 -37.15 32.41 -32.23 26.44 C-29.33 22.9 -26.5 19.33 -23.75 15.66 C-23.17 14.89 -22.59 14.11 -22 13.32 C-20.89 11.83 -19.78 10.33 -18.69 8.83 C-13.12 1.36 -9.16 -0.11 0 0 Z " fill="#F0EFE8" transform="translate(90.288330078125,177.659423828125)"/>
<path d="M0 0 C1.41 0.01 2.83 0.01 4.29 0.02 C5.89 0.02 7.49 0.02 9.14 0.02 C10.89 0.04 12.64 0.05 14.4 0.07 C16.18 0.07 17.97 0.08 19.76 0.08 C24.47 0.09 29.18 0.12 33.89 0.15 C38.7 0.19 43.51 0.2 48.31 0.21 C57.74 0.25 67.17 0.3 76.6 0.36 C77.69 4.94 77.25 7.08 75.35 11.43 C74.83 12.64 74.31 13.85 73.78 15.09 C73.21 16.4 72.63 17.7 72.04 19.05 C70.83 21.86 69.62 24.68 68.41 27.49 C67.78 28.95 67.15 30.41 66.5 31.92 C63.44 39.07 60.49 46.28 57.54 53.49 C56.36 56.35 55.18 59.22 54 62.09 C53.72 62.78 53.72 62.78 52.27 66.3 C49.24 73.66 46.2 81.01 43.15 88.36 C40.43 94.93 37.72 101.51 35.02 108.09 C24.21 134.49 24.21 134.49 19.98 144.3 C19.41 145.63 18.84 146.96 18.25 148.33 C16.6 151.36 16.6 151.36 12.6 154.36 C9.27 154.62 6.13 154.71 2.81 154.65 C1.86 154.65 0.91 154.65 -0.07 154.64 C-3.1 154.62 -6.12 154.59 -9.15 154.55 C-11.2 154.53 -13.25 154.52 -15.31 154.51 C-20.34 154.47 -25.37 154.42 -30.4 154.36 C-26.52 148.49 -26.52 148.49 -25.4 147.36 C-22.88 147.37 -20.37 147.44 -17.85 147.54 C-17.08 147.55 -17.08 147.55 -13.16 147.6 C-9.88 147.65 -6.6 147.75 -3.32 147.9 C1.36 147.91 5.14 147.79 9.6 146.36 C13.01 142.08 14.21 137.59 15.6 132.36 C16.28 130.77 16.99 129.19 17.75 127.63 C18.34 126.35 18.93 125.06 19.54 123.74 C20.15 122.42 20.75 121.11 21.38 119.76 C22.85 115.67 22.22 113.74 20.48 109.85 C20.05 108.94 19.61 108.04 19.16 107.11 C18.73 106.13 18.3 105.16 17.85 104.15 C16.84 101.9 15.79 99.66 14.73 97.42 C14.55 91.51 17.56 88.7 21.27 84.29 C25.68 78.75 27.38 74.49 26.6 67.36 C24.31 62.95 23.11 61.62 18.6 59.36 C15.02 59.12 11.51 58.99 7.93 58.95 C6.89 58.93 5.86 58.91 4.79 58.89 C1.47 58.83 -1.84 58.78 -5.15 58.74 C-7.39 58.7 -9.64 58.66 -11.89 58.62 C-17.39 58.52 -22.89 58.44 -28.4 58.36 C-25.28 47.71 -25.28 47.71 -23.23 42.87 C-22.84 41.93 -22.44 40.98 -22.03 40.01 C-21.62 39.03 -21.2 38.06 -20.77 37.05 C-20.34 36.02 -19.9 34.99 -19.45 33.93 C-18.55 31.8 -17.65 29.67 -16.74 27.54 C-15.43 24.44 -14.14 21.34 -12.85 18.24 C-12.05 16.34 -11.26 14.44 -10.46 12.55 C-10.1 11.67 -9.73 10.78 -9.35 9.87 C-5.41 0.57 -5.41 0.57 0 0 Z " fill="#F3EDDD" transform="translate(160.3978729248047,108.63923645019531)"/>
<path d="M0 0 C1.35 0.34 2.69 0.69 4.08 1.04 C7.12 1.81 10.15 2.59 13.19 3.37 C17.94 4.58 22.7 5.77 27.47 6.95 C31.72 8.01 35.96 9.08 40.21 10.14 C42.31 10.67 44.41 11.19 46.51 11.71 C49.49 12.45 52.46 13.2 55.44 13.95 C55.88 14.06 55.88 14.06 58.12 14.61 C66.36 16.72 73.73 19.23 78.38 26.69 C80.33 35.37 77.82 40.11 73.69 47.5 C71.38 51.69 71.38 51.69 71.38 53.69 C74.01 55.69 76.65 57.58 79.38 59.44 C99.34 73.21 99.34 73.21 101.38 82 C101.38 89.38 98.89 94.04 94.02 99.35 C92.76 100.5 91.48 101.63 90.19 102.75 C89.86 103.05 89.86 103.05 88.18 104.56 C85.28 107.17 82.34 109.72 79.39 112.26 C77.35 114.02 75.35 115.85 73.38 117.69 C73.38 118.68 73.38 119.67 73.38 120.69 C75.18 122.33 77 123.95 78.87 125.52 C81.78 128.03 84.52 130.68 87.25 133.38 C88.18 134.29 89.1 135.2 90.05 136.14 C94.39 140.9 94.91 144.79 94.72 150.95 C94.14 155.56 92.71 157.42 89.38 160.69 C84.21 164 78.87 166.94 73.38 169.69 C74.54 173.18 75.51 173.79 78.44 175.88 C79.74 176.8 81.04 177.73 82.38 178.69 C81.74 179.26 81.1 179.84 80.44 180.44 C78.38 182.69 78.38 182.69 77.38 186.69 C76.38 187.35 75.39 188.01 74.38 188.69 C73.42 187.87 72.47 187.05 71.49 186.21 C70.23 185.17 68.98 184.13 67.69 183.06 C66.45 182.02 65.2 180.97 63.93 179.9 C60.38 177.69 60.38 177.69 57.61 178.29 C57.24 178.52 57.24 178.52 55.38 179.69 C54.38 180.02 53.39 180.35 52.38 180.69 C54.18 173.46 56.15 169.06 62.38 164.69 C63.03 164.69 63.69 164.69 64.38 164.69 C64.7 163.7 65.03 162.71 65.38 161.69 C78.58 153.69 78.58 153.69 83.38 153.69 C83.38 150.39 83.38 147.09 83.38 143.69 C82.72 143.69 82.06 143.69 81.38 143.69 C81.38 142.7 81.38 141.71 81.38 140.69 C80.63 140.4 79.89 140.11 79.12 139.81 C75.74 138.43 74.53 136.58 72.38 133.69 C71.72 133.36 71.06 133.03 70.38 132.69 C70.38 132.03 70.38 131.37 70.38 130.69 C69.72 130.69 69.06 130.69 68.38 130.69 C68.05 129.7 67.72 128.71 67.38 127.69 C62.81 127 62.81 127 58.38 126.69 C58.05 127.68 57.72 128.67 57.38 129.69 C52.92 133.69 52.92 133.69 50.38 133.69 C50.05 134.68 49.72 135.67 49.38 136.69 C48.38 136.36 47.39 136.03 46.38 135.69 C46.05 136.35 45.72 137.01 45.38 137.69 C44.04 135.02 44.7 133.52 45.38 130.69 C45.05 131.02 44.72 131.35 44.38 131.69 C43.06 131.36 41.74 131.03 40.38 130.69 C47.7 123.91 55.04 117.15 62.4 110.41 C64.42 108.57 66.43 106.72 68.44 104.87 C69.45 103.94 70.46 103.02 71.5 102.06 C71.99 101.61 71.99 101.61 74.46 99.33 C76.39 97.58 78.34 95.86 80.32 94.17 C81.22 93.39 82.13 92.61 83.06 91.81 C83.87 91.13 84.68 90.46 85.51 89.76 C87.75 87.27 88.48 86.05 88.38 82.69 C84.72 78.04 79.62 74.81 74.81 71.44 C74.06 70.9 73.3 70.35 72.53 69.8 C69.1 67.38 66.48 65.71 62.38 64.69 C61.77 65.77 61.17 66.85 60.55 67.97 C59.75 69.36 58.95 70.75 58.12 72.19 C57.34 73.58 56.55 74.97 55.73 76.41 C54.96 77.49 54.18 78.57 53.38 79.69 C52.06 79.69 50.74 79.69 49.38 79.69 C49.38 78.37 49.38 77.05 49.38 75.69 C48.72 75.69 48.06 75.69 47.38 75.69 C47.05 76.35 46.72 77.01 46.38 77.69 C46.38 76.7 46.38 75.71 46.38 74.69 C45.72 74.52 45.72 74.52 42.38 73.69 C43.96 71.08 45.54 68.48 47.12 65.88 C47.61 65.07 48.1 64.27 48.6 63.45 C51.25 59.09 53.95 54.78 56.74 50.51 C57.29 49.67 57.83 48.83 58.39 47.97 C59.44 46.35 60.5 44.75 61.58 43.15 C64.5 38.64 66.08 35.08 66.38 29.69 C65.45 29.58 64.53 29.47 63.57 29.36 C58.35 28.52 53.31 27.25 48.19 25.94 C46.04 25.39 43.89 24.85 41.74 24.3 C40.67 24.03 39.6 23.76 38.5 23.48 C34.77 22.53 31.04 21.61 27.31 20.68 C20.82 19.07 14.34 17.43 7.88 15.69 C6.7 15.37 5.52 15.06 4.31 14.74 C2.17 14.17 0.04 13.6 -2.1 13.01 C-4.77 12.29 -7.45 11.58 -10.12 10.88 C-10.96 10.64 -11.8 10.41 -12.66 10.17 C-17.62 8.89 -21.68 8.14 -26.62 9.69 C-27.71 11.7 -27.71 11.7 -28.62 14.69 C-30.46 17.66 -32.33 20.59 -34.25 23.5 C-34.77 24.29 -35.28 25.08 -35.81 25.89 C-37.08 27.82 -38.35 29.76 -39.62 31.69 C-43.62 30.69 -43.62 30.69 -46.62 27.69 C-46.95 28.35 -47.29 29.01 -47.62 29.69 C-48.46 30.19 -48.46 30.19 -52.62 32.69 C-52.95 33.35 -53.29 34.01 -53.62 34.69 C-54.29 34.36 -54.94 34.03 -55.62 33.69 C-36.28 0.74 -36.28 0.74 -27.38 -3.19 C-18.02 -5.4 -9.11 -2.35 0 0 Z " fill="#263544" transform="translate(357.625,4.3125)"/>
<path d="M0 0 C5.16 1.29 8.72 4.16 12.94 7.25 C13.74 7.82 14.53 8.4 15.36 8.99 C24.2 15.42 24.2 15.42 27 19 C26.58 24.98 22.4 27.85 18.19 31.62 C17.42 32.33 16.64 33.04 15.85 33.77 C13.57 35.86 11.29 37.93 9 40 C6.9 41.94 4.79 43.87 2.69 45.81 C0.79 47.54 -1.1 49.27 -3 51 C-5 52.83 -7 54.67 -9 56.5 C-11.99 59.24 -14.98 61.98 -17.96 64.71 C-23.15 69.47 -28.33 74.23 -33.5 79 C-40.63 85.59 -47.8 92.15 -54.96 98.71 C-60.22 103.52 -65.46 108.35 -70.69 113.19 C-71.77 114.18 -72.85 115.16 -73.96 116.18 C-75.85 117.93 -77.7 119.71 -79.5 121.54 C-80.25 122.27 -80.99 123 -81.75 123.75 C-82.36 124.38 -82.98 125.02 -83.61 125.67 C-87.56 127.87 -90.57 127.52 -95 127 C-98.12 125.23 -100.61 123.58 -103.38 121.38 C-104.14 120.79 -104.91 120.21 -105.71 119.6 C-107.33 118.37 -108.95 117.13 -110.56 115.88 C-113.7 113.46 -116.88 111.12 -120.08 108.79 C-122.45 107.05 -124.82 105.3 -127.19 103.55 C-130.44 101.15 -133.7 98.75 -136.96 96.36 C-162.07 77.93 -162.07 77.93 -167 73 C-166.67 71.68 -166.34 70.36 -166 69 C-164.87 69.4 -163.73 69.79 -162.57 70.2 C-155.11 72.69 -147.51 74.67 -139.94 76.75 C-128.2 79.98 -116.48 83.28 -104.8 86.73 C-98.24 88.66 -91.65 90.47 -85.02 92.18 C-82 93 -82 93 -79 94.07 C-73.13 95.89 -66.26 96.47 -60.55 93.9 C-53.48 88.86 -49.76 81.64 -45.77 74.18 C-42.55 68.4 -38.96 62.86 -35.43 57.26 C-32.91 53.27 -30.42 49.26 -27.94 45.25 C-27.41 44.39 -26.88 43.54 -26.33 42.66 C-20.74 33.61 -15.23 24.52 -9.74 15.42 C-9.05 14.28 -8.36 13.14 -7.65 11.97 C-7.04 10.96 -6.44 9.96 -5.81 8.92 C-3.94 5.9 -1.99 2.94 0 0 Z " fill="#E8ECEE" transform="translate(420,68)"/>
<path d="M0 0 C-1.74 5.08 -4.59 9.5 -7.38 14.06 C-8.47 15.86 -9.56 17.67 -10.65 19.47 C-11.21 20.39 -11.76 21.31 -12.34 22.25 C-13.92 24.86 -15.48 27.48 -17.04 30.09 C-22.94 40 -28.95 49.83 -35.18 59.54 C-37.03 62.43 -38.78 65.33 -40.51 68.3 C-41.27 69.58 -42.03 70.87 -42.81 72.19 C-43.46 73.32 -44.1 74.44 -44.77 75.61 C-47 78 -47 78 -49.93 78.6 C-55.93 77.72 -61.59 75.98 -67.38 74.19 C-68.56 73.83 -69.74 73.47 -70.95 73.11 C-77.34 71.17 -83.68 69.14 -90 67 C-87.65 62.3 -84.42 59 -80.81 55.25 C-76.9 51.16 -73.02 47.07 -69.32 42.79 C-66.7 39.77 -63.99 36.91 -61.12 34.12 C-57.11 30.22 -57.11 30.22 -56 28 C-57.05 28.81 -58.11 29.62 -59.19 30.46 C-67.47 36.82 -75.76 43.16 -84.23 49.27 C-86.91 51.21 -89.55 53.18 -92.18 55.2 C-93.57 56.24 -94.97 57.28 -96.38 58.31 C-97.62 59.26 -98.87 60.2 -100.15 61.18 C-105.25 63.59 -107.7 62.66 -113 61 C-114.23 60.72 -115.46 60.44 -116.72 60.15 C-117.82 59.89 -118.93 59.64 -120.06 59.38 C-121.19 59.11 -122.31 58.85 -123.47 58.59 C-124.31 58.39 -125.14 58.2 -126 58 C-121.57 46.19 -116.59 35.96 -104.85 30.36 C-100.28 28.42 -95.67 26.68 -91 25 C-84.4 22.5 -78.02 19.64 -71.62 16.66 C-64.75 13.51 -57.78 10.58 -50.81 7.62 C-49.31 6.98 -47.82 6.34 -46.27 5.68 C-45.56 5.38 -45.56 5.38 -41.96 3.85 C-40.67 3.3 -39.38 2.75 -38.05 2.19 C-35 1 -35 1 -33 1 C-32.68 7.8 -33.88 14.26 -35 20.94 C-35.1 21.52 -35.1 21.52 -35.58 24.46 C-36.05 27.3 -36.52 30.15 -37 33 C-32.35 27.91 -27.78 22.79 -23.44 17.44 C-22.69 16.53 -21.95 15.62 -21.19 14.68 C-19.76 12.93 -18.34 11.18 -16.94 9.41 C-12.22 3.72 -7.82 0 0 0 Z " fill="#EC9F1F" transform="translate(398,66)"/>
<path d="M0 0 C4.5 2.25 7.13 5.15 10.44 8.81 C19.97 19.19 29.99 29.08 40 39 C40.99 38.01 41.98 37.02 43 36 C45.38 35 45.38 35 48 35 C50.81 37.31 50.81 37.31 53 40 C53 40.66 53 41.32 53 42 C54.32 42.66 55.64 43.32 57 44 C57.33 44.33 57.66 44.66 58 45 C59.98 45.13 61.96 45.18 63.94 45.19 C65.02 45.2 66.1 45.22 67.21 45.23 C70 45 70 45 72 43 C79.94 40.7 79.94 40.7 84.06 41.88 C84.7 42.25 85.34 42.62 86 43 C85.84 43.33 85.84 43.33 85 45 C88.65 44.42 91.34 43.46 94.52 41.59 C95.37 41.1 96.22 40.61 97.09 40.1 C97.99 39.57 98.89 39.05 99.81 38.5 C101.71 37.4 103.62 36.29 105.52 35.19 C106.45 34.64 107.39 34.1 108.35 33.54 C111.88 31.49 115.44 29.49 119 27.5 C125.16 24.04 131.3 20.56 137.44 17.06 C138.32 16.56 139.21 16.06 140.12 15.54 C144.44 13.08 148.72 10.58 152.94 7.94 C153.71 7.47 154.48 6.99 155.28 6.5 C157.37 5.21 159.45 3.89 161.53 2.57 C165 1 165 1 167.63 1.47 C170.39 3.25 172.87 5.18 175.38 7.31 C178.56 10 181.7 12.54 185.19 14.81 C185.65 15.17 185.65 15.17 188 17 C188 18.32 188 19.64 188 21 C184.84 22.53 181.86 23.73 178.56 24.88 C177.61 25.22 176.65 25.57 175.67 25.93 C172.79 26.97 169.89 27.99 167 29 C165.48 29.54 163.95 30.08 162.38 30.64 C159.6 31.62 156.82 32.6 154.03 33.57 C150.06 34.98 146.12 36.45 142.19 37.94 C136.42 40.12 130.62 42.2 124.8 44.21 C115.06 47.61 105.37 51.11 95.69 54.66 C93.04 55.63 90.39 56.6 87.74 57.57 C86.01 58.21 84.27 58.84 82.54 59.48 C81.7 59.78 80.87 60.08 80.01 60.4 C74.22 62.52 68.5 64.77 62.82 67.17 C56.8 68.95 52.21 68.04 46.55 65.58 C45.94 65.32 45.94 65.32 42.83 63.99 C41.53 63.41 40.22 62.84 38.88 62.25 C36.1 61.06 33.33 59.87 30.56 58.68 C29.15 58.07 27.73 57.46 26.28 56.83 C18.31 53.42 10.29 50.16 2.27 46.87 C1.7 46.64 1.7 46.64 -1.16 45.46 C-2.15 45.06 -3.13 44.65 -4.15 44.24 C-12.29 40.71 -12.29 40.71 -15 38 C-14.67 36.68 -14.34 35.36 -14 34 C-7.87 34.66 -2.35 36.92 3.38 39.06 C3.89 39.25 3.89 39.25 6.47 40.21 C8.98 41.13 11.49 42.07 14 43 C14 42.34 14 41.68 14 41 C14.99 40.84 14.99 40.84 20 40 C20 38.35 20 36.7 20 35 C17.79 33.45 17.79 33.45 14.62 32.12 C13.46 31.63 12.29 31.13 11.09 30.62 C9.74 30.09 8.39 29.55 7 29 C6.21 28.69 5.43 28.37 4.62 28.05 C-0.57 25.99 -5.78 23.98 -11 22 C-10.44 17.39 -8.55 14.32 -6.06 10.44 C-3.86 6.99 -1.83 3.66 0 0 Z " fill="#E7ECEF" transform="translate(251,180)"/>
<path d="M0 0 C3.25 1.38 3.25 1.38 6 3 C5.42 7.19 4.72 8.38 2 12 C1.34 12 0.68 12 0 12 C-0.33 13.32 -0.66 14.64 -1 16 C-2.31 17.35 -3.65 18.69 -5 20 C-5.66 21.32 -6.32 22.64 -7 24 C-7.66 24 -8.32 24 -9 24 C-9.33 25.32 -9.66 26.64 -10 28 C-10.66 28 -11.32 28 -12 28 C-12.33 29.32 -12.66 30.64 -13 32 C-13.99 32.33 -14.98 32.66 -16 33 C-16 33.66 -16 34.32 -16 35 C-16.66 35 -17.32 35 -18 35 C-18 35.99 -18 36.98 -18 38 C-18.66 38 -19.32 38 -20 38 C-20.19 39.3 -20.37 40.6 -20.56 41.94 C-21.44 46.05 -22.94 48.57 -25.59 51.82 C-26.23 52.61 -26.86 53.4 -27.52 54.21 C-28.01 54.8 -28.5 55.39 -29 56 C-23.09 56.1 -17.18 56.17 -11.28 56.22 C-9.27 56.24 -7.26 56.27 -5.25 56.3 C-2.36 56.35 0.53 56.37 3.42 56.39 C3.87 56.4 3.87 56.4 6.14 56.45 C9.77 56.45 12.35 56.44 15.41 54.38 C17.31 51.54 18.68 48.72 20.02 45.57 C20.57 44.3 21.12 43.03 21.68 41.72 C21.96 41.05 21.96 41.05 23.38 37.69 C23.93 36.4 24.48 35.11 25.05 33.79 C28.44 25.83 31.66 17.82 34.73 9.73 C34.94 9.28 34.94 9.28 36 7 C36.66 7 37.32 7 38 7 C38.33 7.99 38.66 8.98 39 10 C39.99 10 40.98 10 42 10 C44.05 16.15 40.46 23.26 38 29 C37.34 29 36.68 29 36 29 C36 31.31 36 33.62 36 36 C35.01 36 34.02 36 33 36 C33 38.97 33 41.94 33 45 C33.99 45.33 34.98 45.66 36 46 C36.33 45.34 36.66 44.68 37 44 C37.99 44 38.98 44 40 44 C40 42.35 40 40.7 40 39 C41.29 37.63 42.63 36.3 44 35 C45.8 31.72 47.41 28.37 49.02 25 C51.33 21.5 53.04 20.3 57 19 C57.99 19.66 58.98 20.32 60 21 C60.33 20.34 60.66 19.68 61 19 C61.99 19.33 62.98 19.66 64 20 C61.62 26.53 57.69 32.14 54 38 C53.62 38.61 53.62 38.61 51.72 41.71 C43.7 54.59 34.02 64.76 18.73 68.57 C15.5 69.08 12.41 69.14 9.14 69.15 C7.74 69.15 6.35 69.16 4.91 69.17 C4.15 69.17 4.15 69.17 0.29 69.18 C-0.52 69.18 -0.52 69.18 -4.59 69.2 C-9.92 69.22 -15.26 69.23 -20.59 69.24 C-22.43 69.24 -24.27 69.25 -26.1 69.25 C-34.73 69.27 -43.36 69.28 -51.99 69.29 C-61.95 69.3 -71.91 69.33 -81.87 69.37 C-89.58 69.4 -97.28 69.41 -104.98 69.42 C-109.58 69.42 -114.18 69.43 -118.78 69.45 C-123.9 69.48 -129.03 69.48 -134.16 69.47 C-135.68 69.48 -137.21 69.5 -138.77 69.51 C-140.17 69.5 -141.57 69.49 -143.01 69.49 C-144.22 69.49 -145.43 69.49 -146.68 69.49 C-150.7 68.9 -152.85 67.52 -156 65 C-158.65 60.94 -159.55 57.83 -159 53 C-157 51 -157 51 -154 49 C-153.34 47.68 -152.68 46.36 -152 45 C-148 46 -148 46 -146.19 48.75 C-144.91 52.25 -145.13 53.5 -146 57 C-133.31 56.94 -120.62 56.86 -107.93 56.76 C-102.03 56.72 -96.14 56.68 -90.25 56.65 C-84.56 56.63 -78.87 56.59 -73.19 56.54 C-71.02 56.52 -68.85 56.51 -66.68 56.5 C-63.64 56.49 -60.6 56.46 -57.56 56.43 C-56.67 56.43 -55.77 56.44 -54.84 56.44 C-50.05 56.36 -46.8 56.01 -43 53 C-37.58 47.24 -32.97 40.7 -28.36 34.29 C-5.78 2.89 -5.78 2.89 0 0 Z " fill="#233342" transform="translate(160,206)"/>
<path d="M0 0 C5 4.22 9.82 8.55 14.5 13.12 C15.14 13.73 15.79 14.34 16.45 14.96 C18.28 16.76 18.28 16.76 21 20 C20 24 20 24 17.9 25.68 C9.41 30.71 0.76 35.42 -7.93 40.08 C-15.18 43.98 -22.26 48.05 -29.32 52.27 C-35.35 55.83 -41.5 59.18 -47.62 62.56 C-56.16 67.28 -64.61 72.08 -72.94 77.16 C-76.61 79.36 -80.33 81.44 -84.11 83.45 C-86.35 84.65 -88.58 85.89 -90.8 87.14 C-92.12 87.88 -93.45 88.62 -94.81 89.38 C-96.04 90.06 -97.26 90.75 -98.52 91.46 C-102.28 93.13 -103.98 93.87 -108 93 C-110.95 90.78 -113.39 88.59 -116 86 C-116.52 85.49 -116.52 85.49 -119.15 82.93 C-122.18 79.95 -125.18 76.96 -128.18 73.95 C-130.06 72.07 -131.94 70.19 -133.82 68.31 C-139.76 62.38 -145.52 56.37 -151 50 C-153.36 47.68 -155.76 45.42 -158.18 43.18 C-160.29 40.66 -161.01 39.29 -161 36 C-159.06 33.69 -159.06 33.69 -157 32 C-155.07 33.42 -153.14 34.84 -151.21 36.27 C-149.5 37.52 -147.8 38.78 -146.09 40.04 C-141.77 43.22 -137.46 46.4 -133.14 49.59 C-125.13 55.5 -117.11 61.4 -109.06 67.25 C-108.31 67.8 -107.56 68.35 -106.78 68.91 C-99.8 73.97 -95.17 75.68 -86.61 75.58 C-80.58 74.61 -77.22 71.19 -73 67 C-71.74 65.95 -70.48 64.9 -69.19 63.81 C-66.34 61.3 -63.65 58.72 -61 56 C-55.38 50.27 -49.61 44.85 -43.31 39.88 C-40.68 37.74 -38.37 35.43 -36 33 C-31.59 28.49 -27.12 24.16 -22.34 20.05 C-19.32 17.4 -16.38 14.67 -13.44 11.94 C-9.03 7.86 -4.6 3.85 0 0 Z " fill="#A0792F" transform="translate(420,131)"/>
<path d="M0 0 C10.55 0.25 10.55 0.25 14.87 3.31 C18.89 7.98 21.3 13.32 23.38 19.07 C24.43 21.99 25.79 24.7 27.23 27.44 C29.3 25.19 29.3 25.19 31.23 22.44 C29.89 17.07 27.14 12.79 24.38 8.02 C21.23 2.53 21.23 2.53 21.23 1.44 C30.03 0.48 30.03 0.48 33.46 3.22 C35.16 5.21 36.71 7.32 38.23 9.44 C38.62 9.06 38.62 9.06 40.55 7.13 C46.23 1.44 46.23 1.44 49.59 1.15 C50.22 1.17 50.22 1.17 53.42 1.25 C54.06 1.27 54.06 1.27 57.28 1.34 C57.76 1.35 57.76 1.35 60.23 1.44 C57.76 6 55.01 10.12 51.88 14.26 C49.17 17.86 46.55 21.53 43.92 25.19 C38.77 32.34 33.55 39.42 28.23 46.44 C26.13 49.23 24.02 52.02 21.92 54.82 C20.94 56.12 19.95 57.43 18.93 58.78 C17.22 61.11 15.57 63.48 14 65.92 C13.42 66.75 12.84 67.58 12.23 68.44 C11.57 68.44 10.91 68.44 10.23 68.44 C9.45 66.7 8.76 64.92 8.11 63.13 C2.24 48.57 -7.53 39.58 -21.77 33.44 C-27.33 31.19 -32.75 29.09 -38.77 28.44 C-37.67 24.06 -35.74 21.64 -32.95 18.16 C-30.38 14.96 -27.89 11.7 -25.39 8.44 C-18.25 -0.88 -11.6 0.34 0 0 Z " fill="#DFB466" transform="translate(101.766357421875,184.55810546875)"/>
<path d="M0 0 C3 1 3 1 6 4 C4.97 8.04 2.62 11.47 0.45 15 C-0.25 16.13 -0.95 17.27 -1.67 18.44 C-2.03 19.03 -2.03 19.03 -3.88 22 C-4.6 23.18 -5.32 24.35 -6.06 25.56 C-9.16 30.6 -12.22 35.44 -16 40 C-16.33 39.84 -16.33 39.84 -18 39 C-18 37.35 -18 35.7 -18 34 C-19.32 34 -20.64 34 -22 34 C-22 33.34 -22 32.68 -22 32 C-21.34 32 -20.68 32 -20 32 C-19.67 29.36 -19.34 26.72 -19 24 C-19.38 24.6 -19.75 25.2 -20.14 25.82 C-26.09 35.34 -32.04 44.86 -37.98 54.38 C-38.62 55.39 -39.26 56.41 -39.91 57.46 C-41.18 59.48 -42.44 61.5 -43.7 63.52 C-46.48 67.96 -49.25 72.4 -52.02 76.85 C-52.25 77.22 -52.25 77.22 -53.4 79.06 C-54.59 80.96 -55.77 82.86 -56.95 84.76 C-57.63 85.83 -58.3 86.9 -59 88 C-59.67 89.07 -60.33 90.14 -61.02 91.24 C-63 94 -63 94 -67 97 C-65.12 87.37 -65.12 87.37 -64 84 C-63.93 82.11 -63.92 80.21 -63.94 78.31 C-63.95 77.32 -63.96 76.32 -63.96 75.3 C-63.98 74.54 -63.99 73.78 -64 73 C-64.99 72.67 -65.98 72.34 -67 72 C-67.69 67.44 -67.69 67.44 -68 63 C-68.99 63 -69.98 63 -71 63 C-71.99 62.67 -72.98 62.34 -74 62 C-73.43 56.28 -71.8 51.32 -69.65 46.03 C-69.31 45.19 -68.97 44.35 -68.63 43.49 C-67.91 41.72 -67.2 39.96 -66.47 38.19 C-65.38 35.52 -64.32 32.83 -63.25 30.14 C-62.55 28.41 -61.85 26.69 -61.15 24.97 C-60.84 24.17 -60.53 23.38 -60.21 22.56 C-57.45 15.97 -53.79 11.27 -47.61 7.57 C-43.78 6.74 -40.18 6.85 -36.27 6.95 C-34.56 6.97 -32.86 7 -31.15 7.02 C-28.47 7.07 -25.79 7.13 -23.11 7.19 C-20.52 7.25 -17.93 7.29 -15.33 7.32 C-13.78 7.35 -12.23 7.39 -10.64 7.42 C-9.44 7.28 -8.24 7.14 -7 7 C-6.34 5.68 -5.68 4.36 -5 3 C-3.68 2.67 -2.36 2.34 -1 2 C-0.67 1.34 -0.34 0.68 0 0 Z " fill="#253341" transform="translate(311,32)"/>
<path d="M0 0 C2 3 2 3 2 7 C2.99 7.33 3.98 7.66 5 8 C5.33 7.01 5.66 6.02 6 5 C9 8 9 8 9.19 10.45 C9.16 10.91 9.16 10.91 9 13.25 C8.86 18.2 9.44 21.63 12 26 C12.99 26.33 13.98 26.66 15 27 C18.43 30.35 19.92 32.03 20.31 36.88 C20.21 37.91 20.11 38.94 20 40 C19.01 40 18.02 40 17 40 C15.94 42.25 15.94 42.25 15 45 C14.34 46.32 13.68 47.64 13 49 C12.01 49.33 11.02 49.66 10 50 C8.16 52.89 6.47 55.76 4.81 58.75 C3.82 60.51 2.82 62.27 1.82 64.03 C1.33 64.89 0.85 65.75 0.35 66.64 C-1.91 70.59 -4.32 74.45 -6.72 78.32 C-9.15 82.25 -11.55 86.19 -13.94 90.14 C-20.83 101.51 -27.82 112.81 -35 124 C-35.71 125.16 -36.42 126.33 -37.15 127.53 C-37.76 128.34 -38.37 129.16 -39 130 C-39.99 130 -40.98 130 -42 130 C-41.67 127.03 -41.34 124.06 -41 121 C-40.01 121 -39.02 121 -38 121 C-38 118.69 -38 116.38 -38 114 C-37.34 114 -36.68 114 -36 114 C-35.88 113.09 -35.75 112.19 -35.62 111.25 C-35 108 -35 108 -33 104 C-32.25 100.38 -32.25 100.38 -32 97 C-32.66 96.34 -33.32 95.68 -34 95 C-34.33 95.16 -34.33 95.16 -36 96 C-37.52 89.69 -36.22 86.14 -33.58 80.3 C-32.83 78.61 -32.08 76.92 -31.33 75.22 C-30.94 74.36 -30.55 73.49 -30.15 72.6 C-28.33 68.5 -26.63 64.35 -24.92 60.2 C-24.23 58.54 -23.55 56.88 -22.86 55.22 C-22.16 53.52 -21.45 51.82 -20.75 50.12 C-20.01 48.34 -19.27 46.56 -18.53 44.78 C-16.35 39.52 -14.18 34.26 -12 29 C-11.67 28.21 -11.35 27.42 -11.01 26.6 C-7.34 17.74 -3.67 8.87 0 0 Z " fill="#26313A" transform="translate(234,121)"/>
<path d="M0 0 C4.08 1.16 8.17 2.21 12.3 3.22 C14.07 3.66 15.85 4.11 17.62 4.55 C18.58 4.79 19.54 5.03 20.52 5.27 C22.58 5.79 24.65 6.31 26.71 6.82 C31.83 8.1 36.95 9.38 42.07 10.65 C42.96 10.87 43.86 11.1 44.78 11.33 C47.21 11.93 49.65 12.54 52.08 13.14 C55.84 14.1 59.57 15.13 63.3 16.22 C64.37 23.66 60.73 28.11 56.8 34.03 C55.42 36.16 54.05 38.3 52.68 40.43 C52.32 40.99 52.32 40.99 50.5 43.79 C46.83 49.51 43.28 55.3 39.73 61.09 C39.08 62.16 38.43 63.22 37.75 64.31 C37.13 65.33 36.5 66.35 35.86 67.4 C35.56 67.88 35.56 67.88 34.03 70.35 C32.87 72.27 31.74 74.21 30.64 76.16 C30.13 77.07 29.61 77.98 29.08 78.91 C28.64 79.72 28.2 80.53 27.74 81.36 C26.3 83.22 26.3 83.22 22.3 84.22 C22 79.16 22.32 76.34 25.3 72.22 C25.63 71.72 25.63 71.72 27.3 69.22 C28.29 68.89 29.28 68.56 30.3 68.22 C31.65 65.89 31.65 65.89 32.92 62.97 C33.35 62.01 33.77 61.06 34.21 60.08 C35.21 57.44 35.84 54.99 36.3 52.22 C36.96 52.22 37.62 52.22 38.3 52.22 C37.97 50.57 37.64 48.92 37.3 47.22 C34.99 46.89 32.68 46.56 30.3 46.22 C30.46 45.89 30.46 45.89 31.3 44.22 C34.3 44.14 37.3 44.13 40.3 44.22 C40.96 41.91 41.62 39.6 42.3 37.22 C41.8 37.05 41.8 37.05 39.3 36.22 C38.97 35.23 38.64 34.24 38.3 33.22 C37.48 32.94 36.66 32.67 35.82 32.38 C34.98 32 34.15 31.61 33.3 31.22 C32.37 28.62 32.37 28.62 31.98 25.59 C31.84 24.59 31.7 23.59 31.56 22.55 C31.47 21.78 31.39 21.01 31.3 20.22 C28.36 20.22 27.17 21.76 24.92 23.59 C19.99 27.6 16.49 29.48 10.05 29.34 C8.97 29.33 7.89 29.31 6.78 29.29 C5.96 29.27 5.14 29.24 4.3 29.22 C4.3 29.88 4.3 30.54 4.3 31.22 C5.62 31.88 6.94 32.54 8.3 33.22 C11.63 38.78 11.72 44.21 11.89 50.52 C12.02 51.41 12.16 52.3 12.3 53.22 C15.3 54.22 15.3 54.22 19.3 53.22 C18.97 54.54 18.64 55.86 18.3 57.22 C17.97 57.05 17.97 57.05 16.3 56.22 C16.36 56.66 16.36 56.66 16.67 58.91 C16.3 62.22 16.3 62.22 13.48 64.84 C12.43 65.63 11.38 66.41 10.3 67.22 C9.31 68.54 8.32 69.86 7.3 71.22 C6.64 71.22 5.98 71.22 5.3 71.22 C5.3 72.21 5.3 73.2 5.3 74.22 C4.64 74.22 3.98 74.22 3.3 74.22 C3.3 70.92 3.3 67.62 3.3 64.22 C3.96 64.22 4.62 64.22 5.3 64.22 C5.63 58.94 5.96 53.66 6.3 48.22 C4.81 48.38 4.81 48.38 -2.7 49.22 C-2.7 49.88 -2.7 50.54 -2.7 51.22 C-3.53 51.4 -4.37 51.58 -5.22 51.77 C-6.31 52.02 -7.4 52.27 -8.52 52.53 C-9.59 52.77 -10.67 53.02 -11.79 53.27 C-14.7 54.22 -14.7 54.22 -17.7 57.22 C-22.23 59.53 -25.62 60.59 -30.7 60.22 C-30.7 59.56 -30.7 58.9 -30.7 58.22 C-30.04 58.22 -29.38 58.22 -28.7 58.22 C-28.37 57.23 -28.04 56.24 -27.7 55.22 C-25.14 54.53 -25.14 54.53 -22.7 54.22 C-22.7 53.23 -22.7 52.24 -22.7 51.22 C-20.06 50.56 -17.42 49.9 -14.7 49.22 C-14.7 48.56 -14.7 47.9 -14.7 47.22 C-11.46 43.98 -8.88 42.98 -4.7 41.22 C-0.7 38.22 -0.7 38.22 0.3 35.22 C-4.98 34.89 -10.26 34.56 -15.7 34.22 C-15.7 32.9 -15.7 31.58 -15.7 30.22 C-15.04 30.22 -14.38 30.22 -13.7 30.22 C-13.7 29.56 -13.7 28.9 -13.7 28.22 C-12.22 28.05 -12.22 28.05 -4.7 27.22 C-4.7 26.56 -4.7 25.9 -4.7 25.22 C-4.23 25.24 -4.23 25.24 -1.83 25.34 C1.3 25.22 1.3 25.22 3.3 23.22 C4.29 23.22 5.28 23.22 6.3 23.22 C6.3 22.56 6.3 21.9 6.3 21.22 C8.28 21.22 10.26 21.22 12.3 21.22 C12.3 20.23 12.3 19.24 12.3 18.22 C14.96 17.2 17.63 16.21 20.3 15.22 C20.46 14.72 20.46 14.72 21.3 12.22 C19.81 11.89 19.81 11.89 12.3 10.22 C12.3 9.56 12.3 8.9 12.3 8.22 C10.85 8.12 9.41 8.01 7.92 7.91 C7.16 7.79 7.16 7.79 3.3 7.22 C2.64 6.23 1.98 5.24 1.3 4.22 C-1.86 2.78 -3.86 2.04 -7.3 2.76 C-11.83 3.37 -15.99 2.62 -20.45 1.84 C-20.88 1.77 -20.88 1.77 -23.07 1.42 C-29.4 0.37 -29.4 0.37 -31.7 -0.78 C-23.07 -9.7 -10.73 -3.09 0 0 Z " fill="#EDF0EE" transform="translate(360.703125,17.78125)"/>
<path d="M0 0 C2.85 0.07 5.7 0.19 8.54 0.35 C9.27 0.37 9.27 0.37 12.96 0.49 C16.55 0.61 20.14 0.77 23.73 0.98 C13.41 32.21 13.41 32.21 1.3 40.48 C-1.47 42.42 -4.03 44.38 -6.62 46.53 C-7.37 47.14 -8.12 47.75 -8.89 48.38 C-10.37 49.6 -11.85 50.83 -13.31 52.08 C-15.39 53.74 -15.39 53.74 -19.27 55.98 C-20.12 55.54 -20.96 55.1 -21.83 54.65 C-26.62 52.32 -30.88 52.5 -36.14 52.46 C-37.17 52.45 -38.21 52.43 -39.27 52.41 C-42.56 52.36 -45.85 52.32 -49.14 52.29 C-51.38 52.26 -53.62 52.22 -55.86 52.19 C-61.33 52.1 -66.8 52.03 -72.27 51.98 C-72.27 51.65 -72.27 51.32 -72.27 50.98 C-69.63 50.98 -66.99 50.98 -64.27 50.98 C-64.11 50.5 -64.11 50.5 -63.33 48.1 C-62.27 44.98 -62.27 44.98 -61.27 42.98 C-58.93 42.3 -58.93 42.3 -55.89 41.66 C-44.01 38.85 -31.54 33.19 -23.27 23.98 C-22.47 23.21 -21.66 22.45 -20.83 21.66 C-13.1 13.55 -13.1 13.55 -11.44 8.39 C-9.26 1.75 -6.98 0.3 0 0 Z " fill="#DEB46A" transform="translate(204.26953125,115.0234375)"/>
<path d="M0 0 C0.93 -0 1.85 -0 2.81 -0 C5.87 0 8.92 0.02 11.98 0.05 C14.1 0.05 16.23 0.06 18.35 0.06 C23.93 0.07 29.51 0.1 35.09 0.13 C40.79 0.17 46.49 0.18 52.19 0.19 C63.36 0.23 74.54 0.28 85.71 0.34 C84.88 5.89 81.98 9.47 78.65 13.84 C78.03 14.67 77.41 15.49 76.77 16.34 C74.76 19.02 72.74 21.68 70.71 24.34 C70.03 25.24 69.35 26.13 68.64 27.05 C65.9 30.65 63.15 34.25 60.4 37.84 C55.88 43.76 51.51 49.77 47.22 55.86 C44.2 60.05 41.1 64.17 37.96 68.28 C37.43 68.98 36.9 69.67 36.35 70.39 C32.94 74.84 29.39 79.12 25.71 83.34 C25.71 82.35 25.71 81.36 25.71 80.34 C25.49 79.82 25.49 79.82 24.35 77.16 C23.71 73.34 23.71 73.34 26.01 69.43 C27.14 68.03 28.29 66.65 29.46 65.28 C30.69 63.77 31.91 62.26 33.13 60.75 C33.44 60.37 33.44 60.37 34.98 58.49 C37.38 55.51 39.58 52.41 41.77 49.28 C45.38 44.17 49.08 39.15 52.84 34.15 C65.65 17.14 65.65 17.14 70.71 9.34 C59.38 8.11 59.38 8.11 55.29 11.12 C53.4 13.34 53.4 13.34 50.71 17.34 C44.96 12.72 44.96 12.72 42.71 9.34 C38.09 9.15 38.09 9.15 33.71 9.34 C34.45 10.51 35.18 11.68 35.93 12.88 C36.88 14.43 37.83 15.98 38.77 17.53 C39.26 18.3 39.74 19.07 40.24 19.86 C43.7 25.56 43.7 25.56 43.77 29.14 C42.5 31.79 40.91 33.42 38.71 35.34 C37.36 33.08 36 30.82 34.65 28.56 C33.21 26.17 31.76 23.79 30.31 21.41 C29.9 20.74 29.9 20.74 27.84 17.34 C27.45 16.7 27.45 16.7 25.47 13.47 C23.71 10.34 23.71 10.34 23.71 8.34 C-6.48 6.92 -6.48 6.92 -12.62 12.21 C-15.32 15.8 -17.33 19.31 -19.29 23.34 C-20.6 25.08 -21.95 26.8 -23.35 28.47 C-26.29 32.34 -26.29 32.34 -28.29 36.34 C-28.95 35.35 -29.61 34.36 -30.29 33.34 C-30.95 33.51 -30.95 33.51 -34.29 34.34 C-35.28 33.68 -36.27 33.02 -37.29 32.34 C-36.72 31.67 -36.15 31 -35.56 30.31 C-31.56 25.58 -27.62 20.82 -23.91 15.86 C-23.34 15.1 -22.77 14.35 -22.18 13.56 C-21.06 12.06 -19.95 10.55 -18.84 9.04 C-13.18 1.46 -9.32 -0.12 0 0 Z " fill="#EBEBE6" transform="translate(90.288330078125,177.659423828125)"/>
<path d="M0 0 C0.52 0 0.52 0 3.13 0.03 C4.28 0.03 5.43 0.04 6.61 0.04 C7.82 0.06 9.02 0.09 10.26 0.11 C11.43 0.11 12.59 0.12 13.79 0.12 C21.69 0.19 29.52 0.65 37.39 1.36 C37.39 2.68 37.39 4 37.39 5.36 C37.84 5.35 37.84 5.35 40.13 5.32 C44.19 5.28 48.26 5.26 52.32 5.23 C53.04 5.22 53.04 5.22 56.64 5.18 C57.31 5.18 57.31 5.18 60.73 5.16 C61.98 5.15 63.23 5.14 64.52 5.13 C64.99 5.17 64.99 5.17 67.39 5.36 C67.55 5.69 67.55 5.69 68.39 7.36 C67.93 7.34 67.93 7.34 65.64 7.26 C61.51 7.14 57.39 7.12 53.26 7.11 C52.55 7.08 52.55 7.08 48.93 6.95 C44.77 6.97 41.37 7.11 37.39 8.36 C34.25 12.02 32.98 15.87 31.39 20.36 C21.72 35.36 6.29 44.48 -10.61 49.36 C-14.09 49.52 -14.09 49.52 -16.61 49.36 C-16.92 50.31 -17.23 51.25 -17.55 52.23 C-18.61 55.36 -18.61 55.36 -19.61 57.36 C-22.28 57.44 -24.95 57.44 -27.61 57.36 C-24.11 47.03 -20.03 36.99 -15.73 26.98 C-14.54 24.18 -13.37 21.38 -12.2 18.58 C-11.4 16.67 -10.6 14.76 -9.8 12.86 C-9.43 11.95 -9.05 11.05 -8.67 10.12 C-4.66 0.64 -4.66 0.64 0 0 Z " fill="#F5EFE0" transform="translate(159.61279296875,108.6435546875)"/>
<path d="M0 0 C3.74 0.27 6.44 0.92 10 2 C12.88 2.73 15.75 3.45 18.63 4.16 C21.8 4.98 24.96 5.8 28.12 6.62 C29.77 7.05 31.41 7.47 33.05 7.9 C37.03 8.93 41.02 9.96 45 11 C44 13 44 13 41.59 13.93 C40.57 14.24 39.55 14.55 38.5 14.88 C34.03 16.25 29.87 17.96 25.62 19.89 C19.23 22.59 12.56 24.63 5.98 26.82 C4.85 27.2 3.73 27.58 2.57 27.98 C2.06 28.15 2.06 28.15 -0.53 29.01 C-3 30 -3 30 -5 32 C4.24 32.99 13.48 33.98 23 35 C20.44 38.84 18.04 39.65 13.88 41.62 C8.29 44.35 2.83 47.16 -2.56 50.25 C-9.26 54.07 -16.04 57.69 -22.88 61.25 C-23.35 61.5 -23.35 61.5 -25.76 62.75 C-31.81 65.89 -37.89 68.96 -44 72 C-38.6 61.21 -32.05 50.96 -25.48 40.85 C-23.03 37.04 -20.63 33.2 -18.25 29.35 C-17.13 27.54 -16 25.73 -14.87 23.93 C-12.22 19.69 -9.66 15.44 -7.3 11.03 C-7.09 10.65 -7.09 10.65 -6.02 8.73 C-4.89 6.69 -3.79 4.63 -2.71 2.57 C-1.81 1.72 -0.92 0.87 0 0 Z " fill="#EA9F23" transform="translate(336,20)"/>
<path d="M0 0 C1.13 0.4 2.27 0.79 3.43 1.2 C10.89 3.69 18.49 5.67 26.06 7.75 C37.84 11 49.61 14.29 61.33 17.75 C67.53 19.59 73.75 21.3 80 23 C80 30.92 80 38.84 80 47 C80.5 47.16 80.5 47.16 83 48 C82.84 48.33 82.84 48.33 82 50 C82.99 49.67 83.98 49.34 85 49 C84.67 51.94 84.12 53.82 82.5 56.31 C78.59 58.95 75.63 58.43 71 58 C67.88 56.23 65.39 54.58 62.62 52.38 C61.86 51.79 61.09 51.21 60.29 50.6 C58.67 49.37 57.05 48.13 55.44 46.88 C52.3 44.46 49.12 42.12 45.92 39.79 C43.55 38.05 41.18 36.3 38.81 34.55 C35.56 32.15 32.3 29.75 29.04 27.36 C3.93 8.93 3.93 8.93 -1 4 C-0.67 2.68 -0.34 1.36 0 0 Z " fill="#EBEDED" transform="translate(254,137)"/>
<path d="M0 0 C4.5 2.25 7.13 5.15 10.44 8.81 C19.97 19.19 29.99 29.08 40 39 C40.99 38.01 41.98 37.02 43 36 C45.38 35 45.38 35 48 35 C50.81 37.31 50.81 37.31 53 40 C53 40.66 53 41.32 53 42 C54.32 42.66 55.64 43.32 57 44 C57.33 44.33 57.66 44.66 58 45 C59.98 45.13 61.96 45.18 63.94 45.19 C65.02 45.2 66.1 45.22 67.21 45.23 C70 45 70 45 72 43 C79.82 40.73 79.82 40.73 84.06 41.69 C84.7 42.12 85.34 42.55 86 43 C86 43.99 86 44.98 86 46 C82.16 49.71 77.63 51.85 72.88 54.19 C71.47 54.88 70.06 55.58 68.62 56.29 C61.75 59.53 55.88 60.17 48.59 57.98 C45.21 56.71 41.85 55.39 38.5 54.02 C34.57 52.42 30.62 50.89 26.67 49.36 C22.11 47.58 17.55 45.79 13 44 C13.33 43.01 13.66 42.02 14 41 C17.06 40.31 17.06 40.31 20 40 C20 38.35 20 36.7 20 35 C17.79 33.45 17.79 33.45 14.62 32.12 C13.46 31.63 12.29 31.13 11.09 30.62 C9.74 30.09 8.39 29.55 7 29 C6.21 28.69 5.43 28.37 4.62 28.05 C-0.57 25.99 -5.78 23.98 -11 22 C-10.44 17.39 -8.55 14.32 -6.06 10.44 C-3.86 6.99 -1.83 3.66 0 0 Z " fill="#223343" transform="translate(251,180)"/>
<path d="M0 0 C4 2 4 2 5 4 C4.67 4.99 4.34 5.98 4 7 C7 6 7 6 9 5 C9.33 4.01 9.66 3.02 10 2 C10.98 2.41 11.95 2.81 12.96 3.23 C16.68 4.79 20.41 6.34 24.13 7.9 C26.62 8.93 29.1 9.97 31.58 11.01 C38.77 14.02 45.96 17.01 53.22 19.86 C53.73 20.06 53.73 20.06 56.3 21.08 C58.14 21.8 59.98 22.51 61.83 23.21 C67.78 25.56 67.78 25.56 70 30 C69.34 30 68.68 30 68 30 C68 30.99 68 31.98 68 33 C67.34 33 66.68 33 66 33 C66.33 33.99 66.66 34.98 67 36 C66.5 36.16 66.5 36.16 64 37 C69.28 38.98 74.56 40.96 80 43 C79.84 43.33 79.84 43.33 79 45 C70.23 44.85 62.68 42.09 54.5 39.12 C51.99 38.23 49.48 37.34 46.97 36.45 C46.37 36.23 46.37 36.23 43.36 35.16 C38.94 33.63 34.49 32.3 30 31 C28.33 30.5 28.33 30.5 20 28 C20 28.66 20 29.32 20 30 C19.01 30.99 18.02 31.98 17 33 C17 33.66 17 34.32 17 35 C16.01 35 15.02 35 14 35 C14 35.66 14 36.32 14 37 C6.27 35.4 1.77 33.36 -3 27 C-4.04 21.9 -4.44 19 -2.31 14.19 C-1.88 13.14 -1.45 12.08 -1 11 C-2.81 8.81 -2.81 8.81 -5 7 C-5 5.68 -5 4.36 -5 3 C-4.01 2.67 -3.02 2.34 -2 2 C-1.67 2.33 -1.34 2.66 -1 3 C-0.67 2.01 -0.34 1.02 0 0 Z " fill="#233343" transform="translate(229,218)"/>
<path d="M0 0 C8.87 1.14 17.94 4.37 25.88 8.5 C25.88 9.16 25.88 9.82 25.88 10.5 C26.6 10.79 27.32 11.08 28.06 11.38 C35.97 14.54 40.76 21.77 44.25 29.25 C45.88 33.5 45.88 33.5 45.88 37.5 C34.66 37.5 23.44 37.5 11.88 37.5 C14 32.19 16.39 28.97 19.88 24.5 C15.5 24.75 15.5 24.75 10.88 25.5 C9.52 28.22 8.23 30.97 7 33.75 C3.88 37.5 3.88 37.5 0.88 38.02 C-2.16 38 -5.11 37.85 -8.12 37.5 C-7.11 33.43 -5.97 31.62 -3.5 28.31 C-2.79 27.35 -2.07 26.39 -1.34 25.41 C1.7 21.41 4.77 17.44 7.88 13.5 C3.26 13.93 0.21 14.25 -3.22 17.47 C-5.3 20.08 -7.23 22.75 -9.12 25.5 C-10.6 27.52 -12.08 29.54 -13.56 31.56 C-13.89 32.02 -13.89 32.02 -15.56 34.35 C-17.13 36.5 -17.13 36.5 -18.12 37.5 C-20.31 37.57 -22.5 37.58 -24.69 37.56 C-25.29 37.56 -25.29 37.56 -28.32 37.54 C-29.24 37.52 -30.17 37.51 -31.12 37.5 C-29.03 33.3 -26.59 30.2 -23.62 26.56 C-22.54 25.22 -21.46 23.88 -20.38 22.54 C-19.83 21.87 -19.29 21.2 -18.73 20.5 C-15.51 16.49 -12.4 12.39 -9.28 8.3 C-8.57 7.38 -7.86 6.45 -7.12 5.5 C-6.44 4.56 -5.75 3.63 -5.04 2.66 C-3.12 0.5 -3.12 0.5 0 0 Z " fill="#DEB56A" transform="translate(59.125,218.5)"/>
<path d="M0 0 C2.99 2.99 2.69 6.37 3.14 10.47 C3.29 10.89 3.29 10.89 4 13 C6.51 14.16 6.51 14.16 9 15 C9.16 15.5 9.16 15.5 10 18 C10.66 18.33 11.32 18.66 12 19 C11.12 23.75 11.12 23.75 10 26 C7.01 26.41 4.01 26.75 1 27 C3.31 27.66 5.62 28.32 8 29 C8 30.65 8 32.3 8 34 C7.34 34 6.68 34 6 34 C5.97 34.57 5.97 34.57 5.81 37.44 C4.82 43.02 3.07 46.25 0 51 C-0.5 51.16 -0.5 51.16 -3 52 C-4.07 53.97 -5.07 55.97 -6 58 C-6.33 58.33 -6.66 58.66 -7 59 C-7.19 62 -7.19 62 -7 65 C-6.34 65.33 -5.68 65.66 -5 66 C-15.37 83.86 -15.37 83.86 -21 92 C-21.5 91.84 -21.5 91.84 -24 91 C-24.66 91.33 -24.66 91.33 -28 93 C-28.12 93.93 -28.25 94.86 -28.38 95.81 C-29.23 100.19 -31.62 101.25 -35 104 C-35.75 106.75 -35.75 106.75 -36 109 C-41.66 111.83 -48.56 109.82 -54.25 107.96 C-54.65 107.83 -54.65 107.83 -56.69 107.12 C-57.5 106.86 -58.32 106.59 -59.16 106.31 C-62.54 105.19 -65.91 104.03 -69.26 102.84 C-71.96 102.01 -74.32 101.68 -77.12 101.5 C-82 101 -82 101 -86 99 C-86.33 97.68 -86.66 96.36 -87 95 C-86.01 93.68 -85.02 92.36 -84 91 C-82.68 91 -81.36 91 -80 91 C-80 90.01 -80 89.02 -80 88 C-78.68 88.33 -77.36 88.66 -76 89 C-76.99 89.95 -77.98 90.9 -79 91.88 C-82 95 -82 95 -82 97 C-78.23 98.11 -74.46 99.21 -70.69 100.31 C-70.16 100.47 -70.16 100.47 -67.5 101.25 C-65.38 101.87 -63.25 102.48 -61.13 103.1 C-59.08 103.69 -57.04 104.29 -55 104.9 C-44.13 108.06 -44.13 108.06 -40 107 C-37.23 103.88 -35.32 100.34 -33.31 96.69 C-32.09 94.56 -30.86 92.44 -29.63 90.32 C-29.32 89.78 -29.32 89.78 -27.79 87.08 C-25.23 82.68 -22.5 78.4 -19.75 74.12 C-15.1 66.83 -10.68 59.43 -6.32 51.96 C-3.52 47.17 -0.62 42.45 2.31 37.73 C3.9 35.17 5.45 32.59 7 30 C-1.92 32.34 -6.45 35.76 -12 43 C-13.5 44.84 -15 46.67 -16.5 48.5 C-17.24 49.42 -17.99 50.33 -18.75 51.28 C-22.65 56 -26.66 60.66 -31 65 C-29.78 53.57 -28.12 42.3 -26 31 C-28.31 31.66 -30.62 32.32 -33 33 C-33 32.34 -33 31.68 -33 31 C-30.03 30.67 -27.06 30.34 -24 30 C-24.33 35.28 -24.66 40.56 -25 46 C-25.66 46 -26.32 46 -27 46 C-27 49.3 -27 52.6 -27 56 C-26.34 56 -25.68 56 -25 56 C-25 55.01 -25 54.02 -25 53 C-22.41 50.06 -20.75 48.25 -17 47 C-16.67 46.01 -16.34 45.02 -16 44 C-15.34 44 -14.68 44 -14 44 C-14 42.02 -14 40.04 -14 38 C-13.34 38 -12.68 38 -12 38 C-11.67 37.01 -11.34 36.02 -11 35 C-11.76 35.37 -12.53 35.74 -13.31 36.12 C-13.76 36.27 -13.76 36.27 -16 37 C-16.5 36.67 -16.5 36.67 -19 35 C-19.37 32.24 -19.37 32.24 -19.44 28.88 C-19.76 22.84 -20.77 19.09 -24 14 C-24.66 13.67 -25.32 13.34 -26 13 C-26 12.34 -26 11.68 -26 11 C-25.25 11 -24.5 10.99 -23.73 10.99 C-13.62 10.61 -6.96 7.29 0 0 Z " fill="#F2ECDC" transform="translate(391,36)"/>
<path d="M0 0 C1.23 0.03 2.46 0.07 3.73 0.11 C8.65 0.38 13.53 0.78 18.44 1.31 C16.89 7.34 13.62 12.04 10.25 17.19 C8.98 19.16 7.71 21.12 6.44 23.09 C5.78 24.11 5.12 25.13 4.45 26.18 C1.15 31.32 -2.08 36.5 -5.31 41.69 C-5.94 42.69 -6.57 43.7 -7.21 44.73 C-9.52 48.43 -11.82 52.13 -14.13 55.83 C-15.07 57.34 -16.02 58.86 -16.97 60.38 C-18.15 62.28 -19.33 64.17 -20.51 66.07 C-21.19 67.14 -21.87 68.21 -22.56 69.31 C-23.23 70.38 -23.9 71.45 -24.58 72.55 C-26.56 75.31 -26.56 75.31 -30.56 78.31 C-29.23 74.31 -27.9 70.31 -26.56 66.31 C-26.44 64.48 -26.39 62.65 -26.38 60.81 C-26.37 60.33 -26.37 60.33 -26.33 57.91 C-26.56 55.31 -26.56 55.31 -28.56 52.31 C-28.21 47.73 -26.73 43.82 -25.02 39.59 C-24.5 38.31 -23.98 37.03 -23.45 35.71 C-22.91 34.38 -22.37 33.05 -21.81 31.69 C-21.29 30.38 -20.76 29.08 -20.22 27.74 C-19.17 25.16 -18.12 22.58 -17.07 20 C-16.09 17.61 -15.14 15.22 -14.2 12.82 C-13.78 11.76 -13.36 10.69 -12.92 9.6 C-12.56 8.67 -12.2 7.74 -11.83 6.79 C-8.92 1.11 -6.27 -0.2 0 0 Z " fill="#AF8027" transform="translate(274.5625,50.6875)"/>
<path d="M0 0 C3.21 3.21 4.05 5.29 5.56 9.5 C6.84 13.02 7.92 15.88 10 19 C9.67 24.01 7.2 28.62 5.25 33.19 C4.91 33.99 4.58 34.79 4.23 35.61 C3.54 37.24 2.82 38.87 2.08 40.48 C1 43 1 43 0.25 45.82 C-0.79 48.98 -1.55 50.73 -4 53 C-9.96 54.28 -15.75 53.94 -21.81 53.62 C-23.46 53.58 -25.11 53.53 -26.8 53.49 C-30.87 53.37 -34.93 53.21 -39 53 C-35.65 47.9 -32.28 42.92 -28.5 38.12 C-24.22 32.62 -20.06 27.05 -15.94 21.44 C-10.67 14.26 -5.36 7.11 0 0 Z " fill="#BC903C" transform="translate(174,203)"/>
<path d="M0 0 C2.71 1.84 5.22 3.77 7.71 5.89 C10.9 8.58 14.03 11.12 17.52 13.39 C18.45 14.12 19.38 14.84 20.34 15.58 C20.34 16.9 20.34 18.22 20.34 19.58 C17.18 21.11 14.2 22.31 10.9 23.46 C9.95 23.8 9.01 24.14 8.03 24.5 C5.14 25.54 2.24 26.56 -0.66 27.58 C-2.34 28.19 -4.02 28.79 -5.7 29.4 C-16.71 33.34 -16.71 33.34 -21.66 34.58 C-21.66 33.92 -21.66 33.26 -21.66 32.58 C-25.66 29.58 -25.66 29.58 -29.79 30.16 C-35.75 31.75 -41.44 34.03 -47.17 36.28 C-49.32 37.1 -51.49 37.85 -53.66 38.58 C-54.32 38.25 -54.98 37.92 -55.66 37.58 C-53.71 36.24 -51.75 34.91 -49.79 33.58 C-48.7 32.84 -47.61 32.1 -46.48 31.33 C-43.66 29.58 -43.66 29.58 -41.66 29.58 C-42.32 28.59 -42.98 27.6 -43.66 26.58 C-44.32 26.91 -44.32 26.91 -47.66 28.58 C-48.65 28.58 -49.64 28.58 -50.66 28.58 C-50.99 29.24 -51.32 29.9 -51.66 30.58 C-52.32 29.92 -52.98 29.26 -53.66 28.58 C-52.49 27.94 -51.31 27.3 -50.1 26.63 C-40.51 21.38 -30.94 16.08 -21.41 10.71 C-20.46 10.17 -19.51 9.64 -18.53 9.09 C-17.62 8.57 -16.71 8.06 -15.77 7.53 C-14.9 7.04 -14.03 6.55 -13.14 6.04 C-10.78 4.65 -8.56 3.13 -6.3 1.57 C-2.66 -0.42 -2.66 -0.42 0 0 Z " fill="#E6EAED" transform="translate(418.6640625,181.41796875)"/>
<path d="M0 0 C1.31 2.62 2.56 5.26 3.75 7.94 C6 12 6 12 9.31 14.69 C10.2 15.45 11.09 16.21 12 17 C11.73 20.86 10.28 23.57 8.26 26.82 C7.7 27.73 7.13 28.65 6.54 29.6 C5.93 30.58 5.32 31.56 4.69 32.56 C3.4 34.65 2.11 36.73 0.82 38.82 C0.18 39.86 -0.47 40.9 -1.14 41.98 C-3.8 46.29 -6.4 50.64 -9 55 C-19.46 72.46 -30.01 89.87 -41 107 C-41.36 107.57 -41.36 107.57 -43.21 110.46 C-45 113 -45 113 -47 114 C-45.74 110.1 -44.35 106.3 -42.78 102.51 C-42.33 101.43 -41.88 100.36 -41.42 99.25 C-40.93 98.07 -40.44 96.9 -39.94 95.69 C-38.85 93.08 -37.77 90.47 -36.68 87.86 C-36.09 86.44 -35.51 85.02 -34.9 83.56 C-31.79 76.09 -28.69 68.62 -25.6 61.14 C-24.5 58.5 -23.41 55.86 -22.31 53.22 C-19 45.23 -15.69 37.24 -12.39 29.25 C-12.11 28.59 -12.11 28.59 -10.73 25.25 C-9.74 22.84 -8.75 20.43 -7.75 18.02 C-5.26 11.97 -2.69 5.97 0 0 Z " fill="#A77E2F" transform="translate(240,138)"/>
<path d="M0 0 C17.49 0 34.98 0 53 0 C54.07 5.34 53.82 6.33 51.75 11.07 C51.49 11.68 51.49 11.68 50.18 14.74 C49.89 15.39 49.89 15.39 48.44 18.69 C47.23 21.49 46.03 24.29 44.83 27.09 C44.2 28.55 43.57 30.01 42.92 31.52 C39.77 38.88 36.73 46.28 33.69 53.69 C33.1 55.11 32.52 56.53 31.91 58 C27.54 68.64 23.23 79.3 19 90 C16.59 85.19 17.14 83.65 18.25 78.5 C18.52 77.19 18.8 75.88 19.08 74.53 C20 71 20 71 22 67 C22.38 65.01 22.73 63.01 23 61 C23.66 61 24.32 61 25 61 C25.33 57.7 25.66 54.4 26 51 C22.35 52.28 20.83 53.17 18 56 C17.34 56 16.68 56 16 56 C16 56.66 16 57.32 16 58 C15.01 58 14.02 58 13 58 C13 58.66 13 59.32 13 60 C10.81 61.44 10.81 61.44 8 63 C7.54 63.28 7.54 63.28 5.19 64.69 C4.47 65.12 3.74 65.55 3 66 C2.34 64.35 1.68 62.7 1 61 C8.39 55.29 15.81 49.62 23.34 44.11 C34.68 35.12 40.22 19.92 43 6 C38.05 5.83 38.05 5.83 13 5 C13 3.68 13 2.36 13 1 C8.71 1 4.42 1 0 1 C0 0.67 0 0.34 0 0 Z " fill="#EEEEEB" transform="translate(184,109)"/>
<path d="M0 0 C17.77 4.05 35.49 8.36 52.82 14.02 C56 15 56 15 61 16 C60.67 25.24 60.34 34.48 60 44 C55.53 42.21 53.06 40.69 49.38 37.75 C43.94 33.49 38.44 29.34 32.88 25.25 C32.08 24.67 31.29 24.08 30.47 23.48 C26.22 20.35 21.96 17.24 17.7 14.13 C16.84 13.5 15.98 12.87 15.09 12.23 C13.44 11.02 11.79 9.82 10.14 8.62 C6.51 5.96 3.05 3.33 0 0 Z " fill="#B1A289" transform="translate(267,142)"/>
<path d="M0 0 C3.79 -0.15 7.52 -0.07 11.31 0.11 C12.63 0.14 13.94 0.17 15.3 0.2 C18.56 0.28 21.81 0.4 25.06 0.54 C20.92 13.34 12.32 22.46 0.62 28.92 C-5.14 31.84 -10.67 34 -16.94 35.54 C-15.15 29.01 -12.94 22.68 -10.5 16.36 C-9.93 14.86 -9.35 13.36 -8.76 11.81 C-8.16 10.4 -7.56 8.99 -6.94 7.54 C-6.5 6.22 -6.06 4.89 -5.61 3.52 C-2.94 0.54 -2.94 0.54 0 0 Z " fill="#E2B25D" transform="translate(163.941162109375,115.456787109375)"/>
<path d="M0 0 C4.45 2.23 7.04 5.06 10.31 8.69 C20.52 19.81 31.28 30.37 42 41 C37.66 42.45 34.71 40.51 30.69 38.81 C28.91 38.08 27.12 37.35 25.34 36.61 C24.35 36.2 23.36 35.79 22.34 35.37 C15.83 32.7 9.29 30.11 2.75 27.5 C0.12 26.45 -2.51 25.4 -5.14 24.34 C-6.27 23.89 -7.4 23.44 -8.56 22.97 C-9.37 22.65 -10.17 22.33 -11 22 C-10.22 17.39 -8.6 14.39 -6.06 10.44 C-3.86 6.99 -1.83 3.66 0 0 Z " fill="#E1E4E7" transform="translate(251,180)"/>
<path d="M0 0 C2.97 1 4.48 2.27 6.72 4.45 C7.47 5.17 8.22 5.88 9 6.63 C9.76 7.38 10.53 8.13 11.33 8.91 C12.11 9.67 12.9 10.43 13.71 11.21 C15.66 13.08 17.59 14.96 19.51 16.85 C15.85 18.68 13.77 19.26 9.82 19.76 C8.68 19.91 7.53 20.06 6.35 20.22 C5.11 20.37 3.87 20.53 2.59 20.69 C1.29 20.86 -0 21.02 -1.33 21.2 C-5.49 21.73 -9.64 22.26 -13.8 22.79 C-16.53 23.14 -19.25 23.49 -21.98 23.84 C-27.31 24.53 -32.64 25.21 -37.97 25.88 C-42.75 26.49 -47.54 27.12 -52.32 27.77 C-52.84 27.84 -52.84 27.84 -55.49 28.2 C-57.4 28.46 -59.31 28.72 -61.22 28.99 C-66.35 29.68 -71.31 29.97 -76.49 29.85 C-72.09 25.45 -64.33 24.55 -58.49 22.85 C-57.9 22.67 -57.9 22.67 -54.92 21.78 C-41.07 17.93 -26.72 16.6 -12.49 14.85 C-10.66 14.62 -8.83 14.39 -6.99 14.15 C-3.49 13.71 0.01 13.28 3.51 12.85 C3.51 12.19 3.51 11.53 3.51 10.85 C2.19 10.19 0.87 9.53 -0.49 8.85 C-2.54 6.56 -4.55 4.23 -6.49 1.85 C-2.49 -0.15 -2.49 -0.15 0 0 Z " fill="#8A867C" transform="translate(415.487060546875,222.150146484375)"/>
<path d="M0 0 C-1.33 2.67 -2.67 5.33 -4 8 C-5.32 8 -6.64 8 -8 8 C-8 8.99 -8 9.98 -8 11 C-9.32 11.33 -10.64 11.66 -12 12 C-14 16 -14 16 -14 19 C-13.28 19.05 -12.56 19.1 -11.82 19.16 C-2.11 20.18 6.7 22.98 15.85 26.26 C22.87 28.67 28.57 29.38 36 29 C36 27.35 36 25.7 36 24 C37.99 22.32 39.99 20.65 42 19 C42.69 17.01 43.36 15.01 44 13 C46.62 10.62 46.62 10.62 49 9 C49.85 11.88 50.23 13.44 49.06 16.26 C48.57 17.01 48.08 17.77 47.58 18.54 C47.31 18.95 47.31 18.95 45.97 21.05 C45.69 21.47 45.69 21.47 44.25 23.62 C43.7 24.48 43.15 25.34 42.58 26.23 C40.22 29.85 38.07 32.93 35 36 C28.41 36.54 22.98 35.44 16.67 33.59 C15.8 33.33 14.93 33.08 14.04 32.82 C11.27 32.02 8.51 31.2 5.75 30.38 C3.95 29.85 2.14 29.32 0.34 28.79 C-3.27 27.74 -6.88 26.68 -10.48 25.62 C-17.13 23.66 -23.79 21.77 -30.46 19.9 C-36.78 18.11 -36.78 18.11 -39 17 C-39 16.34 -39 15.68 -39 15 C-37.9 14.97 -36.81 14.95 -35.68 14.92 C-34.24 14.87 -32.8 14.81 -31.31 14.75 C-30.6 14.73 -30.6 14.73 -26.99 14.61 C-21.21 13.73 -19.01 11.01 -15 7 C-11.53 4.6 -10.35 4 -6 4 C-6 3.01 -6 2.02 -6 1 C-4 0 -4 0 0 0 Z " fill="#E9EDED" transform="translate(319,116)"/>
<path d="M0 0 C0.33 0 0.66 0 1 0 C1.06 6.33 1.05 12.67 1 19 C1.02 20.14 1.04 21.29 1.06 22.46 C0.98 26.05 0.78 29.04 -1.53 31.9 C-3.5 33.62 -3.5 33.62 -5.7 35.27 C-8.16 37.12 -10.18 39.15 -12.31 41.38 C-16.4 45.53 -20.79 49.14 -25.34 52.78 C-29.15 55.96 -32.56 59.43 -36 63 C-37 60 -37 60 -35.84 57.64 C-35.53 57.15 -35.53 57.15 -33.94 54.69 C-33.57 54.1 -33.57 54.1 -31.69 51.15 C-30.8 49.78 -29.91 48.41 -29 47 C-26.81 43.59 -24.62 40.17 -22.44 36.75 C-21.85 35.83 -21.26 34.92 -20.66 33.97 C-15.16 25.35 -9.91 16.58 -4.71 7.77 C-4.11 6.76 -3.51 5.74 -2.89 4.7 C-2.62 4.24 -2.62 4.24 -1.27 1.95 C-1.06 1.62 -1.06 1.62 0 0 Z " fill="#909396" transform="translate(408,87)"/>
<path d="M0 0 C0.66 0.66 1.32 1.32 2 2 C6 1 6 1 9 0 C6.37 8.44 2.98 16.54 -0.44 24.69 C-1.01 26.08 -1.58 27.46 -2.17 28.89 C-2.45 29.56 -2.45 29.56 -3.87 32.95 C-4.38 34.16 -4.88 35.37 -5.4 36.62 C-9.48 45.24 -9.48 45.24 -13 47 C-16.21 47.09 -19.39 47.12 -22.6 47.1 C-23.55 47.1 -24.5 47.09 -25.49 47.09 C-28.53 47.09 -31.58 47.08 -34.62 47.06 C-36.69 47.06 -38.75 47.05 -40.81 47.05 C-45.88 47.04 -50.94 47.02 -56 47 C-52.12 41.12 -52.12 41.12 -51 40 C-48.27 39.91 -45.54 39.89 -42.81 39.9 C-42.4 39.9 -42.4 39.9 -40.32 39.91 C-37.7 39.91 -35.07 39.92 -32.44 39.94 C-30.66 39.94 -28.88 39.95 -27.1 39.95 C-22.74 39.96 -18.37 39.98 -14 40 C-14 39.34 -14 38.68 -14 38 C-13.01 38 -12.02 38 -11 38 C-10.94 37.43 -10.94 37.43 -10.62 34.56 C-10.42 33.39 -10.21 32.21 -10 31 C-9.34 30.67 -8.68 30.34 -8 30 C-7.47 28.1 -7.03 26.18 -6.62 24.25 C-5.26 18.3 -5.26 18.3 -2.81 15.5 C-0.08 11.73 -0.75 8.09 -0.96 3.55 C-0.97 2.71 -0.99 1.87 -1 1 C-0.67 0.67 -0.34 0.34 0 0 Z " fill="#EDEFEF" transform="translate(186,216)"/>
<path d="M0 0 C0 3 0 3 -1 5 C-0.5 5.16 -0.5 5.16 2 6 C-0.05 10.11 -2.31 12.16 -5.77 15.09 C-7.96 16.97 -10.08 18.91 -12.18 20.89 C-12.86 21.54 -13.54 22.18 -14.24 22.85 C-15.64 24.18 -17.04 25.51 -18.44 26.83 C-21.2 29.44 -23.83 31.89 -27 34 C-27.17 33.5 -27.17 33.5 -28 31 C-28.66 31 -29.32 31 -30 31 C-30 30.34 -30 29.68 -30 29 C-30.66 28.67 -31.32 28.34 -32 28 C-32.23 25.68 -32.23 25.68 -32.2 22.65 C-32.19 21.57 -32.18 20.49 -32.18 19.38 C-32.16 18.24 -32.14 17.11 -32.12 15.94 C-32.12 14.8 -32.11 13.66 -32.1 12.48 C-32.07 9.65 -32.04 6.83 -32 4 C-30.49 4.48 -28.97 4.97 -27.41 5.46 C-20.6 7.5 -13.04 9.06 -6.43 5.69 C-4.11 3.96 -2.05 2.05 0 0 Z " fill="#E6EAEB" transform="translate(366,156)"/>
<path d="M0 0 C-2.08 6.44 -4.4 12.73 -6.94 19 C-7.1 19.42 -7.1 19.42 -7.95 21.54 C-9.59 25.62 -11.28 29.67 -13.09 33.69 C-15.23 38.52 -17.05 43.41 -18.85 48.38 C-20 51 -20 51 -22 52 C-23 49.54 -24 47.08 -25 44.62 C-25.56 43.26 -26.11 41.89 -26.69 40.48 C-28 37 -28 37 -28 35 C-28.66 34.67 -29.32 34.34 -30 34 C-29.52 33.47 -29.04 32.93 -28.54 32.38 C-28.22 32.01 -28.22 32.01 -26.62 30.12 C-26 29.41 -25.37 28.69 -24.73 27.95 C-23 25 -23 25 -22.27 20.12 C-21.2 13.97 -17.96 11.52 -13.06 8 C-12.33 7.44 -11.6 6.88 -10.85 6.31 C-2.56 0 -2.56 0 0 0 Z " fill="#D9B068" transform="translate(209,162)"/>
<path d="M0 0 C-0.33 0.99 -0.66 1.98 -1 3 C-1.66 3 -2.32 3 -3 3 C-3 3.66 -3 4.32 -3 5 C-5.64 5.66 -8.28 6.32 -11 7 C-11 7.99 -11 8.98 -11 10 C-12.65 10.72 -14.31 11.38 -16 12 C-16.33 12.66 -16.66 13.32 -17 14 C-17.66 14 -18.32 14 -19 14 C-19 14.66 -19 15.32 -19 16 C-18.5 15.86 -18.5 15.86 -16 15.12 C-13.23 14.35 -10.44 13.66 -7.62 13.06 C-6.43 12.71 -5.23 12.36 -4 12 C-3.67 11.01 -3.34 10.02 -3 9 C-0.28 8.27 -0.28 8.27 3.06 7.81 C3.61 7.73 3.61 7.73 6.41 7.33 C6.84 7.28 6.84 7.28 9 7 C5.81 10.19 1.55 11.46 -2.56 13.19 C-3.5 13.59 -4.44 13.98 -5.41 14.4 C-12.66 17.46 -19.94 20.45 -27.24 23.39 C-29.77 24.48 -32.27 25.64 -34.74 26.87 C-40.04 29.52 -45.44 31.89 -50.88 34.25 C-51.4 34.48 -51.4 34.48 -54.04 35.64 C-55.03 36.07 -56.03 36.51 -57.05 36.95 C-57.96 37.35 -58.86 37.74 -59.79 38.15 C-62 39 -62 39 -64 39 C-64.29 39.72 -64.58 40.44 -64.88 41.19 C-66.13 44.32 -67.82 46.45 -70 49 C-69.83 48.01 -69.83 48.01 -69 43 C-68.34 43 -67.68 43 -67 43 C-66.67 41.68 -66.34 40.36 -66 39 C-64.03 37.63 -62.03 36.29 -60 35 C-60 34.34 -60 33.68 -60 33 C-59.67 32.84 -59.67 32.84 -58 32 C-58.66 31.34 -59.32 30.68 -60 30 C-58.77 25.06 -56.31 22.79 -53 19 C-52.67 18.01 -52.34 17.02 -52 16 C-51.34 16 -50.68 16 -50 16 C-49.01 13.03 -48.02 10.06 -47 7 C-46.01 7.33 -45.02 7.66 -44 8 C-44.87 9.63 -45.75 11.25 -46.62 12.88 C-47.11 13.78 -47.6 14.68 -48.1 15.62 C-50.64 20.14 -53.32 24.57 -56 29 C-40.03 20.74 -24.07 12.44 -8.44 3.54 C-2.2 0 -2.2 0 0 0 Z " fill="#F8ECCF" transform="translate(349,62)"/>
<path d="M0 0 C0.34 0.36 0.34 0.36 2.07 2.16 C2.77 2.87 3.47 3.58 4.19 4.31 C5.76 6.22 5.76 6.22 5.76 8.22 C-20.64 8.22 -47.04 8.22 -74.24 8.22 C-73.91 7.56 -73.58 6.9 -73.24 6.22 C-69.94 5.66 -66.69 5.22 -63.36 4.85 C-61.26 4.59 -59.16 4.34 -57.05 4.08 C-55.94 3.94 -54.83 3.81 -53.69 3.67 C-47.88 2.92 -42.09 2.04 -36.3 1.16 C-20.91 -1.14 -20.91 -1.14 -13.86 -2.09 C-12.68 -2.25 -11.5 -2.41 -10.28 -2.58 C-5.98 -2.86 -3.43 -2.72 0 0 Z " fill="#767D85" transform="translate(428.23828125,255.77734375)"/>
<path d="M0 0 C2.36 1.56 2.36 1.56 4.75 3.44 C5.55 4.05 6.35 4.67 7.17 5.31 C7.78 5.87 8.38 6.42 9 7 C9 7.66 9 8.32 9 9 C6.25 10.19 3.52 11.23 0.7 12.23 C-0.17 12.54 -1.03 12.86 -1.92 13.18 C-4.72 14.19 -7.51 15.19 -10.31 16.19 C-12.13 16.84 -13.94 17.5 -15.76 18.15 C-18.47 19.13 -21.17 20.11 -23.89 21.07 C-28.45 22.71 -33 24.37 -37.52 26.08 C-37.96 26.25 -37.96 26.25 -40.18 27.09 C-41.85 27.72 -43.51 28.35 -45.17 29 C-47.09 29.72 -49.05 30.37 -51 31 C-51.66 30.67 -52.32 30.34 -53 30 C-41.45 22.45 -29.87 14.94 -18.18 7.62 C-15.68 6.06 -13.2 4.48 -10.73 2.88 C-4.44 -1.11 -4.44 -1.11 0 0 Z " fill="#8F9094" transform="translate(416,189)"/>
<path d="M0 0 C0.66 0 1.32 0 2 0 C2.33 0.99 2.66 1.98 3 3 C2.01 3.99 1.02 4.98 0 6 C0 7.09 0 8.19 0 9.31 C0 13.54 -1.01 15.32 -3 19 C-3.47 20.44 -3.95 21.89 -4.44 23.38 C-6 28 -6 28 -8.19 32.19 C-10 36 -10 36 -10 42 C-5.71 41.34 -1.42 40.68 3 40 C3 40.99 3 41.98 3 43 C-1.28 47.15 -5.44 48.91 -11.38 49.12 C-12.24 49.08 -13.11 49.04 -14 49 C-14.31 49.95 -14.62 50.9 -14.94 51.88 C-16 55 -16 55 -17 57 C-19.67 57.08 -22.33 57.08 -25 57 C-21.5 46.67 -17.42 36.64 -13.12 26.62 C-11.93 23.83 -10.76 21.03 -9.59 18.22 C-8.79 16.32 -7.99 14.41 -7.19 12.5 C-6.81 11.6 -6.44 10.7 -6.06 9.77 C-4.38 5.81 -3.07 3.07 0 0 Z " fill="#EBECE9" transform="translate(157,109)"/>
<path d="M0 0 C0.33 0 0.66 0 1 0 C1.03 0.88 1.05 1.76 1.08 2.67 C1.13 3.83 1.19 4.99 1.25 6.19 C1.3 7.34 1.34 8.48 1.39 9.67 C2.47 15.57 6.37 18.53 11 22 C10.3 22.03 9.6 22.05 8.88 22.08 C-1.16 22.68 -7.01 25.67 -14 33 C-14.66 33 -15.32 33 -16 33 C-15.99 32.3 -15.98 31.6 -15.97 30.88 C-16.22 22.85 -18.19 19.51 -24 14 C-24.66 13.67 -25.32 13.34 -26 13 C-26 12.34 -26 11.68 -26 11 C-25.62 11 -25.62 11 -23.73 10.99 C-13.49 10.61 -7.13 7.2 0 0 Z " fill="#E4A134" transform="translate(391,36)"/>
<path d="M0 0 C4.63 0.37 8.76 2.47 12.99 4.28 C13.77 4.61 14.54 4.94 15.34 5.28 C17 5.99 18.65 6.69 20.31 7.4 C24.6 9.24 28.9 11.06 33.2 12.88 C34.05 13.24 34.89 13.6 35.76 13.97 C43.61 17.28 51.52 20.42 59.49 23.44 C62.91 24.74 65.94 25.96 69 28 C68.84 28.17 68.84 28.17 68 29 C59.21 28.72 51.71 26.1 43.5 23.12 C40.99 22.23 38.48 21.34 35.97 20.45 C34.77 20.02 33.58 19.6 32.35 19.16 C27.93 17.63 23.48 16.31 19 15 C15.87 14.01 12.75 12.97 9.62 11.94 C8.09 11.43 6.56 10.92 4.98 10.4 C1 9 1 9 -3 7 C-2.25 2.25 -2.25 2.25 0 0 Z " fill="#7D828A" transform="translate(240,234)"/>
<path d="M0 0 C6.88 3.6 12.87 8.29 19 13 C16.66 17.68 13.48 20.58 9.69 24.06 C9.02 24.69 8.36 25.31 7.67 25.96 C4.31 29.07 1.06 31.85 -3 34 C-2.89 30.21 -2.76 26.42 -2.62 22.62 C-2.59 21.56 -2.56 20.5 -2.53 19.41 C-2.29 12.72 -1.49 6.53 0 0 Z " fill="#929396" transform="translate(418,75)"/>
<path d="M0 0 C1.23 0.03 2.46 0.07 3.73 0.11 C8.65 0.38 13.53 0.78 18.44 1.31 C16.89 7.34 13.62 12.04 10.25 17.19 C8.98 19.16 7.71 21.12 6.44 23.09 C5.78 24.11 5.12 25.13 4.45 26.18 C1.15 31.32 -2.08 36.5 -5.31 41.69 C-5.94 42.69 -6.57 43.7 -7.21 44.73 C-9.52 48.43 -11.82 52.13 -14.13 55.83 C-15.07 57.34 -16.02 58.86 -16.97 60.38 C-18.15 62.28 -19.33 64.17 -20.51 66.07 C-21.19 67.14 -21.87 68.21 -22.56 69.31 C-23.23 70.38 -23.9 71.45 -24.58 72.55 C-26.56 75.31 -26.56 75.31 -30.56 78.31 C-29.23 74.31 -27.9 70.31 -26.56 66.31 C-26.44 64.48 -26.39 62.65 -26.38 60.81 C-26.37 60.33 -26.37 60.33 -26.33 57.91 C-26.56 55.31 -26.56 55.31 -28.56 52.31 C-28.21 47.73 -26.73 43.82 -25.02 39.59 C-24.5 38.31 -23.98 37.03 -23.45 35.71 C-22.91 34.38 -22.37 33.05 -21.81 31.69 C-21.29 30.38 -20.76 29.08 -20.22 27.74 C-19.17 25.16 -18.12 22.58 -17.07 20 C-16.09 17.61 -15.14 15.22 -14.2 12.82 C-13.78 11.76 -13.36 10.69 -12.92 9.6 C-12.56 8.67 -12.2 7.74 -11.83 6.79 C-8.92 1.11 -6.27 -0.2 0 0 Z M-8.56 4.31 C-10.38 8.62 -10.38 8.62 -11.56 13.31 C-12.53 15 -13.53 16.66 -14.56 18.31 C-16.51 22.44 -18.28 26.29 -19.5 30.69 C-20.46 33.97 -21.67 36.64 -23.19 39.69 C-25.64 44.9 -26.03 48.61 -25.56 54.31 C-24.57 54.64 -23.58 54.97 -22.56 55.31 C-22.89 57.95 -23.22 60.59 -23.56 63.31 C-23.07 63.15 -23.07 63.15 -20.56 62.31 C-20.23 60.99 -19.9 59.67 -19.56 58.31 C-18.9 58.31 -18.24 58.31 -17.56 58.31 C-13.56 52.08 -13.56 52.08 -13.56 48.31 C-12.9 48.31 -12.24 48.31 -11.56 48.31 C-11.23 46.66 -10.9 45.01 -10.56 43.31 C-9.9 43.31 -9.24 43.31 -8.56 43.31 C-8.23 42.32 -7.9 41.33 -7.56 40.31 C-6.57 39.32 -5.58 38.33 -4.56 37.31 C-2.56 34.31 -2.56 34.31 -2.56 31.31 C-1.9 31.31 -1.24 31.31 -0.56 31.31 C-0.23 30.32 0.1 29.33 0.44 28.31 C1.1 27.98 1.76 27.65 2.44 27.31 C2.44 25.99 2.44 24.67 2.44 23.31 C3.43 22.98 4.42 22.65 5.44 22.31 C5.77 20.99 6.1 19.67 6.44 18.31 C7.43 17.32 8.42 16.33 9.44 15.31 C9.44 13.99 9.44 12.67 9.44 11.31 C10.76 10.65 12.08 9.99 13.44 9.31 C14.25 6.25 14.25 6.25 14.44 3.31 C12.55 1.43 9.39 2.14 6.88 2.12 C-4.26 2.28 -4.26 2.28 -8.56 4.31 Z " fill="#977E46" transform="translate(274.5625,50.6875)"/>
<path d="M0 0 C6 3 10.16 7.52 14 13 C14.82 16.45 14.58 18.45 14 22 C13.49 22.03 13.49 22.03 10.89 22.18 C10.22 22.23 10.22 22.23 6.81 22.44 C5.48 22.52 4.14 22.6 2.77 22.68 C-1 23 -1 23 -3.81 23.59 C-6.72 24.13 -8.39 23.27 -11 22 C-10.44 17.39 -8.55 14.32 -6.06 10.44 C-3.86 6.99 -1.83 3.66 0 0 Z " fill="#ECEEEF" transform="translate(251,180)"/>
<path d="M0 0 C6.74 2.48 6.74 2.48 8 5 C10.98 5.74 13.98 6.41 17 7 C17 7.66 17 8.32 17 9 C17.93 9.14 18.86 9.29 19.81 9.44 C23 10 23 10 26 11 C25.67 12.32 25.34 13.64 25 15 C21 17 21 17 17 17 C17 17.99 17 18.98 17 20 C15.02 20 13.04 20 11 20 C11 20.66 11 21.32 11 22 C7.82 24 5.91 25.1 2.12 24.69 C1.42 24.46 0.72 24.23 0 24 C0 24.66 0 25.32 0 26 C-2.97 26.33 -5.94 26.66 -9 27 C-9 27.66 -9 28.32 -9 29 C-9.66 29 -10.32 29 -11 29 C-11 30.32 -11 31.64 -11 33 C-9.47 32.98 -7.95 32.96 -6.38 32.94 C-2.47 32.93 1.17 33.19 5 34 C4 38 4 38 0.69 40.81 C-3 43 -3 43 -7 42 C-4.03 40.35 -1.06 38.7 2 37 C1.6 36.96 1.6 36.96 -0.45 36.76 C-4.09 36.39 -7.73 36.01 -11.38 35.62 C-12.65 35.5 -13.92 35.37 -15.23 35.24 C-16.44 35.11 -17.65 34.98 -18.9 34.85 C-20.02 34.74 -21.14 34.62 -22.29 34.5 C-25 34 -25 34 -27 32 C-16.72 27.91 -6.4 24.04 4.06 20.43 C9.78 18.45 15.4 16.31 21 14 C21.99 13.67 22.98 13.34 24 13 C12.2 9.51 0.47 6.29 -11.61 3.86 C-15 3 -15 3 -17 1 C-16.47 1.01 -16.47 1.01 -13.79 1.04 C-12.41 1.04 -11.04 1.05 -9.62 1.06 C-8.94 1.07 -8.94 1.07 -5.48 1.1 C-2 1 -2 1 0 0 Z " fill="#F7E9C7" transform="translate(356,19)"/>
<path d="M0 0 C3.68 0.3 6.48 0.97 10 2 C12.88 2.73 15.75 3.45 18.63 4.16 C21.8 4.98 24.96 5.8 28.12 6.62 C29.77 7.05 31.41 7.47 33.05 7.9 C37.03 8.93 41.02 9.96 45 11 C44 13 44 13 41.59 13.93 C40.57 14.24 39.55 14.55 38.5 14.88 C34.03 16.3 29.83 17.95 25.57 19.91 C9.78 26.59 9.78 26.59 5 25 C7.91 23.74 9.8 23 13 23 C13.17 22.51 13.17 22.51 14 20 C16.92 18.05 18.63 17.55 22 17 C21.83 16.67 21.83 16.67 21 15 C21.66 13.68 22.32 12.36 23 11 C23 10.34 23 9.68 23 9 C22.09 8.71 21.19 8.42 20.25 8.12 C17 7 17 7 13 5 C10.31 4.48 10.31 4.48 7.44 4.19 C6.49 4.08 5.54 3.97 4.56 3.86 C2 4 2 4 -1 7 C-1.5 8.22 -1.99 9.43 -2.5 10.69 C-3 11.78 -3.49 12.87 -4 14 C-4.99 14 -5.98 14 -7 14 C-7.23 14.85 -7.45 15.69 -7.69 16.56 C-9.22 20.59 -11.49 23.51 -14 27 C-14.52 28.26 -15.03 29.52 -15.56 30.81 C-17 34 -17 34 -21 36 C-19.58 32.15 -17.78 28.77 -15.66 25.25 C-15.34 24.71 -15.34 24.71 -13.69 21.97 C-13.01 20.84 -12.33 19.72 -11.62 18.56 C-10.95 17.44 -10.28 16.32 -9.59 15.17 C-7.74 12.1 -5.89 9.04 -4 6 C-3.35 4.88 -2.7 3.76 -2.03 2.61 C-1.36 1.75 -0.69 0.89 0 0 Z " fill="#E0A33C" transform="translate(336,20)"/>
<path d="M0 0 C-1.61 3.22 -3.04 5.49 -5.25 8.25 C-5.87 9.03 -6.48 9.81 -7.12 10.62 C-7.74 11.4 -8.36 12.19 -9 13 C-14.83 20.49 -14.83 20.49 -16 24 C-14.04 24.13 -12.08 24.23 -10.12 24.31 C-9.03 24.37 -7.94 24.43 -6.82 24.49 C-5.89 24.33 -4.96 24.17 -4 24 C-2.77 21.71 -2.77 21.71 -2 19 C2.5 12.25 2.5 12.25 5 11 C7.33 10.96 9.67 10.96 12 11 C10.49 15.97 7.43 19.19 4 23 C3 21 3 21 4 17 C3.34 17 2.68 17 2 17 C1.67 18.32 1.34 19.64 1 21 C-1 25 -1 25 -3 26 C-5.54 26.07 -8.08 26.08 -10.62 26.06 C-12 26.05 -13.37 26.04 -14.79 26.04 C-15.85 26.02 -16.91 26.01 -18 26 C-18 25.34 -18 24.68 -18 24 C-18.34 24.08 -18.34 24.08 -20.04 24.5 C-23.51 25.09 -26.79 25.1 -30.31 25.06 C-31.57 25.05 -32.82 25.04 -34.11 25.04 C-35.07 25.02 -36.02 25.01 -37 25 C-37 24.67 -37 24.34 -37 24 C-36.28 24.02 -35.55 24.04 -34.8 24.06 C-31.72 24 -29 23.75 -26 23 C-23.45 20.29 -21.92 18.11 -20 15 C-18.29 12.69 -16.56 10.4 -14.81 8.12 C-13.97 7.01 -13.13 5.9 -12.27 4.76 C-8.37 0.02 -5.94 -0.22 0 0 Z " fill="#F6EDD9" transform="translate(67,232)"/>
<path d="M0 0 C0.66 0 1.32 0 2 0 C-0.21 4.41 -2.66 6.82 -6.19 10.25 C-11.03 15.01 -15.58 19.85 -20 25 C-21.65 26.68 -23.31 28.36 -25 30 C-24 26 -24 26 -21 22 C-21.99 22.16 -21.99 22.16 -27 23 C-27 23.99 -27 24.98 -27 26 C-29.96 27.48 -32.78 28.19 -36 29 C-36.17 29.5 -36.17 29.5 -37 32 C-37.66 32.16 -37.66 32.16 -41 33 C-41.33 33.99 -41.66 34.98 -42 36 C-46.19 38.1 -51.87 36.94 -56.47 36.84 C-57.64 36.89 -58.8 36.95 -60 37 C-60.33 37.66 -60.66 38.32 -61 39 C-62.98 38.67 -64.96 38.34 -67 38 C-67 37.34 -67 36.68 -67 36 C-66.34 36 -65.68 36 -65 36 C-65 35.01 -65 34.02 -65 33 C-66.32 32.34 -67.64 31.68 -69 31 C-69.79 27.68 -69.45 25.76 -67.72 22.83 C-66.25 20.8 -64.63 18.89 -63 17 C-62.34 17 -61.68 17 -61 17 C-62.65 21.8 -65.26 25.75 -68 30 C-66.54 30.1 -65.07 30.21 -63.56 30.31 C-59.86 30.66 -56.68 31.34 -53.19 32.62 C-47.97 34.34 -47.97 34.34 -44 33 C-41.57 31.4 -39.2 29.7 -36.88 27.94 C-35.53 26.92 -34.18 25.91 -32.83 24.9 C-32.2 24.42 -32.2 24.42 -29 22 C-27.19 20.68 -25.38 19.37 -23.56 18.06 C-18.83 14.62 -14.13 11.13 -9.44 7.62 C-8.73 7.1 -8.03 6.58 -7.3 6.04 C-2.24 2.24 -2.24 2.24 0 0 Z " fill="#F7E8C6" transform="translate(340,94)"/>
<path d="M0 0 C1.11 4.42 0.64 5.89 -1 10 C-1.33 10.33 -1.66 10.66 -2 11 C-0.68 11.33 0.64 11.66 2 12 C1.67 13.65 1.34 15.3 1 17 C1.66 17 2.32 17 3 17 C1.69 20.93 0.29 23.44 -3 26 C-6.25 26.75 -6.25 26.75 -9 27 C-9 26.34 -9 25.68 -9 25 C-12 27 -12 27 -13 29.62 C-13.33 30.41 -13.66 31.19 -14 32 C-14.99 32 -15.98 32 -17 32 C-17.33 33.32 -17.66 34.64 -18 36 C-18.66 36 -19.32 36 -20 36 C-19.67 36.99 -19.34 37.98 -19 39 C-20.62 41.25 -20.62 41.25 -23 44 C-23.85 45.24 -24.69 46.47 -25.56 47.75 C-28 51 -28 51 -31 52 C-29.6 48.21 -27.85 44.92 -25.73 41.49 C-25.07 40.43 -24.42 39.37 -23.74 38.28 C-23.04 37.15 -22.34 36.03 -21.62 34.88 C-20.91 33.72 -20.2 32.57 -19.47 31.39 C-14.54 23.43 -9.57 15.51 -4.54 7.61 C-1.09 2.19 -1.09 2.19 0 0 Z " fill="#282F31" transform="translate(292,54)"/>
<path d="M0 0 C0.66 0 1.32 0 2 0 C1.42 3.85 0.32 6.52 -1.74 9.82 C-2.3 10.73 -2.87 11.65 -3.46 12.6 C-4.07 13.58 -4.68 14.56 -5.31 15.56 C-6.6 17.65 -7.89 19.73 -9.18 21.82 C-9.82 22.86 -10.47 23.9 -11.14 24.98 C-13.8 29.29 -16.4 33.64 -19 38 C-29.46 55.46 -40.01 72.87 -51 90 C-51.36 90.57 -51.36 90.57 -53.21 93.46 C-55 96 -55 96 -57 97 C-55.63 92.74 -54.07 88.62 -52.36 84.49 C-52.1 83.87 -52.1 83.87 -50.8 80.75 C-50.27 79.47 -49.74 78.19 -49.19 76.88 C-48.67 75.62 -48.14 74.36 -47.61 73.07 C-46.07 69.38 -44.54 65.69 -43 62 C-42.5 60.81 -42.01 59.62 -41.5 58.4 C-40.33 55.6 -39.17 52.8 -38 50 C-36.83 54.68 -37.48 56.01 -39.25 60.38 C-39.69 61.48 -40.13 62.58 -40.58 63.71 C-41.94 66.87 -43.43 69.94 -45 73 C-44.01 73 -43.02 73 -42 73 C-41.03 70.95 -41.03 70.95 -40 68 C-38.86 65.57 -37.69 63.16 -36.5 60.75 C-35.89 59.51 -35.28 58.26 -34.66 56.98 C-33 54 -33 54 -31 53 C-30.34 51.68 -29.68 50.36 -29 49 C-28.01 47.68 -27.02 46.36 -26 45 C-25.67 43.68 -25.34 42.36 -25 41 C-24.34 40.67 -23.68 40.34 -23 40 C-22.67 38.68 -22.34 37.36 -22 36 C-21.34 36 -20.68 36 -20 36 C-19.67 35.18 -19.34 34.35 -19 33.5 C-18.67 32.68 -18.34 31.85 -18 31 C-17.34 31 -16.68 31 -16 31 C-15.67 29.02 -15.34 27.04 -15 25 C-14.34 25 -13.68 25 -13 25 C-13 24.01 -13 23.02 -13 22 C-12.34 22 -11.68 22 -11 22 C-10.34 19.69 -9.68 17.38 -9 15 C-8.34 15 -7.68 15 -7 15 C-7 14.01 -7 13.02 -7 12 C-6.34 12 -5.68 12 -5 12 C-4.73 11.13 -4.46 10.27 -4.19 9.38 C-3.02 6.06 -1.74 3.05 0 0 Z " fill="#937C49" transform="translate(250,155)"/>
<path d="M0 0 C4.88 3.75 4.88 3.75 6 6 C6.07 7.87 6.08 9.75 6.06 11.62 C6.05 12.63 6.04 13.63 6.04 14.66 C6.02 15.43 6.01 16.21 6 17 C7.15 15.93 8.31 14.86 9.5 13.75 C13.38 10.36 17.18 7.93 22 6 C23.32 6.33 24.64 6.66 26 7 C25.01 7 24.02 7 23 7 C22.67 7.99 22.34 8.98 22 10 C18.44 11.19 18.44 11.19 15 12 C15 12.66 15 13.32 15 14 C14.67 14.16 14.67 14.16 13 15 C12.67 15.99 12.34 16.98 12 18 C12.76 17.65 13.53 17.3 14.31 16.94 C17 16 17 16 20 17 C19.49 17.4 19.49 17.4 16.94 19.44 C13.4 22.46 10.74 25.78 7.96 29.5 C4.97 33.31 1.65 36.8 -1.67 40.32 C-4.06 43.07 -6.04 45.93 -8 49 C-9.08 44.69 -8.76 42.38 -8 38.05 C-7.78 36.71 -7.55 35.37 -7.31 33.98 C-7.06 32.59 -6.82 31.19 -6.56 29.75 C-6.32 28.34 -6.08 26.92 -5.83 25.47 C-5.22 21.98 -4.62 18.49 -4 15 C-6.31 15.66 -8.62 16.32 -11 17 C-11 16.34 -11 15.68 -11 15 C-9.51 14.84 -9.51 14.84 -2 14 C-2.33 19.28 -2.66 24.56 -3 30 C-3.66 30 -4.32 30 -5 30 C-5 33.3 -5 36.6 -5 40 C-4.34 40 -3.68 40 -3 40 C-3 39.01 -3 38.02 -3 37 C-0.41 34.06 1.25 32.25 5 31 C5.33 30.01 5.66 29.02 6 28 C6.66 28 7.32 28 8 28 C8 26.02 8 24.04 8 22 C8.66 22 9.32 22 10 22 C10.33 21.01 10.66 20.02 11 19 C10.24 19.37 9.47 19.74 8.69 20.12 C7.8 20.41 6.91 20.7 6 21 C5.01 20.34 4.02 19.68 3 19 C2.56 16.17 2.56 16.17 2.44 12.75 C2.26 8.11 1.64 4.35 0 0 Z " fill="#F9E9C6" transform="translate(369,52)"/>
<path d="M0 0 C-0.33 0.18 -0.33 0.18 -2 1.07 C-24.19 12.94 -24.19 12.94 -34.23 19.28 C-46.66 27 -46.66 27 -50 27 C-50 26.34 -50 25.68 -50 25 C-49.01 24.34 -48.02 23.68 -47 23 C-48.88 21.12 -52.03 21.31 -54.56 20.94 C-55.76 20.76 -56.96 20.58 -58.19 20.4 C-59.12 20.27 -60.05 20.14 -61 20 C-61 19.34 -61 18.68 -61 18 C-61.66 18 -62.32 18 -63 18 C-63 17.34 -63 16.68 -63 16 C-64.32 15.34 -65.64 14.68 -67 14 C-68.67 13 -70.33 12 -72 11 C-73.32 10.34 -74.64 9.68 -76 9 C-75.67 8.34 -75.34 7.68 -75 7 C-71.61 8.7 -68.55 10.51 -65.38 12.56 C-58.13 17.23 -52.74 18.29 -44 17 C-40.08 14.88 -37.15 12.12 -34 9 C-32.63 7.82 -31.26 6.66 -29.88 5.5 C-28.93 4.68 -27.98 3.85 -27 3 C-27 3.99 -27 4.98 -27 6 C-27.66 6.33 -28.32 6.66 -29 7 C-30.05 8.98 -31.05 10.97 -32 13 C-30.85 12.84 -30.85 12.84 -25 12 C-25 11.34 -25 10.68 -25 10 C-23.02 9.67 -21.04 9.34 -19 9 C-19 8.34 -19 7.68 -19 7 C-16.69 6.34 -14.38 5.68 -12 5 C-12 4.34 -12 3.68 -12 3 C-3.67 -1.22 -3.67 -1.22 0 0 Z " fill="#8E7440" transform="translate(381,189)"/>
<path d="M0 0 C3.79 -0.15 7.52 -0.07 11.31 0.11 C12.63 0.14 13.94 0.17 15.3 0.2 C18.56 0.28 21.81 0.4 25.06 0.54 C20.92 13.34 12.32 22.46 0.62 28.92 C-5.14 31.84 -10.67 34 -16.94 35.54 C-15.15 29.01 -12.94 22.68 -10.5 16.36 C-9.93 14.86 -9.35 13.36 -8.76 11.81 C-8.16 10.4 -7.56 8.99 -6.94 7.54 C-6.5 6.22 -6.06 4.89 -5.61 3.52 C-2.94 0.54 -2.94 0.54 0 0 Z M-4.56 4.49 C-5.63 6.91 -5.63 6.91 -6.94 11.54 C-7.33 12.43 -7.72 13.32 -8.13 14.23 C-9.1 16.99 -9.61 19.64 -9.94 22.54 C-9.61 22.87 -9.28 23.2 -8.94 23.54 C-9.56 25.89 -10.22 28.22 -10.94 30.54 C-9.95 30.21 -8.96 29.88 -7.94 29.54 C-7.25 26.48 -7.25 26.48 -6.94 23.54 C-6.28 23.87 -5.62 24.2 -4.94 24.54 C-5.27 25.86 -5.6 27.18 -5.94 28.54 C-4.29 28.21 -2.64 27.88 -0.94 27.54 C-0.94 26.88 -0.94 26.22 -0.94 25.54 C1.7 24.88 4.34 24.22 7.06 23.54 C7.06 22.88 7.06 22.22 7.06 21.54 C7.72 21.54 8.38 21.54 9.06 21.54 C9.39 20.55 9.72 19.56 10.06 18.54 C11.05 18.21 12.04 17.88 13.06 17.54 C19.1 10.57 19.1 10.57 18.93 6.54 C18.65 5.88 18.36 5.22 18.06 4.54 C19.05 4.54 20.04 4.54 21.06 4.54 C21.06 3.88 21.06 3.22 21.06 2.54 C17.14 2.28 13.23 2.12 9.31 1.98 C8.75 1.94 8.75 1.94 5.94 1.75 C-2.1 1.53 -2.1 1.53 -4.56 4.49 Z " fill="#D9B778" transform="translate(163.941162109375,115.456787109375)"/>
<path d="M0 0 C0.99 0.66 1.98 1.32 3 2 C2.81 6.97 0.19 11.66 -1.75 16.19 C-2.09 16.99 -2.42 17.79 -2.77 18.61 C-3.46 20.24 -4.18 21.87 -4.92 23.48 C-6 26 -6 26 -6.75 28.82 C-7.79 31.98 -8.55 33.73 -11 36 C-16.96 37.28 -22.75 36.94 -28.81 36.62 C-30.46 36.58 -32.11 36.53 -33.8 36.49 C-37.87 36.37 -41.93 36.21 -46 36 C-42.4 30.53 -38.74 25.19 -34.75 20 C-34.32 19.44 -34.32 19.44 -32.17 16.62 C-30 14 -30 14 -28 13 C-27.69 15.69 -27.69 15.69 -28 19 C-30.12 21.31 -30.12 21.31 -33 24 C-34.09 25.53 -35.15 27.09 -36.18 28.67 C-36.71 29.48 -37.24 30.29 -37.79 31.13 C-38.19 31.74 -38.59 32.36 -39 33 C-35.27 32.91 -31.54 32.81 -27.81 32.69 C-26.76 32.66 -25.7 32.64 -24.62 32.62 C-23.59 32.58 -22.57 32.55 -21.52 32.51 C-20.58 32.49 -19.64 32.46 -18.68 32.43 C-14.63 31.78 -11.9 30.15 -9.38 26.94 C-6.84 21.53 -5.44 15.77 -4 10 C-3.01 9.34 -2.02 8.68 -1 8 C-0.31 3.88 -0.31 3.88 0 0 Z " fill="#B29357" transform="translate(181,220)"/>
<path d="M0 0 C3.3 0.99 6.6 1.98 10 3 C13.38 3.51 13.38 3.51 16.12 3.69 C17.73 3.79 19.34 3.89 21 4 C16.84 9.01 12.49 13.54 7.69 17.94 C7.06 18.53 6.42 19.11 5.77 19.72 C1.13 24 1.13 24 0 24 C0 16.08 0 8.16 0 0 Z " fill="#A39A8A" transform="translate(334,160)"/>
<path d="M0 0 C2.16 -0.02 2.16 -0.02 5 1 C7.04 3.74 8.71 6.3 10.38 9.25 C10.84 10.01 11.3 10.78 11.78 11.57 C13.57 14.67 14.99 17.17 15.04 20.8 C13.78 23.46 12.21 25.08 10 27 C5.2 19.08 0.57 11.06 -4 3 C-2.68 2.67 -1.36 2.34 0 2 C0 1.34 0 0.68 0 0 Z " fill="#F5EDDC" transform="translate(119,186)"/>
<path d="M0 0 C5.57 -1.13 5.57 -1.13 9 0 C12.38 3.95 14.66 8.37 17 13 C17.46 13.85 17.92 14.7 18.39 15.57 C21 20.53 21 20.53 21 23 C17.79 23.38 17.79 23.38 14 23 C11.52 20.44 11.52 20.44 9.38 17 C8.62 15.82 7.87 14.64 7.09 13.42 C6.4 12.29 5.71 11.16 5 10 C4.44 9.15 3.89 8.3 3.32 7.43 C0 2.34 0 2.34 0 0 Z " fill="#F5EBD4" transform="translate(89,195)"/>
<path d="M0 0 C0.66 0.99 1.32 1.98 2 3 C1.67 3.66 1.34 4.32 1 5 C6.75 4.12 6.75 4.12 9 3 C16.94 2.79 25.14 2.73 33 4 C33.17 4.33 33.17 4.33 34 6 C33.19 5.97 32.39 5.95 31.55 5.92 C27.91 5.82 24.27 5.75 20.62 5.69 C19.35 5.65 18.08 5.6 16.77 5.56 C16.17 5.55 16.17 5.55 13.1 5.51 C11.98 5.49 10.86 5.46 9.71 5.43 C8.81 5.62 7.92 5.81 7 6 C5.78 8.13 5.78 8.13 5 11 C4.13 13.13 3.27 15.26 2.4 17.39 C1.91 18.6 1.42 19.8 0.91 21.04 C0.66 21.66 0.66 21.66 -0.62 24.81 C-1.14 26.08 -1.66 27.34 -2.19 28.65 C-3.46 31.76 -4.73 34.88 -6 38 C-7.38 33.87 -5.69 31.74 -4.05 27.91 C-2.59 23.86 -2.04 19.82 -1.49 15.57 C-1 13 -1 13 1 10 C-1.44 10.31 -1.44 10.31 -4 11 C-4.33 11.99 -4.66 12.98 -5 14 C-6.31 10.81 -6.31 10.81 -7 7 C-4.75 4.06 -4.75 4.06 -2 2 C-1.34 2 -0.68 2 0 2 C0 1.34 0 0.68 0 0 Z " fill="#2B302D" transform="translate(259,46)"/>
<path d="M0 0 C0.17 0.66 0.17 0.66 1 4 C-0.6 6.38 -2.27 8.71 -4 11 C-4.67 12.66 -5.34 14.33 -6 16 C-6.68 16.82 -7.36 17.65 -8.06 18.5 C-10.11 21.15 -10.46 22.77 -11 26 C-16.66 28.83 -23.56 26.82 -29.25 24.96 C-30.06 24.69 -30.86 24.41 -31.69 24.12 C-32.1 23.99 -32.1 23.99 -34.16 23.31 C-37.54 22.19 -40.91 21.03 -44.26 19.84 C-46.96 19.01 -49.32 18.68 -52.12 18.5 C-57 18 -57 18 -61 16 C-61.33 14.68 -61.66 13.36 -62 12 C-61.01 10.68 -60.02 9.36 -59 8 C-57.68 8 -56.36 8 -55 8 C-55 7.01 -55 6.02 -55 5 C-53.68 5.33 -52.36 5.66 -51 6 C-51.99 6.95 -52.98 7.9 -54 8.88 C-57 12 -57 12 -57 14 C-53.23 15.11 -49.46 16.21 -45.69 17.31 C-45.16 17.47 -45.16 17.47 -42.5 18.25 C-40.38 18.87 -38.25 19.48 -36.13 20.1 C-34.08 20.69 -32.04 21.29 -30 21.9 C-27.34 22.67 -24.69 23.36 -22 24 C-20.77 24.3 -19.54 24.6 -18.27 24.9 C-13.32 23.54 -11.97 20.18 -9.46 15.87 C-9.15 15.33 -9.15 15.33 -7.62 12.56 C-6.39 10.42 -5.15 8.27 -3.91 6.13 C-3.38 5.17 -2.84 4.21 -2.29 3.22 C-1 1 -1 1 0 0 Z " fill="#F9E9C7" transform="translate(366,119)"/>
<path d="M0 0 C0.99 0.33 1.98 0.66 3 1 C-2.83 6.36 -9.01 10.96 -15.48 15.52 C-18.53 17.67 -21.55 19.85 -24.56 22.06 C-25.44 22.69 -26.31 23.32 -27.21 23.96 C-29.26 25.46 -31.27 27 -33.25 28.57 C-41.82 35.07 -41.82 35.07 -47.5 34.75 C-48.99 34.17 -50.47 33.59 -52 33 C-54.35 32.43 -56.7 31.89 -59.06 31.38 C-61.04 30.92 -63.02 30.46 -65 30 C-64.34 28.35 -63.68 26.7 -63 25 C-62.67 26.32 -62.34 27.64 -62 29 C-58.37 29 -54.74 29 -51 29 C-51 29.66 -51 30.32 -51 31 C-46.42 31.07 -42.46 31.12 -38 30 C-38 29.01 -38 28.02 -38 27 C-36.68 27 -35.36 27 -34 27 C-34 26.34 -34 25.68 -34 25 C-31.7 22.08 -30.42 21.1 -26.75 20.25 C-25.84 20.17 -24.94 20.09 -24 20 C-24 19.34 -24 18.68 -24 18 C-23.01 18 -22.02 18 -21 18 C-20.67 16.68 -20.34 15.36 -20 14 C-18.68 14 -17.36 14 -16 14 C-16 13.01 -16 12.02 -16 11 C-15.01 11 -14.02 11 -13 11 C-13 10.34 -13 9.68 -13 9 C-12.28 8.73 -11.56 8.46 -10.81 8.19 C-7.38 6.74 -5.55 4.69 -3 2 C-2.01 1.34 -1.02 0.68 0 0 Z " fill="#DCA647" transform="translate(337,94)"/>
<path d="M0 0 C-0.33 1.32 -0.66 2.64 -1 4 C-3.65 4.73 -6.32 5.39 -9 6 C-9.99 6.99 -10.98 7.98 -12 9 C-14.33 9.37 -16.66 9.7 -19 10 C-19.66 10.66 -20.32 11.32 -21 12 C-21.78 12.31 -22.57 12.62 -23.38 12.94 C-26 14 -26 14 -30 17 C-32.8 17.73 -32.8 17.73 -35.75 18.19 C-36.73 18.35 -37.72 18.5 -38.73 18.67 C-39.48 18.78 -40.23 18.89 -41 19 C-41 19.99 -41 20.98 -41 22 C-41.95 22.29 -42.9 22.58 -43.88 22.88 C-47 24 -47 24 -49 26 C-50.65 26 -52.3 26 -54 26 C-56.35 28.94 -57.81 31.43 -59 35 C-59.66 35 -60.32 35 -61 35 C-61.66 36.32 -62.32 37.64 -63 39 C-63 32.87 -60.09 28.41 -56 24 C-49.18 19.69 -41.5 16.9 -34 14 C-28.41 11.8 -22.88 9.56 -17.44 7 C-16.89 6.75 -16.89 6.75 -14.13 5.46 C-13.1 4.98 -12.07 4.5 -11 4 C-2.34 0 -2.34 0 0 0 Z " fill="#DDA545" transform="translate(341,77)"/>
<path d="M0 0 C0.99 0.33 1.98 0.66 3 1 C0.38 3.51 -2.25 6 -4.88 8.5 C-5.62 9.22 -6.37 9.93 -7.14 10.67 C-12.77 16 -12.77 16 -15 16 C-15.17 16.5 -15.17 16.5 -16 19 C-17.87 20.73 -19.75 22.46 -21.71 24.08 C-24 26 -24 26 -26.04 28.01 C-30.54 32.17 -33.89 33.52 -40.06 33.75 C-46.44 33.45 -50.05 31.96 -55 28 C-54.34 27.67 -53.68 27.34 -53 27 C-52.64 27.24 -52.64 27.24 -50.8 28.43 C-47.35 30.37 -45.12 30.31 -41.19 30.19 C-40.03 30.16 -38.86 30.13 -37.67 30.11 C-36.79 30.07 -35.91 30.04 -35 30 C-34.67 29.01 -34.34 28.02 -34 27 C-31.01 24.71 -28.49 23.15 -24.88 22.06 C-21.34 20.75 -20.26 18.94 -18 16 C-16.68 15.67 -15.36 15.34 -14 15 C-14 13.68 -14 12.36 -14 11 C-13.01 11 -12.02 11 -11 11 C-10.67 10.01 -10.34 9.02 -10 8 C-8.34 7.31 -6.68 6.64 -5 6 C-5 5.34 -5 4.68 -5 4 C-4.34 4 -3.68 4 -3 4 C-2.67 3.01 -2.34 2.02 -2 1 C-1.34 0.67 -0.68 0.34 0 0 Z " fill="#303029" transform="translate(370,174)"/>
<path d="M0 0 C-1.28 3.41 -2.76 6.47 -4.64 9.58 C-4.9 10.01 -4.9 10.01 -6.2 12.16 C-6.73 13.03 -7.26 13.91 -7.81 14.81 C-8.07 15.24 -8.07 15.24 -9.39 17.43 C-12.55 22.65 -15.76 27.84 -19 33 C-20.31 29.06 -19.24 26.88 -18 23 C-17.34 23 -16.68 23 -16 23 C-15.67 21.68 -15.34 20.36 -15 19 C-14.34 19 -13.68 19 -13 19 C-13 18.01 -13 17.02 -13 16 C-12.34 16 -11.68 16 -11 16 C-10.67 14.68 -10.34 13.36 -10 12 C-9.01 11.67 -8.02 11.34 -7 11 C-7 9.35 -7 7.7 -7 6 C-12.88 9.75 -12.88 9.75 -14 12 C-15.32 11.67 -16.64 11.34 -18 11 C-12.98 4.63 -8.72 0 0 0 Z " fill="#DCA241" transform="translate(398,66)"/>
</svg>
