<?xml version="1.0" encoding="UTF-8"?><svg role="img" aria-hidden="true" version="1" xmlns="http://www.w3.org/2000/svg" viewBox="0 0 461 281" width="461" height="281"><path d="M0 0 C1 0 3 1 4 1 C7 2 10 3 13 3 C18 5 23 6 28 7 C32 8 36 9 40 10 C42 11 44 11 47 12 C50 13 53 13 55 14 C56 14 57 14 58 15 C66 17 74 19 78 27 C80 35 78 40 74 48 C71 52 71 52 71 54 C74 56 77 58 79 59 C99 73 99 73 101 82 C101 89 99 94 94 99 C93 101 92 102 90 103 C90 103 89 104 88 105 C85 107 82 110 79 112 C77 114 75 116 73 118 C73 119 73 120 73 121 C75 122 77 124 79 126 C82 128 85 131 87 133 C88 134 89 135 90 136 C94 141 95 145 95 151 C94 156 93 157 89 161 C84 164 79 167 73 170 C75 174 77 175 81 177 C93 187 93 187 94 192 C94 196 94 199 92 203 C87 208 80 211 73 213 C75 217 77 218 80 221 C89 229 89 229 90 235 C89 240 89 242 85 246 C85 246 85 246 82 248 C83 249 84 250 85 251 C89 254 89 256 90 261 C89 265 89 267 85 270 C83 271 81 271 78 271 C77 271 76 271 75 271 C73 271 72 271 71 271 C69 271 68 271 67 271 C62 271 58 271 53 271 C52 271 50 271 49 271 C41 271 33 271 25 271 C17 271 8 271 0 271 C-6 271 -13 271 -19 271 C-22 271 -25 271 -28 271 C-58 272 -58 272 -72 266 C-73 265 -75 265 -76 264 C-78 264 -79 263 -80 263 C-81 263 -81 263 -85 261 C-87 261 -88 260 -90 260 C-91 259 -93 259 -94 258 C-97 257 -100 256 -103 255 C-106 254 -109 253 -112 252 C-113 252 -114 252 -116 251 C-117 251 -118 250 -119 250 C-125 248 -128 245 -132 241 C-133 234 -133 231 -130 225 C-131 224 -132 223 -134 222 C-134 222 -134 223 -134 224 C-137 230 -140 235 -144 240 C-144 240 -144 240 -146 243 C-154 256 -164 267 -179 270 C-182 271 -185 271 -188 271 C-190 271 -191 271 -193 271 C-194 271 -196 271 -197 271 C-199 271 -201 271 -202 271 C-207 271 -213 271 -218 271 C-220 271 -222 271 -224 271 C-232 271 -241 271 -250 271 C-260 271 -269 271 -279 271 C-287 271 -295 271 -303 271 C-307 271 -312 271 -316 271 C-321 271 -327 271 -332 271 C-332 271 -332 271 -336 271 C-338 271 -339 271 -341 271 C-342 271 -343 271 -344 271 C-348 271 -350 269 -354 267 C-356 263 -357 260 -357 255 C-353 249 -350 244 -346 239 C-341 234 -337 228 -333 223 C-328 216 -323 210 -318 203 C-310 194 -303 185 -296 176 C-295 175 -294 174 -294 173 C-293 172 -292 171 -291 170 C-286 164 -282 162 -274 162 C-272 162 -269 162 -267 162 C-242 164 -242 164 -236 159 C-232 153 -231 146 -230 140 C-228 132 -224 125 -221 118 C-221 117 -220 115 -220 114 C-216 106 -213 100 -206 94 C-199 91 -190 92 -182 92 C-176 93 -170 93 -164 93 C-160 93 -157 93 -154 94 C-132 95 -132 95 -124 92 C-117 86 -115 77 -113 69 C-112 64 -110 59 -108 54 C-107 52 -106 50 -106 48 C-103 43 -100 39 -94 35 C-90 34 -87 35 -83 35 C-82 35 -81 35 -80 35 C-72 35 -64 35 -56 36 C-55 35 -55 34 -55 34 C-50 21 -40 2 -27 -3 C-18 -5 -9 -2 0 0 Z " fill="#243341" transform="translate(358,4)"/><path d="M0 0 C2 0 4 0 5 0 C10 0 15 0 19 0 C24 0 29 0 34 0 C43 1 53 1 62 1 C63 6 63 6 62 8 C61 12 61 16 61 20 C62 20 63 20 64 21 C64 20 65 19 65 18 C68 21 68 21 68 23 C68 24 68 25 68 26 C68 31 68 34 71 39 C72 39 73 39 74 40 C77 43 79 45 79 50 C79 50 79 50 79 53 C80 53 82 53 83 54 C83 54 83 55 83 56 C84 56 84 55 85 55 C89 55 91 57 94 59 C95 59 95 59 97 61 C98 62 100 64 102 65 C102 65 102 65 104 67 C108 70 112 73 117 76 C117 76 118 77 119 78 C125 82 130 86 136 90 C137 91 137 91 138 92 C145 97 150 99 158 98 C164 97 168 94 172 90 C173 89 174 88 176 87 C179 84 181 82 184 79 C190 73 195 68 202 63 C204 61 207 58 209 56 C213 51 218 47 223 43 C226 40 229 38 231 35 C241 26 241 26 246 23 C249 23 249 23 251 24 C251 25 251 26 251 27 C252 27 252 27 253 27 C253 27 253 28 253 29 C254 29 255 29 256 30 C258 31 259 33 261 35 C262 35 263 36 264 37 C264 38 264 39 264 40 C265 40 265 40 266 40 C267 46 267 46 266 50 C264 51 262 52 260 53 C253 55 248 59 243 64 C242 65 241 65 240 66 C238 69 237 72 236 76 C237 75 237 75 238 74 C241 73 241 73 243 73 C246 75 249 77 251 79 C255 82 258 84 261 87 C262 87 263 88 264 89 C264 90 264 91 264 93 C261 94 258 96 255 97 C254 97 253 97 252 98 C249 99 246 100 243 101 C241 101 240 102 238 102 C236 103 233 104 230 105 C226 107 222 108 218 110 C212 112 207 114 201 116 C191 119 181 123 172 126 C169 127 166 128 164 129 C162 130 160 131 159 131 C158 132 157 132 156 132 C150 134 144 137 139 139 C133 141 128 140 123 137 C121 137 120 136 119 136 C117 135 116 135 115 134 C112 133 109 132 107 131 C105 130 104 129 102 129 C95 126 89 123 82 120 C81 120 79 119 78 119 C73 117 69 115 64 113 C64 113 64 113 62 117 C59 118 59 118 57 118 C57 117 57 117 58 116 C58 115 58 114 58 113 C57 112 55 111 54 110 C54 111 53 113 53 115 C52 114 50 114 49 113 C49 114 50 115 50 117 C48 120 47 123 45 126 C45 127 44 127 44 128 C42 130 41 133 40 135 C39 135 39 135 38 137 C30 151 20 162 4 166 C0 167 -3 167 -6 167 C-7 167 -9 167 -10 167 C-11 167 -11 167 -15 167 C-16 167 -16 167 -20 167 C-25 167 -30 167 -36 167 C-37 167 -39 167 -41 167 C-50 167 -58 167 -67 167 C-77 167 -87 167 -97 167 C-105 167 -112 167 -120 167 C-125 167 -129 167 -134 167 C-139 167 -144 167 -149 167 C-150 167 -150 167 -154 167 C-155 167 -157 167 -158 167 C-159 167 -160 167 -162 167 C-166 167 -168 165 -171 163 C-174 159 -175 156 -174 151 C-171 145 -167 140 -163 135 C-158 130 -154 124 -150 119 C-145 112 -140 106 -135 99 C-128 90 -120 81 -113 72 C-113 71 -112 70 -111 69 C-110 68 -110 67 -109 66 C-104 60 -99 58 -92 58 C-89 58 -87 58 -84 58 C-60 60 -60 60 -53 55 C-49 49 -48 42 -47 35 C-46 29 -43 24 -41 18 C-40 17 -40 16 -40 15 C-38 11 -37 8 -32 6 C-29 5 -29 5 -27 6 C-27 5 -26 5 -26 4 C-26 5 -26 5 -24 9 C-24 8 -24 8 -22 5 C-17 -2 -8 0 0 0 Z " fill="#24313A" transform="translate(175,108)"/><path d="M0 0 C3 3 3 5 3 9 C2 13 2 13 0 17 C0 18 -1 19 -1 20 C-2 22 -3 24 -4 27 C-5 28 -6 30 -6 32 C-7 35 -9 38 -10 41 C-12 45 -14 50 -16 55 C-15 55 -15 55 -12 55 C-7 55 -1 55 4 55 C6 55 8 55 11 55 C14 55 17 55 20 55 C21 55 22 55 23 55 C29 55 32 55 37 59 C40 62 40 64 40 68 C40 75 37 79 32 84 C28 89 28 89 28 93 C29 95 30 98 31 100 C32 102 33 104 34 105 C34 106 35 107 35 108 C37 113 34 119 31 124 C31 125 31 126 30 127 C30 128 29 130 28 132 C27 134 27 134 26 137 C25 140 24 142 22 144 C16 145 10 145 4 145 C1 145 -2 145 -5 145 C-6 145 -8 145 -9 145 C-13 145 -13 145 -15 148 C-16 148 -16 149 -17 150 C-11 150 -5 150 1 150 C3 150 5 150 7 150 C10 150 13 150 15 150 C16 150 16 150 18 151 C22 151 24 150 27 148 C29 146 31 143 32 140 C33 138 33 137 34 136 C34 134 35 133 35 132 C36 130 37 129 37 128 C40 120 44 112 47 104 C47 103 48 102 48 101 C49 101 49 101 50 101 C50 102 51 103 51 104 C52 104 53 104 54 104 C56 110 53 117 50 123 C49 123 49 123 48 123 C48 125 48 128 48 130 C47 130 46 130 45 130 C45 133 45 136 45 139 C46 139 47 140 48 140 C48 139 49 139 49 138 C50 138 51 138 52 138 C52 136 52 135 52 133 C53 132 55 130 56 129 C58 126 59 122 61 119 C63 116 65 114 69 113 C70 114 71 114 72 115 C72 114 73 114 73 113 C74 113 75 114 76 114 C74 121 70 126 66 132 C66 133 66 133 64 136 C56 149 46 159 31 163 C28 163 24 163 21 163 C20 163 18 163 17 163 C16 163 16 163 12 163 C12 163 12 163 7 163 C2 163 -3 163 -9 163 C-10 163 -12 163 -14 163 C-23 163 -31 163 -40 163 C-50 163 -60 163 -70 163 C-78 163 -85 163 -93 163 C-98 163 -102 163 -107 164 C-112 164 -117 164 -122 164 C-123 164 -123 164 -127 164 C-128 164 -130 164 -131 164 C-132 164 -133 164 -135 164 C-139 163 -141 162 -144 159 C-147 155 -148 152 -147 147 C-144 141 -140 137 -136 132 C-131 126 -127 121 -123 115 C-118 108 -113 102 -108 96 C-101 87 -93 77 -86 68 C-85 67 -85 66 -84 65 C-84 65 -84 65 -82 62 C-77 57 -72 54 -65 54 C-62 54 -60 54 -57 54 C-32 56 -32 56 -26 51 C-22 45 -21 38 -20 32 C-18 26 -16 20 -14 15 C-13 14 -13 13 -13 12 C-11 7 -10 5 -5 2 C-2 1 -2 1 0 2 C0 1 0 1 0 0 Z " fill="#253341" transform="translate(148,112)"/><path d="M0 0 C1 0 1 0 4 1 C7 2 10 3 13 3 C18 5 23 6 28 7 C32 8 36 9 40 10 C42 11 44 11 47 12 C50 13 53 13 55 14 C56 14 57 14 58 15 C66 17 74 19 78 27 C80 35 78 40 74 48 C71 52 71 52 71 54 C74 56 77 58 79 59 C99 73 99 73 101 82 C101 89 99 94 94 99 C93 101 92 102 90 103 C90 103 90 103 88 105 C85 107 82 110 79 112 C77 114 75 116 73 118 C73 119 73 120 73 121 C75 122 77 124 79 126 C82 128 85 131 87 133 C88 134 89 135 90 136 C94 141 95 145 95 151 C94 156 93 157 89 161 C84 164 79 167 73 170 C75 174 77 175 81 177 C93 187 93 187 94 192 C94 196 94 199 92 203 C87 208 80 211 73 213 C75 217 77 218 80 221 C89 229 89 229 90 235 C89 240 89 242 85 246 C84 246 83 247 82 248 C83 249 84 250 85 251 C89 254 89 256 90 261 C89 265 89 267 85 270 C83 271 81 271 78 271 C77 271 76 271 75 271 C73 271 72 271 71 271 C69 271 68 271 67 271 C62 271 58 271 53 271 C52 271 50 271 49 271 C41 271 33 271 25 271 C17 271 8 271 0 271 C-6 271 -13 271 -19 271 C-22 271 -25 271 -28 271 C-58 272 -58 272 -72 266 C-73 265 -75 265 -76 264 C-78 264 -79 263 -80 263 C-82 262 -83 262 -85 261 C-87 261 -88 260 -90 260 C-91 259 -93 259 -94 258 C-97 257 -100 256 -103 255 C-106 254 -109 253 -112 252 C-113 252 -114 252 -116 251 C-117 251 -118 250 -119 250 C-125 248 -128 245 -132 241 C-133 236 -133 233 -131 228 C-131 227 -131 227 -130 225 C-131 223 -131 223 -134 221 C-134 219 -134 218 -134 217 C-133 216 -132 216 -131 216 C-130 216 -130 216 -130 217 C-129 216 -129 215 -129 214 C-125 216 -125 216 -124 218 C-124 219 -124 220 -125 221 C-122 220 -122 220 -120 219 C-119 218 -119 217 -119 216 C-118 216 -117 217 -116 217 C-114 217 -113 218 -112 219 C-111 219 -111 219 -107 220 C-104 222 -101 223 -97 225 C-90 228 -82 231 -74 234 C-73 235 -71 236 -70 236 C-68 237 -65 238 -63 239 C-54 243 -49 244 -40 240 C-39 240 -39 240 -36 239 C-35 238 -34 238 -33 238 C-28 236 -22 234 -16 231 C-6 228 5 224 15 220 C20 218 25 216 29 215 C35 213 40 211 45 209 C53 206 60 203 67 201 C68 201 69 200 70 200 C74 199 77 197 81 197 C81 195 81 194 81 193 C80 192 79 191 77 191 C75 189 73 187 71 186 C70 185 69 184 68 183 C67 182 65 182 64 181 C63 180 62 179 60 178 C58 178 58 178 55 180 C54 180 53 180 52 181 C54 174 56 169 62 165 C63 165 64 165 64 165 C65 164 65 163 65 162 C79 154 79 154 83 154 C83 150 83 147 83 144 C83 144 82 144 81 144 C81 143 81 142 81 141 C81 140 80 140 79 140 C76 138 75 137 72 134 C72 133 71 133 70 133 C70 132 70 131 70 131 C70 131 69 131 68 131 C68 130 68 129 67 128 C63 127 63 127 58 127 C58 128 58 129 57 130 C53 134 53 134 50 134 C50 135 50 136 49 137 C48 136 47 136 46 136 C46 136 46 137 45 138 C44 135 45 134 45 131 C45 131 45 131 44 132 C43 131 42 131 40 131 C48 124 55 117 62 110 C64 109 66 107 68 105 C70 104 71 103 72 102 C72 102 72 102 75 99 C76 98 78 96 80 94 C81 93 82 93 83 92 C84 91 85 91 86 90 C88 87 89 86 88 83 C85 78 80 75 75 71 C74 71 73 70 73 70 C69 67 67 66 62 65 C62 66 61 67 61 68 C60 69 59 71 58 72 C57 74 57 75 56 76 C55 78 54 79 53 80 C52 80 51 80 49 80 C49 78 49 77 49 76 C49 76 48 76 47 76 C47 76 47 77 46 78 C46 77 46 76 46 75 C45 74 44 74 42 74 C44 71 46 69 47 66 C48 65 48 64 49 64 C51 59 54 55 57 51 C57 50 57 50 58 48 C59 46 61 45 62 43 C65 39 66 35 66 30 C66 30 65 30 64 29 C58 29 53 27 48 26 C46 25 44 25 42 24 C41 24 41 24 39 24 C35 23 31 22 27 21 C21 19 14 17 8 16 C7 15 6 15 4 15 C2 14 0 14 -2 13 C-5 12 -7 12 -10 11 C-11 11 -12 10 -13 10 C-18 9 -22 8 -27 10 C-28 12 -28 12 -29 15 C-30 18 -32 21 -34 24 C-35 24 -35 25 -36 26 C-37 28 -38 30 -40 32 C-44 31 -44 31 -47 28 C-47 28 -47 28 -48 30 C-49 31 -51 32 -53 33 C-53 33 -53 33 -54 35 C-54 34 -55 34 -56 34 C-36 1 -36 1 -27 -3 C-18 -5 -9 -2 0 0 Z " fill="#223242" transform="translate(358,4)"/><path d="M0 0 C4 1 8 2 12 3 C14 4 16 4 18 5 C19 5 20 5 21 5 C23 6 25 6 27 7 C32 8 37 9 42 11 C43 11 44 11 45 11 C47 12 50 13 52 13 C56 14 60 15 63 16 C64 24 61 28 57 34 C55 36 54 38 53 41 C52 42 51 43 51 44 C47 49 44 55 40 60 C40 61 39 62 38 63 C33 71 29 80 24 88 C18 97 12 107 6 116 C4 119 3 121 1 124 C1 125 0 126 -1 127 C-1 128 -2 128 -2 129 C-4 131 -4 131 -7 134 C-13 135 -19 134 -25 132 C-26 132 -27 131 -27 131 C-30 130 -33 130 -36 129 C-38 128 -40 128 -41 127 C-46 126 -51 124 -55 123 C-60 122 -64 120 -69 119 C-71 118 -73 118 -75 117 C-80 116 -85 115 -90 113 C-94 112 -94 112 -97 110 C-98 107 -98 106 -97 103 C-96 102 -95 101 -95 100 C-94 99 -94 98 -93 97 C-90 92 -87 88 -84 83 C-80 77 -76 70 -72 63 C-68 57 -64 52 -61 46 C-56 39 -52 32 -48 26 C-47 24 -46 22 -45 21 C-43 17 -40 13 -38 10 C-37 8 -36 6 -35 5 C-35 4 -35 4 -34 2 C-26 -11 -12 -3 0 0 Z " fill="#EBECE7" transform="translate(361,18)"/><path d="M0 0 C1 -0 2 -0 3 -0 C6 0 9 0 12 0 C14 0 16 0 18 0 C24 0 30 0 35 0 C41 0 47 0 52 0 C63 0 75 0 86 0 C85 6 82 10 79 14 C78 15 77 16 77 16 C75 19 73 22 71 24 C70 25 70 25 69 27 C66 31 63 34 60 38 C56 44 52 50 47 56 C44 60 41 64 38 68 C38 69 37 70 36 70 C26 84 26 84 22 85 C19 85 16 86 12 86 C12 86 12 86 10 86 C6 86 3 86 0 85 C-2 85 -4 85 -7 85 C-12 85 -18 85 -24 85 C-30 85 -36 85 -42 85 C-53 85 -65 85 -76 85 C-74 80 -71 76 -68 72 C-68 72 -67 71 -66 70 C-63 65 -59 60 -55 55 C-52 52 -49 48 -46 45 C-42 38 -37 32 -32 26 C-29 23 -26 19 -24 16 C-23 15 -23 14 -22 13 C-21 12 -20 10 -19 9 C-13 1 -9 0 0 0 Z " fill="#F0EFE8" transform="translate(90,178)"/><path d="M0 0 C1 0 3 0 4 0 C6 0 8 0 9 0 C11 0 13 0 14 0 C16 0 18 0 20 0 C25 0 29 0 34 0 C39 0 44 0 48 0 C58 0 67 0 77 0 C78 5 77 7 75 11 C75 13 74 14 74 15 C73 16 73 18 72 19 C71 22 70 25 68 28 C68 29 67 30 67 32 C63 39 61 46 58 54 C56 56 55 59 54 62 C54 63 54 63 52 66 C49 74 46 81 43 88 C40 95 38 102 35 108 C24 135 24 135 20 144 C19 146 19 147 18 148 C17 151 17 151 13 154 C9 155 6 155 3 155 C2 155 1 155 0 155 C-3 155 -6 155 -9 155 C-11 155 -13 155 -15 155 C-20 155 -25 154 -30 154 C-26 149 -26 149 -25 147 C-23 147 -20 147 -18 148 C-17 148 -17 148 -13 148 C-10 148 -7 148 -3 148 C1 148 5 148 10 146 C13 142 14 138 16 132 C16 131 17 129 18 128 C18 126 19 125 20 124 C20 122 21 121 21 120 C23 116 22 114 21 110 C20 109 20 108 19 107 C19 106 18 105 18 104 C17 102 16 100 15 97 C15 92 18 89 21 84 C26 79 27 75 27 67 C24 63 23 62 19 59 C15 59 12 59 8 59 C7 59 6 59 5 59 C2 59 -2 59 -5 59 C-7 59 -10 59 -12 59 C-17 59 -23 58 -28 58 C-25 48 -25 48 -23 43 C-23 42 -22 41 -22 40 C-22 39 -21 38 -21 37 C-20 36 -20 35 -19 34 C-18 32 -18 30 -17 28 C-15 24 -14 21 -13 18 C-12 16 -11 14 -10 13 C-10 12 -10 11 -9 10 C-5 1 -5 1 0 0 Z " fill="#F3EDDD" transform="translate(160,109)"/><path d="M0 0 C1 0 3 1 4 1 C7 2 10 3 13 3 C18 5 23 6 28 7 C32 8 36 9 40 10 C42 11 44 11 47 12 C50 13 53 13 55 14 C56 14 56 14 58 15 C66 17 74 19 78 27 C80 35 78 40 74 48 C71 52 71 52 71 54 C74 56 77 58 79 59 C99 73 99 73 101 82 C101 89 99 94 94 99 C93 101 92 102 90 103 C90 103 90 103 88 105 C85 107 82 110 79 112 C77 114 75 116 73 118 C73 119 73 120 73 121 C75 122 77 124 79 126 C82 128 85 131 87 133 C88 134 89 135 90 136 C94 141 95 145 95 151 C94 156 93 157 89 161 C84 164 79 167 73 170 C75 173 76 174 78 176 C80 177 81 178 82 179 C82 179 81 180 80 180 C78 183 78 183 77 187 C76 187 75 188 74 189 C73 188 73 187 72 186 C70 185 69 184 68 183 C67 182 65 181 64 180 C60 178 60 178 58 178 C57 179 57 179 55 180 C54 180 53 180 52 181 C54 174 56 169 62 165 C63 165 64 165 64 165 C65 164 65 163 65 162 C79 154 79 154 83 154 C83 150 83 147 83 144 C83 144 82 144 81 144 C81 143 81 142 81 141 C81 140 80 140 79 140 C76 138 75 137 72 134 C72 133 71 133 70 133 C70 132 70 131 70 131 C70 131 69 131 68 131 C68 130 68 129 67 128 C63 127 63 127 58 127 C58 128 58 129 57 130 C53 134 53 134 50 134 C50 135 50 136 49 137 C48 136 47 136 46 136 C46 136 46 137 45 138 C44 135 45 134 45 131 C45 131 45 131 44 132 C43 131 42 131 40 131 C48 124 55 117 62 110 C64 109 66 107 68 105 C70 104 71 103 72 102 C72 102 72 102 75 99 C76 98 78 96 80 94 C81 93 82 93 83 92 C84 91 85 91 86 90 C88 87 89 86 88 83 C85 78 80 75 75 71 C74 71 73 70 73 70 C69 67 67 66 62 65 C62 66 61 67 61 68 C60 69 59 71 58 72 C57 74 57 75 56 76 C55 78 54 79 53 80 C52 80 51 80 49 80 C49 78 49 77 49 76 C49 76 48 76 47 76 C47 76 47 77 46 78 C46 77 46 76 46 75 C46 75 46 75 42 74 C44 71 46 69 47 66 C48 65 48 64 49 64 C51 59 54 55 57 51 C57 50 58 49 58 48 C59 46 61 45 62 43 C65 39 66 35 66 30 C66 30 65 30 64 29 C58 29 53 27 48 26 C46 25 44 25 42 24 C41 24 40 24 39 24 C35 23 31 22 27 21 C21 19 14 17 8 16 C7 15 6 15 4 15 C2 14 0 14 -2 13 C-5 12 -7 12 -10 11 C-11 11 -12 10 -13 10 C-18 9 -22 8 -27 10 C-28 12 -28 12 -29 15 C-30 18 -32 21 -34 24 C-35 24 -35 25 -36 26 C-37 28 -38 30 -40 32 C-44 31 -44 31 -47 28 C-47 28 -47 29 -48 30 C-48 30 -48 30 -53 33 C-53 33 -53 34 -54 35 C-54 34 -55 34 -56 34 C-36 1 -36 1 -27 -3 C-18 -5 -9 -2 0 0 Z " fill="#263544" transform="translate(358,4)"/><path d="M0 0 C5 1 9 4 13 7 C14 8 15 8 15 9 C24 15 24 15 27 19 C27 25 22 28 18 32 C17 32 17 33 16 34 C14 36 11 38 9 40 C7 42 5 44 3 46 C1 48 -1 49 -3 51 C-5 53 -7 55 -9 57 C-12 59 -15 62 -18 65 C-23 70 -28 74 -33 79 C-41 86 -48 92 -55 99 C-60 104 -65 108 -71 113 C-72 114 -73 115 -74 116 C-76 118 -78 120 -79 122 C-80 122 -81 123 -82 124 C-82 124 -83 125 -84 126 C-88 128 -91 128 -95 127 C-98 125 -101 124 -103 121 C-104 121 -105 120 -106 120 C-107 118 -109 117 -111 116 C-114 114 -117 111 -120 109 C-122 107 -125 105 -127 104 C-130 101 -134 99 -137 96 C-162 78 -162 78 -167 73 C-167 72 -166 70 -166 69 C-165 69 -164 70 -163 70 C-155 73 -147 75 -140 77 C-128 80 -116 83 -105 87 C-98 89 -92 91 -85 92 C-82 93 -82 93 -79 94 C-73 96 -66 97 -60 94 C-53 89 -50 82 -46 74 C-42 68 -39 63 -35 57 C-33 53 -30 49 -28 45 C-27 44 -27 44 -26 43 C-21 34 -15 25 -10 15 C-9 14 -8 13 -8 12 C-7 11 -6 10 -6 9 C-4 6 -2 3 0 0 Z " fill="#E8ECEE" transform="translate(420,68)"/><path d="M0 0 C-2 5 -5 10 -7 14 C-8 16 -10 18 -11 20 C-11 20 -12 21 -12 22 C-14 25 -15 28 -17 30 C-23 40 -29 50 -35 60 C-37 62 -39 65 -40 68 C-41 70 -42 71 -43 72 C-43 73 -44 74 -45 76 C-47 78 -47 78 -50 79 C-56 78 -62 76 -67 74 C-69 74 -70 74 -71 73 C-77 71 -84 69 -90 67 C-88 62 -84 59 -81 55 C-77 51 -73 47 -69 43 C-67 40 -64 37 -61 34 C-57 30 -57 30 -56 28 C-57 29 -58 30 -59 31 C-67 37 -76 43 -84 49 C-87 51 -89 53 -92 55 C-94 56 -95 57 -96 58 C-98 59 -99 60 -100 61 C-105 64 -108 63 -113 61 C-114 61 -115 60 -117 60 C-118 60 -119 60 -120 59 C-121 59 -122 59 -123 59 C-124 58 -125 58 -126 58 C-122 46 -117 36 -105 30 C-100 28 -96 27 -91 25 C-84 23 -78 20 -72 17 C-65 14 -58 11 -51 8 C-49 7 -48 6 -46 6 C-46 5 -46 5 -42 4 C-41 3 -39 3 -38 2 C-35 1 -35 1 -33 1 C-33 8 -34 14 -35 21 C-35 22 -35 22 -36 25 C-36 27 -36 30 -37 33 C-32 28 -28 23 -23 17 C-23 17 -22 16 -21 15 C-20 13 -18 11 -17 9 C-12 4 -8 0 0 0 Z " fill="#EC9F1F" transform="translate(398,66)"/><path d="M0 0 C5 2 7 5 10 9 C20 19 30 29 40 39 C41 38 42 37 43 36 C45 35 45 35 48 35 C51 37 51 37 53 40 C53 41 53 41 53 42 C54 43 56 43 57 44 C57 44 58 45 58 45 C60 45 62 45 64 45 C65 45 66 45 67 45 C70 45 70 45 72 43 C80 41 80 41 84 42 C85 42 85 43 86 43 C86 43 86 43 85 45 C89 44 91 44 95 42 C95 41 96 41 97 40 C98 40 99 39 100 39 C102 37 104 36 106 35 C107 35 107 34 108 34 C112 32 115 30 119 28 C125 24 131 21 137 17 C138 17 139 16 140 16 C144 13 149 11 153 8 C154 8 155 7 155 7 C157 5 160 4 162 3 C165 1 165 1 168 2 C170 3 173 5 175 7 C179 10 182 13 185 15 C186 15 186 15 188 17 C188 18 188 20 188 21 C185 23 182 24 179 25 C178 25 177 26 176 26 C173 27 170 28 167 29 C166 30 164 30 162 31 C160 32 157 33 154 34 C150 35 146 37 142 38 C136 40 131 42 125 44 C115 48 105 51 96 55 C93 56 90 57 88 58 C86 58 84 59 83 60 C82 60 81 60 80 60 C74 63 69 65 63 67 C57 69 52 68 47 66 C46 65 46 65 43 64 C42 63 40 63 39 62 C36 61 33 60 31 59 C29 58 28 58 26 57 C18 53 10 50 2 47 C2 47 2 47 -1 46 C-2 45 -3 45 -4 44 C-12 41 -12 41 -15 38 C-15 37 -14 35 -14 34 C-8 35 -2 37 3 39 C4 39 4 39 7 40 C9 41 12 42 14 43 C14 42 14 42 14 41 C15 41 15 41 20 40 C20 38 20 37 20 35 C18 34 18 34 15 32 C14 32 12 31 11 31 C10 30 8 30 7 29 C6 29 5 28 5 28 C-1 26 -6 24 -11 22 C-10 17 -8 14 -6 10 C-4 7 -2 4 0 0 Z " fill="#E7ECEF" transform="translate(251,180)"/><path d="M0 0 C3 1 3 1 6 3 C5 7 5 8 2 12 C1 12 1 12 0 12 C0 13 -1 15 -1 16 C-2 17 -4 19 -5 20 C-6 21 -6 23 -7 24 C-8 24 -8 24 -9 24 C-9 25 -10 27 -10 28 C-11 28 -11 28 -12 28 C-12 29 -13 31 -13 32 C-14 32 -15 33 -16 33 C-16 34 -16 34 -16 35 C-17 35 -17 35 -18 35 C-18 36 -18 37 -18 38 C-19 38 -19 38 -20 38 C-20 39 -20 41 -21 42 C-21 46 -23 49 -26 52 C-26 53 -27 53 -27 54 C-28 55 -28 55 -29 56 C-23 56 -17 56 -11 56 C-9 56 -7 56 -5 56 C-2 56 1 56 3 56 C4 56 4 56 6 57 C10 57 12 56 15 54 C17 52 19 49 20 46 C21 44 21 43 22 42 C22 41 22 41 23 38 C24 36 25 35 25 34 C28 26 32 18 35 10 C35 9 35 9 36 7 C37 7 37 7 38 7 C38 8 39 9 39 10 C40 10 41 10 42 10 C44 16 41 23 38 29 C37 29 37 29 36 29 C36 31 36 34 36 36 C35 36 34 36 33 36 C33 39 33 42 33 45 C34 45 35 46 36 46 C36 45 37 45 37 44 C38 44 39 44 40 44 C40 42 40 41 40 39 C41 38 43 36 44 35 C46 32 47 28 49 25 C51 22 53 20 57 19 C58 20 59 20 60 21 C60 20 61 20 61 19 C62 19 63 20 64 20 C62 27 58 32 54 38 C54 39 54 39 52 42 C44 55 34 65 19 69 C16 69 12 69 9 69 C8 69 6 69 5 69 C4 69 4 69 0 69 C0 69 0 69 -5 69 C-10 69 -15 69 -21 69 C-22 69 -24 69 -26 69 C-35 69 -43 69 -52 69 C-62 69 -72 69 -82 69 C-90 69 -97 69 -105 69 C-110 69 -114 69 -119 70 C-124 70 -129 70 -134 70 C-136 70 -137 70 -139 70 C-140 70 -142 70 -143 70 C-144 70 -145 70 -147 70 C-151 69 -153 68 -156 65 C-159 61 -159 58 -159 53 C-157 51 -157 51 -154 49 C-153 48 -153 46 -152 45 C-148 46 -148 46 -146 49 C-145 52 -145 54 -146 57 C-133 57 -121 57 -108 57 C-102 57 -96 57 -90 57 C-85 57 -79 57 -73 57 C-71 57 -69 57 -67 57 C-64 57 -61 57 -58 56 C-57 56 -56 56 -55 56 C-50 56 -47 56 -43 53 C-38 47 -33 41 -28 34 C-6 3 -6 3 0 0 Z " fill="#233342" transform="translate(160,206)"/><path d="M0 0 C5 4 10 9 15 13 C15 14 16 14 17 15 C18 17 18 17 21 20 C20 24 20 24 18 26 C9 31 1 35 -8 40 C-15 44 -22 48 -29 52 C-35 56 -41 59 -48 63 C-56 67 -65 72 -73 77 C-77 79 -80 81 -84 84 C-86 85 -89 86 -91 87 C-92 88 -93 89 -95 89 C-96 90 -97 91 -98 92 C-102 93 -104 94 -108 93 C-111 91 -113 89 -116 86 C-116 86 -116 86 -119 83 C-122 80 -125 77 -128 74 C-130 72 -132 70 -134 68 C-140 62 -145 56 -151 50 C-153 48 -156 45 -158 43 C-160 41 -161 39 -161 36 C-159 34 -159 34 -157 32 C-155 33 -153 35 -151 36 C-149 38 -148 39 -146 40 C-142 43 -137 46 -133 50 C-125 56 -117 61 -109 67 C-108 68 -108 68 -107 69 C-100 74 -95 76 -87 76 C-81 75 -77 71 -73 67 C-72 66 -70 65 -69 64 C-66 61 -64 59 -61 56 C-55 50 -50 45 -43 40 C-41 38 -38 35 -36 33 C-32 29 -27 24 -22 20 C-19 17 -16 15 -13 12 C-9 8 -5 4 0 0 Z " fill="#A0792F" transform="translate(420,131)"/><path d="M0 0 C11 0 11 0 15 3 C19 8 21 13 23 19 C24 22 26 25 27 27 C29 25 29 25 31 22 C30 17 27 13 24 8 C21 3 21 3 21 1 C30 1 30 1 34 3 C35 5 37 7 38 9 C39 9 39 9 41 7 C46 1 46 1 50 1 C50 1 50 1 53 1 C54 1 54 1 57 1 C58 1 58 1 60 1 C58 6 55 10 52 14 C49 18 47 22 44 25 C39 32 34 39 28 46 C26 49 24 52 22 55 C21 56 20 57 19 59 C17 61 16 64 14 66 C13 67 13 68 12 68 C12 68 11 68 10 68 C10 67 9 65 8 63 C2 49 -7 40 -22 33 C-27 31 -33 29 -39 28 C-38 24 -36 22 -33 18 C-30 15 -28 12 -25 8 C-18 -1 -12 0 0 0 Z " fill="#DFB466" transform="translate(102,185)"/><path d="M0 0 C3 1 3 1 6 4 C5 8 3 12 1 15 C0 16 -1 17 -2 18 C-2 19 -2 19 -4 22 C-5 23 -5 24 -6 26 C-9 31 -12 35 -16 40 C-16 40 -16 40 -18 39 C-18 37 -18 36 -18 34 C-19 34 -21 34 -22 34 C-22 33 -22 33 -22 32 C-21 32 -21 32 -20 32 C-20 29 -19 27 -19 24 C-19 25 -20 25 -20 26 C-26 35 -32 45 -38 54 C-39 55 -39 56 -40 58 C-41 60 -42 62 -44 64 C-46 68 -49 72 -52 77 C-52 77 -52 77 -53 79 C-55 81 -56 83 -57 85 C-58 86 -58 87 -59 88 C-60 89 -60 90 -61 91 C-63 94 -63 94 -67 97 C-65 87 -65 87 -64 84 C-64 82 -64 80 -64 78 C-64 77 -64 76 -64 75 C-64 75 -64 74 -64 73 C-65 73 -66 72 -67 72 C-68 67 -68 67 -68 63 C-69 63 -70 63 -71 63 C-72 63 -73 62 -74 62 C-73 56 -72 51 -70 46 C-69 45 -69 44 -69 44 C-68 42 -67 40 -66 38 C-65 36 -64 33 -63 30 C-62 28 -62 27 -61 25 C-61 24 -60 23 -60 23 C-57 16 -54 11 -48 8 C-44 7 -40 7 -36 7 C-35 7 -33 7 -31 7 C-28 7 -26 7 -23 7 C-20 7 -18 7 -15 7 C-14 7 -12 7 -11 7 C-9 7 -8 7 -7 7 C-6 6 -6 4 -5 3 C-4 3 -2 2 -1 2 C-1 1 0 1 0 0 Z " fill="#253341" transform="translate(311,32)"/><path d="M0 0 C2 3 2 3 2 7 C3 7 4 8 5 8 C5 7 6 6 6 5 C9 8 9 8 9 11 C9 11 9 11 9 13 C9 18 9 22 12 26 C13 26 14 27 15 27 C18 30 20 32 20 37 C20 38 20 39 20 40 C19 40 18 40 17 40 C16 42 16 42 15 45 C14 46 14 48 13 49 C12 49 11 50 10 50 C8 53 7 56 5 59 C4 61 3 62 2 64 C1 65 1 66 0 67 C-2 71 -4 75 -7 78 C-9 82 -11 86 -14 90 C-21 102 -28 113 -35 124 C-36 125 -36 126 -37 128 C-38 128 -38 129 -39 130 C-40 130 -41 130 -42 130 C-42 127 -41 124 -41 121 C-40 121 -39 121 -38 121 C-38 119 -38 116 -38 114 C-37 114 -37 114 -36 114 C-36 113 -36 112 -36 111 C-35 108 -35 108 -33 104 C-32 100 -32 100 -32 97 C-33 96 -33 96 -34 95 C-34 95 -34 95 -36 96 C-37 90 -36 86 -34 80 C-33 79 -32 77 -31 75 C-31 74 -30 74 -30 73 C-28 69 -27 64 -25 60 C-24 59 -23 57 -23 55 C-22 54 -21 52 -21 50 C-20 48 -19 47 -18 45 C-16 40 -14 34 -12 29 C-12 28 -11 27 -11 27 C-7 18 -4 9 0 0 Z " fill="#26313A" transform="translate(234,121)"/><path d="M0 0 C4 1 8 2 12 3 C14 4 16 4 18 5 C19 5 20 5 21 5 C23 6 25 6 27 7 C32 8 37 9 42 11 C43 11 44 11 45 11 C47 12 50 13 52 13 C56 14 60 15 63 16 C64 24 61 28 57 34 C55 36 54 38 53 40 C52 41 52 41 51 44 C47 50 43 55 40 61 C39 62 38 63 38 64 C37 65 37 66 36 67 C36 68 36 68 34 70 C33 72 32 74 31 76 C30 77 30 78 29 79 C29 80 28 81 28 81 C26 83 26 83 22 84 C22 79 22 76 25 72 C26 72 26 72 27 69 C28 69 29 69 30 68 C32 66 32 66 33 63 C33 62 34 61 34 60 C35 57 36 55 36 52 C37 52 38 52 38 52 C38 51 38 49 37 47 C35 47 33 47 30 46 C31 46 31 46 31 44 C34 44 37 44 40 44 C41 42 42 40 42 37 C42 37 42 37 39 36 C39 35 39 34 38 33 C38 33 37 33 36 32 C35 32 34 32 33 31 C32 29 32 29 32 26 C32 25 32 24 32 23 C32 22 31 21 31 20 C28 20 27 22 25 24 C20 28 17 30 10 29 C9 29 8 29 7 29 C6 29 5 29 4 29 C4 30 4 31 4 31 C6 32 7 33 8 33 C12 39 12 44 12 51 C12 51 12 52 12 53 C15 54 15 54 19 53 C19 55 19 56 18 57 C18 57 18 57 16 56 C16 57 16 57 17 59 C16 62 16 62 14 65 C12 66 11 66 10 67 C9 69 8 70 7 71 C7 71 6 71 5 71 C5 72 5 73 5 74 C5 74 4 74 3 74 C3 71 3 68 3 64 C4 64 5 64 5 64 C6 59 6 54 6 48 C5 48 5 48 -3 49 C-3 50 -3 51 -3 51 C-3 51 -4 52 -5 52 C-6 52 -7 52 -8 53 C-10 53 -11 53 -12 53 C-15 54 -15 54 -18 57 C-22 60 -26 61 -31 60 C-31 60 -31 59 -31 58 C-30 58 -29 58 -29 58 C-28 57 -28 56 -28 55 C-25 55 -25 55 -23 54 C-23 53 -23 52 -23 51 C-20 51 -17 50 -15 49 C-15 49 -15 48 -15 47 C-11 44 -9 43 -5 41 C-1 38 -1 38 0 35 C-5 35 -10 35 -16 34 C-16 33 -16 32 -16 30 C-15 30 -14 30 -14 30 C-14 30 -14 29 -14 28 C-12 28 -12 28 -5 27 C-5 27 -5 26 -5 25 C-4 25 -4 25 -2 25 C1 25 1 25 3 23 C4 23 5 23 6 23 C6 23 6 22 6 21 C8 21 10 21 12 21 C12 20 12 19 12 18 C15 17 18 16 20 15 C21 15 21 15 21 12 C20 12 20 12 12 10 C12 10 12 9 12 8 C11 8 9 8 8 8 C7 8 7 8 3 7 C3 6 2 5 1 4 C-2 3 -4 2 -7 3 C-12 3 -16 3 -20 2 C-21 2 -21 2 -23 1 C-29 0 -29 0 -32 -1 C-23 -10 -11 -3 0 0 Z " fill="#EDF0EE" transform="translate(361,18)"/><path d="M0 0 C3 0 6 0 9 0 C9 0 9 0 13 1 C17 1 20 1 24 1 C13 32 13 32 1 41 C-1 42 -4 44 -7 47 C-7 47 -8 48 -9 48 C-10 50 -12 51 -13 52 C-15 54 -15 54 -19 56 C-20 56 -21 55 -22 55 C-27 52 -31 53 -36 53 C-37 53 -38 52 -39 52 C-43 52 -46 52 -49 52 C-51 52 -54 52 -56 52 C-61 52 -67 52 -72 52 C-72 52 -72 51 -72 51 C-70 51 -67 51 -64 51 C-64 51 -64 51 -63 48 C-62 45 -62 45 -61 43 C-59 42 -59 42 -56 42 C-44 39 -31 33 -23 24 C-22 23 -22 23 -21 22 C-13 14 -13 14 -11 8 C-9 2 -7 0 0 0 Z " fill="#DEB46A" transform="translate(204,115)"/><path d="M0 0 C1 -0 2 -0 3 -0 C6 0 9 0 12 0 C14 0 16 0 18 0 C24 0 30 0 35 0 C41 0 47 0 52 0 C63 0 75 0 86 0 C85 6 82 10 79 14 C78 15 77 16 77 16 C75 19 73 22 71 24 C70 25 69 26 69 27 C66 31 63 34 60 38 C56 44 52 50 47 56 C44 60 41 64 38 68 C37 69 37 70 36 70 C33 75 29 79 26 83 C26 82 26 81 26 80 C26 80 26 80 24 77 C24 73 24 73 26 69 C27 68 28 67 30 65 C31 64 32 62 33 61 C33 60 33 60 35 59 C37 56 40 52 42 49 C45 44 49 39 53 34 C66 17 66 17 71 9 C59 8 59 8 55 11 C53 13 53 13 51 17 C45 13 45 13 43 9 C38 9 38 9 34 9 C35 11 35 12 36 13 C37 14 38 16 39 18 C39 18 40 19 40 20 C44 26 44 26 44 29 C43 32 41 33 39 35 C37 33 36 31 35 29 C33 26 32 24 30 21 C30 21 30 21 28 17 C28 17 28 17 26 14 C24 10 24 10 24 8 C-6 7 -6 7 -13 12 C-15 16 -17 19 -19 23 C-21 25 -22 27 -23 29 C-26 32 -26 32 -28 36 C-29 35 -30 34 -30 33 C-31 34 -31 34 -34 34 C-35 34 -36 33 -37 32 C-37 32 -36 31 -36 30 C-32 26 -28 21 -24 16 C-23 15 -23 14 -22 14 C-21 12 -20 11 -19 9 C-13 2 -9 0 0 0 Z " fill="#EBEBE6" transform="translate(90,178)"/><path d="M0 0 C1 0 1 0 3 0 C4 0 5 0 7 0 C8 0 9 0 10 0 C11 0 13 0 14 0 C22 0 30 1 37 1 C37 3 37 4 37 5 C38 5 38 5 40 5 C44 5 48 5 52 5 C53 5 53 5 57 5 C57 5 57 5 61 5 C62 5 63 5 65 5 C65 5 65 5 67 5 C68 6 68 6 68 7 C68 7 68 7 66 7 C62 7 57 7 53 7 C53 7 53 7 49 7 C45 7 41 7 37 8 C34 12 33 16 31 20 C22 35 6 45 -11 49 C-14 50 -14 50 -17 49 C-17 50 -17 51 -17 52 C-19 55 -19 55 -20 57 C-22 57 -25 57 -28 57 C-24 47 -20 37 -16 27 C-14 24 -13 21 -12 19 C-11 17 -11 15 -10 13 C-9 12 -9 11 -9 10 C-5 1 -5 1 0 0 Z " fill="#F5EFE0" transform="translate(160,109)"/><path d="M0 0 C4 0 6 1 10 2 C13 3 16 4 19 4 C22 5 25 6 28 7 C30 7 31 8 33 8 C37 9 41 10 45 11 C44 13 44 13 42 14 C41 14 40 15 39 15 C34 16 30 18 26 20 C19 23 13 25 6 27 C5 27 4 28 3 28 C2 28 2 28 0 29 C-3 30 -3 30 -5 32 C4 33 14 34 23 35 C20 39 18 40 14 42 C8 44 3 47 -3 50 C-9 54 -16 58 -23 61 C-23 62 -23 62 -26 63 C-32 66 -38 69 -44 72 C-39 61 -32 51 -25 41 C-23 37 -21 33 -18 29 C-17 28 -16 26 -15 24 C-12 20 -10 15 -7 11 C-7 11 -7 11 -6 9 C-5 7 -4 5 -3 3 C-2 2 -1 1 0 0 Z " fill="#EA9F23" transform="translate(336,20)"/><path d="M0 0 C1 0 2 1 3 1 C11 4 19 6 26 8 C38 11 50 14 61 18 C68 20 74 21 80 23 C80 31 80 39 80 47 C81 47 81 47 83 48 C83 48 83 48 82 50 C83 50 84 49 85 49 C85 52 84 54 83 56 C79 59 76 58 71 58 C68 56 65 55 63 52 C62 52 61 51 60 51 C59 49 57 48 55 47 C52 45 49 42 46 40 C44 38 41 36 39 35 C36 32 32 30 29 27 C4 9 4 9 -1 4 C-1 3 0 1 0 0 Z " fill="#EBEDED" transform="translate(254,137)"/><path d="M0 0 C5 2 7 5 10 9 C20 19 30 29 40 39 C41 38 42 37 43 36 C45 35 45 35 48 35 C51 37 51 37 53 40 C53 41 53 41 53 42 C54 43 56 43 57 44 C57 44 58 45 58 45 C60 45 62 45 64 45 C65 45 66 45 67 45 C70 45 70 45 72 43 C80 41 80 41 84 42 C85 42 85 43 86 43 C86 44 86 45 86 46 C82 50 78 52 73 54 C72 55 70 56 69 56 C62 60 56 60 49 58 C45 57 42 55 39 54 C35 52 31 51 27 49 C22 48 18 46 13 44 C13 43 14 42 14 41 C17 40 17 40 20 40 C20 38 20 37 20 35 C18 34 18 34 15 32 C14 32 12 31 11 31 C10 30 8 30 7 29 C6 29 5 28 5 28 C-1 26 -6 24 -11 22 C-10 17 -8 14 -6 10 C-4 7 -2 4 0 0 Z " fill="#223343" transform="translate(251,180)"/><path d="M0 0 C4 2 4 2 5 4 C5 5 4 6 4 7 C7 6 7 6 9 5 C9 4 10 3 10 2 C11 2 12 3 13 3 C17 5 20 6 24 8 C27 9 29 10 32 11 C39 14 46 17 53 20 C54 20 54 20 56 21 C58 22 60 23 62 23 C68 26 68 26 70 30 C69 30 69 30 68 30 C68 31 68 32 68 33 C67 33 67 33 66 33 C66 34 67 35 67 36 C67 36 67 36 64 37 C69 39 75 41 80 43 C80 43 80 43 79 45 C70 45 63 42 55 39 C52 38 50 37 47 37 C46 36 46 36 43 35 C39 34 35 32 30 31 C28 31 28 31 20 28 C20 29 20 29 20 30 C19 31 18 32 17 33 C17 34 17 34 17 35 C16 35 15 35 14 35 C14 36 14 36 14 37 C6 35 2 33 -3 27 C-4 22 -4 19 -2 14 C-2 13 -1 12 -1 11 C-3 9 -3 9 -5 7 C-5 6 -5 4 -5 3 C-4 3 -3 2 -2 2 C-2 2 -1 3 -1 3 C-1 2 0 1 0 0 Z " fill="#233343" transform="translate(229,218)"/><path d="M0 0 C9 1 18 4 26 9 C26 9 26 10 26 11 C27 11 27 11 28 11 C36 15 41 22 44 29 C46 34 46 34 46 38 C35 38 23 38 12 38 C14 32 16 29 20 25 C16 25 16 25 11 26 C10 28 8 31 7 34 C4 38 4 38 1 38 C-2 38 -5 38 -8 38 C-7 33 -6 32 -3 28 C-3 27 -2 26 -1 25 C2 21 5 17 8 14 C3 14 0 14 -3 18 C-5 20 -7 23 -9 26 C-11 28 -12 30 -14 32 C-14 32 -14 32 -16 34 C-17 37 -17 37 -18 38 C-20 38 -22 38 -25 38 C-25 38 -25 38 -28 38 C-29 38 -30 38 -31 38 C-29 33 -27 30 -24 27 C-22 25 -21 24 -20 23 C-20 22 -19 21 -19 21 C-15 17 -12 12 -9 8 C-9 7 -8 7 -7 6 C-6 5 -6 4 -5 3 C-3 1 -3 1 0 0 Z " fill="#DEB56A" transform="translate(59,219)"/><path d="M0 0 C3 3 3 6 3 11 C3 11 3 11 4 13 C7 14 7 14 9 15 C9 16 9 16 10 18 C11 18 11 19 12 19 C11 24 11 24 10 26 C7 26 4 27 1 27 C3 28 6 28 8 29 C8 31 8 32 8 34 C7 34 7 34 6 34 C6 35 6 35 6 37 C5 43 3 46 0 51 C0 51 0 51 -3 52 C-4 54 -5 56 -6 58 C-6 58 -7 59 -7 59 C-7 62 -7 62 -7 65 C-6 65 -6 66 -5 66 C-15 84 -15 84 -21 92 C-21 92 -21 92 -24 91 C-25 91 -25 91 -28 93 C-28 94 -28 95 -28 96 C-29 100 -32 101 -35 104 C-36 107 -36 107 -36 109 C-42 112 -49 110 -54 108 C-55 108 -55 108 -57 107 C-57 107 -58 107 -59 106 C-62 105 -66 104 -69 103 C-72 102 -74 102 -77 102 C-82 101 -82 101 -86 99 C-86 98 -87 96 -87 95 C-86 94 -85 92 -84 91 C-83 91 -81 91 -80 91 C-80 90 -80 89 -80 88 C-79 88 -77 89 -76 89 C-77 90 -78 91 -79 92 C-82 95 -82 95 -82 97 C-78 98 -74 99 -71 100 C-70 101 -70 101 -67 101 C-65 102 -63 103 -61 103 C-59 104 -57 104 -55 105 C-44 108 -44 108 -40 107 C-37 104 -35 100 -33 97 C-32 95 -31 92 -30 90 C-29 90 -29 90 -28 87 C-25 83 -22 78 -20 74 C-15 67 -11 59 -6 52 C-3 47 -1 43 2 38 C4 35 6 33 7 30 C-2 32 -6 36 -12 43 C-13 45 -15 47 -16 49 C-17 49 -18 50 -19 51 C-23 56 -27 61 -31 65 C-30 54 -28 42 -26 31 C-28 32 -31 32 -33 33 C-33 32 -33 32 -33 31 C-30 31 -27 30 -24 30 C-24 35 -25 41 -25 46 C-26 46 -26 46 -27 46 C-27 49 -27 53 -27 56 C-26 56 -26 56 -25 56 C-25 55 -25 54 -25 53 C-22 50 -21 48 -17 47 C-17 46 -16 45 -16 44 C-15 44 -15 44 -14 44 C-14 42 -14 40 -14 38 C-13 38 -13 38 -12 38 C-12 37 -11 36 -11 35 C-12 35 -12 36 -13 36 C-14 36 -14 36 -16 37 C-16 37 -16 37 -19 35 C-19 32 -19 32 -19 29 C-20 23 -21 19 -24 14 C-25 14 -25 13 -26 13 C-26 12 -26 12 -26 11 C-25 11 -24 11 -24 11 C-14 11 -7 7 0 0 Z " fill="#F2ECDC" transform="translate(391,36)"/><path d="M0 0 C1 0 3 0 4 0 C9 0 14 1 18 1 C17 7 14 12 10 17 C9 19 8 21 6 23 C6 24 5 25 5 26 C1 31 -2 37 -5 42 C-6 43 -7 44 -7 45 C-9 48 -12 52 -14 56 C-15 57 -16 59 -17 60 C-18 62 -19 64 -20 66 C-21 67 -22 68 -23 69 C-23 70 -24 72 -25 73 C-27 75 -27 75 -31 78 C-29 74 -28 70 -27 66 C-26 65 -26 63 -26 61 C-26 60 -26 60 -26 58 C-27 55 -27 55 -29 52 C-28 48 -27 44 -25 40 C-24 38 -24 37 -23 36 C-23 34 -22 33 -22 32 C-21 30 -21 29 -20 28 C-19 25 -18 23 -17 20 C-16 18 -15 15 -14 13 C-14 12 -13 11 -13 10 C-13 9 -12 8 -12 7 C-9 1 -6 0 0 0 Z " fill="#AF8027" transform="translate(275,51)"/><path d="M0 0 C3 3 4 5 6 10 C7 13 8 16 10 19 C10 24 7 29 5 33 C5 34 5 35 4 36 C4 37 3 39 2 41 C1 43 1 43 0 46 C-1 49 -1 51 -4 53 C-10 54 -16 54 -22 54 C-23 54 -25 54 -27 54 C-31 53 -35 53 -39 53 C-36 48 -32 43 -28 38 C-24 33 -20 27 -16 21 C-11 14 -5 7 0 0 Z " fill="#BC903C" transform="translate(174,203)"/><path d="M0 0 C3 2 5 4 8 6 C11 9 14 11 18 13 C19 14 19 15 20 16 C20 17 20 18 20 20 C17 21 14 22 11 24 C10 24 9 24 8 25 C5 26 2 27 -1 28 C-2 28 -4 29 -6 29 C-17 33 -17 33 -22 35 C-22 34 -22 33 -22 33 C-26 30 -26 30 -30 30 C-36 32 -41 34 -47 36 C-49 37 -51 38 -54 39 C-54 38 -55 38 -56 38 C-54 36 -52 35 -50 34 C-49 33 -48 32 -46 31 C-44 30 -44 30 -42 30 C-42 29 -43 28 -44 27 C-44 27 -44 27 -48 29 C-49 29 -50 29 -51 29 C-51 29 -51 30 -52 31 C-52 30 -53 29 -54 29 C-52 28 -51 27 -50 27 C-40 21 -31 16 -21 11 C-20 10 -19 10 -18 9 C-18 9 -17 8 -16 8 C-15 7 -14 7 -13 6 C-11 5 -9 3 -6 2 C-3 0 -3 0 0 0 Z " fill="#E6EAED" transform="translate(419,181)"/><path d="M0 0 C1 3 3 5 4 8 C6 12 6 12 9 15 C10 16 11 16 12 17 C12 21 10 24 8 27 C8 28 7 29 7 30 C6 31 5 32 5 33 C3 35 2 37 1 39 C0 40 0 41 -1 42 C-4 46 -6 51 -9 55 C-19 73 -30 90 -41 107 C-41 108 -41 108 -43 111 C-45 113 -45 113 -47 114 C-46 110 -44 106 -43 103 C-42 101 -42 100 -41 99 C-41 98 -40 97 -40 96 C-39 93 -38 91 -37 88 C-36 86 -35 85 -35 84 C-32 76 -29 69 -26 61 C-24 59 -23 56 -22 53 C-19 45 -16 37 -12 29 C-12 29 -12 29 -11 25 C-10 23 -9 20 -8 18 C-5 12 -3 6 0 0 Z " fill="#A77E2F" transform="translate(240,138)"/><path d="M0 0 C18 0 35 0 53 0 C54 5 54 6 52 11 C52 12 52 12 50 15 C50 15 50 15 48 19 C47 22 46 24 45 27 C44 29 44 30 43 32 C40 39 37 46 34 54 C33 55 33 57 32 58 C28 69 23 79 19 90 C17 85 17 84 18 79 C19 77 19 76 19 75 C20 71 20 71 22 67 C22 65 23 63 23 61 C24 61 24 61 25 61 C25 58 26 54 26 51 C22 52 21 53 18 56 C17 56 17 56 16 56 C16 57 16 57 16 58 C15 58 14 58 13 58 C13 59 13 59 13 60 C11 61 11 61 8 63 C8 63 8 63 5 65 C5 65 4 66 3 66 C2 64 2 63 1 61 C8 55 16 50 23 44 C35 35 40 20 43 6 C38 6 38 6 13 5 C13 4 13 2 13 1 C9 1 4 1 0 1 C0 1 0 0 0 0 Z " fill="#EEEEEB" transform="translate(184,109)"/><path d="M0 0 C18 4 36 8 53 14 C56 15 56 15 61 16 C61 25 60 35 60 44 C56 42 53 41 49 38 C44 34 38 29 33 25 C32 25 31 24 31 24 C26 20 22 17 18 14 C17 14 16 13 15 12 C13 11 12 10 10 9 C7 6 3 3 0 0 Z " fill="#B1A289" transform="translate(267,142)"/><path d="M0 0 C4 0 8 0 11 0 C13 0 14 0 15 0 C19 0 22 0 25 1 C21 13 12 23 1 29 C-5 32 -11 34 -17 36 C-15 29 -13 23 -10 16 C-10 15 -9 13 -9 12 C-8 10 -8 9 -7 8 C-6 6 -6 5 -6 4 C-3 1 -3 1 0 0 Z " fill="#E2B25D" transform="translate(164,116)"/><path d="M0 0 C5 2 7 5 10 9 C21 20 31 30 42 41 C38 43 35 41 31 39 C29 38 27 37 25 37 C24 36 23 36 22 35 C16 33 9 30 3 28 C0 27 -2 25 -5 24 C-6 24 -7 23 -9 23 C-9 23 -10 22 -11 22 C-10 17 -9 14 -6 10 C-4 7 -2 4 0 0 Z " fill="#E1E4E7" transform="translate(251,180)"/><path d="M0 0 C3 1 5 2 7 5 C8 5 8 6 9 7 C10 7 11 8 11 9 C12 10 13 10 14 11 C16 13 18 15 20 17 C16 19 14 19 10 20 C9 20 8 20 6 20 C5 20 4 21 3 21 C1 21 -0 21 -1 21 C-5 22 -10 22 -14 23 C-16 23 -19 24 -22 24 C-27 25 -33 25 -38 26 C-43 27 -47 27 -52 28 C-53 28 -53 28 -55 28 C-57 29 -59 29 -61 29 C-66 30 -71 30 -76 30 C-72 26 -64 25 -58 23 C-58 23 -58 23 -55 22 C-41 18 -27 17 -12 15 C-11 15 -9 14 -7 14 C-3 14 0 13 4 13 C4 12 4 12 4 11 C2 10 1 10 0 9 C-2 7 -4 4 -6 2 C-2 0 -2 0 0 0 Z " fill="#8A867C" transform="translate(416,222)"/><path d="M0 0 C-1 3 -3 5 -4 8 C-5 8 -7 8 -8 8 C-8 9 -8 10 -8 11 C-9 11 -11 12 -12 12 C-14 16 -14 16 -14 19 C-13 19 -13 19 -12 19 C-2 20 7 23 16 26 C23 29 29 29 36 29 C36 27 36 26 36 24 C38 22 40 21 42 19 C43 17 43 15 44 13 C47 11 47 11 49 9 C50 12 50 13 49 16 C49 17 48 18 48 19 C47 19 47 19 46 21 C46 22 46 22 44 24 C44 25 43 25 43 26 C40 30 38 33 35 36 C28 37 23 35 17 34 C16 33 15 33 14 33 C11 32 9 31 6 30 C4 30 2 29 0 29 C-3 28 -7 27 -10 26 C-17 24 -24 22 -30 20 C-37 18 -37 18 -39 17 C-39 16 -39 16 -39 15 C-38 15 -37 15 -36 15 C-34 15 -33 15 -31 15 C-31 15 -31 15 -27 15 C-21 14 -19 11 -15 7 C-11 5 -10 4 -6 4 C-6 3 -6 2 -6 1 C-4 0 -4 0 0 0 Z " fill="#E9EDED" transform="translate(319,116)"/><path d="M0 0 C0 0 1 0 1 0 C1 6 1 13 1 19 C1 20 1 21 1 23 C1 26 1 29 -1 32 C-3 34 -3 34 -6 35 C-8 37 -10 39 -12 41 C-16 46 -21 49 -25 53 C-29 56 -33 59 -36 63 C-37 60 -37 60 -36 58 C-35 57 -35 57 -34 55 C-34 54 -34 54 -32 51 C-31 50 -30 48 -29 47 C-27 44 -25 40 -22 37 C-22 36 -21 35 -21 34 C-15 25 -10 17 -5 8 C-4 7 -3 6 -3 5 C-3 4 -3 4 -1 2 C-1 2 -1 2 0 0 Z " fill="#909396" transform="translate(408,87)"/><path d="M0 0 C1 1 1 1 2 2 C6 1 6 1 9 0 C6 8 3 17 0 25 C-1 26 -2 28 -2 29 C-2 30 -2 30 -4 33 C-4 34 -5 35 -5 37 C-9 45 -9 45 -13 47 C-16 47 -19 47 -23 47 C-23 47 -24 47 -25 47 C-28 47 -32 47 -35 47 C-37 47 -39 47 -41 47 C-46 47 -51 47 -56 47 C-52 41 -52 41 -51 40 C-48 40 -45 40 -43 40 C-42 40 -42 40 -40 40 C-38 40 -35 40 -32 40 C-31 40 -29 40 -27 40 C-23 40 -18 40 -14 40 C-14 39 -14 39 -14 38 C-13 38 -12 38 -11 38 C-11 37 -11 37 -11 35 C-10 33 -10 32 -10 31 C-9 31 -9 30 -8 30 C-7 28 -7 26 -7 24 C-5 18 -5 18 -3 16 C0 12 -1 8 -1 4 C-1 3 -1 2 -1 1 C-1 1 0 0 0 0 Z " fill="#EDEFEF" transform="translate(186,216)"/><path d="M0 0 C0 3 0 3 -1 5 C0 5 0 5 2 6 C0 10 -2 12 -6 15 C-8 17 -10 19 -12 21 C-13 22 -13 22 -14 23 C-16 24 -17 26 -18 27 C-21 29 -24 32 -27 34 C-27 34 -27 34 -28 31 C-29 31 -29 31 -30 31 C-30 30 -30 30 -30 29 C-31 29 -31 28 -32 28 C-32 26 -32 26 -32 23 C-32 22 -32 21 -32 19 C-32 18 -32 17 -32 16 C-32 15 -32 14 -32 13 C-32 10 -32 7 -32 4 C-30 5 -29 5 -27 6 C-21 8 -13 9 -6 6 C-4 4 -2 2 0 0 Z " fill="#E6EAEB" transform="translate(366,156)"/><path d="M0 0 C-2 6 -4 13 -7 19 C-7 19 -7 19 -8 22 C-10 26 -11 30 -13 34 C-15 39 -17 43 -19 48 C-20 51 -20 51 -22 52 C-23 50 -24 47 -25 45 C-26 43 -26 42 -27 41 C-28 37 -28 37 -28 35 C-29 35 -29 34 -30 34 C-29 34 -29 33 -28 32 C-28 32 -28 32 -27 30 C-26 29 -25 29 -25 28 C-23 25 -23 25 -22 20 C-21 14 -18 12 -13 8 C-12 7 -12 7 -11 6 C-3 0 -3 0 0 0 Z " fill="#D9B068" transform="translate(209,162)"/><path d="M0 0 C0 1 -1 2 -1 3 C-2 3 -2 3 -3 3 C-3 4 -3 4 -3 5 C-6 6 -8 6 -11 7 C-11 8 -11 9 -11 10 C-13 11 -14 11 -16 12 C-16 13 -17 13 -17 14 C-18 14 -18 14 -19 14 C-19 15 -19 15 -19 16 C-18 16 -18 16 -16 15 C-13 14 -10 14 -8 13 C-6 13 -5 12 -4 12 C-4 11 -3 10 -3 9 C0 8 0 8 3 8 C4 8 4 8 6 7 C7 7 7 7 9 7 C6 10 2 12 -3 13 C-3 14 -4 14 -5 14 C-13 18 -20 21 -27 23 C-30 25 -32 26 -35 27 C-40 30 -45 32 -51 34 C-51 35 -51 35 -54 36 C-55 36 -56 37 -57 37 C-58 37 -59 38 -60 38 C-62 39 -62 39 -64 39 C-64 40 -65 40 -65 41 C-66 44 -68 47 -70 49 C-70 48 -70 48 -69 43 C-68 43 -68 43 -67 43 C-67 42 -66 40 -66 39 C-64 38 -62 36 -60 35 C-60 34 -60 34 -60 33 C-60 33 -60 33 -58 32 C-59 31 -59 31 -60 30 C-59 25 -56 23 -53 19 C-53 18 -52 17 -52 16 C-51 16 -51 16 -50 16 C-49 13 -48 10 -47 7 C-46 7 -45 8 -44 8 C-45 10 -46 11 -47 13 C-47 14 -48 15 -48 16 C-51 20 -53 25 -56 29 C-40 21 -24 12 -8 4 C-2 0 -2 0 0 0 Z " fill="#F8ECCF" transform="translate(349,62)"/><path d="M0 0 C0 0 0 0 2 2 C3 3 4 4 4 4 C6 6 6 6 6 8 C-21 8 -47 8 -74 8 C-74 8 -74 7 -73 6 C-70 6 -67 5 -63 5 C-61 5 -59 4 -57 4 C-56 4 -55 4 -54 4 C-48 3 -42 2 -36 1 C-21 -1 -21 -1 -14 -2 C-13 -2 -11 -2 -10 -3 C-6 -3 -3 -3 0 0 Z " fill="#767D85" transform="translate(428,256)"/><path d="M0 0 C2 2 2 2 5 3 C6 4 6 5 7 5 C8 6 8 6 9 7 C9 8 9 8 9 9 C6 10 4 11 1 12 C0 13 -1 13 -2 13 C-5 14 -7 15 -10 16 C-12 17 -14 18 -16 18 C-18 19 -21 20 -24 21 C-28 23 -33 24 -37 26 C-38 26 -38 26 -40 27 C-42 28 -43 28 -45 29 C-47 30 -49 30 -51 31 C-52 31 -52 30 -53 30 C-41 23 -30 15 -18 8 C-16 6 -13 5 -11 3 C-4 -1 -4 -1 0 0 Z " fill="#8F9094" transform="translate(416,189)"/><path d="M0 0 C1 0 1 0 2 0 C2 1 3 2 3 3 C2 4 1 5 0 6 C0 7 0 8 0 9 C0 14 -1 15 -3 19 C-3 20 -4 22 -4 23 C-6 28 -6 28 -8 32 C-10 36 -10 36 -10 42 C-6 41 -1 41 3 40 C3 41 3 42 3 43 C-1 47 -5 49 -11 49 C-12 49 -13 49 -14 49 C-14 50 -15 51 -15 52 C-16 55 -16 55 -17 57 C-20 57 -22 57 -25 57 C-21 47 -17 37 -13 27 C-12 24 -11 21 -10 18 C-9 16 -8 14 -7 13 C-7 12 -6 11 -6 10 C-4 6 -3 3 0 0 Z " fill="#EBECE9" transform="translate(157,109)"/><path d="M0 0 C0 0 1 0 1 0 C1 1 1 2 1 3 C1 4 1 5 1 6 C1 7 1 9 1 10 C3 16 6 19 11 22 C10 22 10 22 9 22 C-1 23 -7 26 -14 33 C-15 33 -15 33 -16 33 C-16 32 -16 32 -16 31 C-16 23 -18 20 -24 14 C-25 14 -25 13 -26 13 C-26 12 -26 12 -26 11 C-26 11 -26 11 -24 11 C-13 11 -7 7 0 0 Z " fill="#E4A134" transform="translate(391,36)"/><path d="M0 0 C5 0 9 3 13 4 C14 5 15 5 15 5 C17 6 19 7 20 7 C25 9 29 11 33 13 C34 13 35 14 36 14 C44 17 52 20 60 23 C63 25 66 26 69 28 C69 28 69 28 68 29 C59 29 52 26 44 23 C41 22 39 21 36 21 C35 20 34 20 32 19 C28 18 24 16 19 15 C16 14 13 13 10 12 C8 11 7 11 5 10 C1 9 1 9 -3 7 C-2 2 -2 2 0 0 Z " fill="#7D828A" transform="translate(240,234)"/><path d="M0 0 C7 4 13 8 19 13 C17 18 14 21 10 24 C9 25 8 25 8 26 C4 29 1 32 -3 34 C-3 30 -3 26 -3 23 C-3 22 -3 21 -2 19 C-2 13 -1 7 0 0 Z " fill="#929396" transform="translate(418,75)"/><path d="M0 0 C1 0 3 0 4 0 C9 0 14 1 18 1 C17 7 14 12 10 17 C9 19 8 21 6 23 C6 24 5 25 5 26 C1 31 -2 37 -5 42 C-6 43 -7 44 -7 45 C-9 48 -12 52 -14 56 C-15 57 -16 59 -17 60 C-18 62 -19 64 -20 66 C-21 67 -22 68 -23 69 C-23 70 -24 72 -25 73 C-27 75 -27 75 -31 78 C-29 74 -28 70 -27 66 C-26 65 -26 63 -26 61 C-26 60 -26 60 -26 58 C-27 55 -27 55 -29 52 C-28 48 -27 44 -25 40 C-24 38 -24 37 -23 36 C-23 34 -22 33 -22 32 C-21 30 -21 29 -20 28 C-19 25 -18 23 -17 20 C-16 18 -15 15 -14 13 C-14 12 -13 11 -13 10 C-13 9 -12 8 -12 7 C-9 1 -6 0 0 0 Z M-9 4 C-10 9 -10 9 -12 13 C-12 15 -13 17 -15 18 C-16 22 -18 26 -19 31 C-20 34 -22 37 -23 40 C-26 45 -26 49 -26 54 C-25 55 -24 55 -23 55 C-23 58 -23 61 -24 63 C-23 63 -23 63 -21 62 C-20 61 -20 60 -20 58 C-19 58 -18 58 -18 58 C-14 52 -14 52 -14 48 C-13 48 -12 48 -12 48 C-11 47 -11 45 -11 43 C-10 43 -9 43 -9 43 C-8 42 -8 41 -8 40 C-7 39 -6 38 -5 37 C-3 34 -3 34 -3 31 C-2 31 -1 31 -1 31 C0 30 0 29 0 28 C1 28 2 28 2 27 C2 26 2 25 2 23 C3 23 4 23 5 22 C6 21 6 20 6 18 C7 17 8 16 9 15 C9 14 9 13 9 11 C11 11 12 10 13 9 C14 6 14 6 14 3 C13 1 9 2 7 2 C-4 2 -4 2 -9 4 Z " fill="#977E46" transform="translate(275,51)"/><path d="M0 0 C6 3 10 8 14 13 C15 17 15 19 14 22 C14 22 14 22 11 22 C10 22 10 22 7 22 C6 23 4 23 3 23 C-1 23 -1 23 -4 24 C-7 24 -8 23 -11 22 C-10 17 -8 14 -6 10 C-4 7 -2 4 0 0 Z " fill="#ECEEEF" transform="translate(251,180)"/><path d="M0 0 C7 3 7 3 8 5 C11 6 14 6 17 7 C17 8 17 8 17 9 C18 9 19 9 20 9 C23 10 23 10 26 11 C26 12 25 14 25 15 C21 17 21 17 17 17 C17 18 17 19 17 20 C15 20 13 20 11 20 C11 21 11 21 11 22 C8 24 6 25 2 25 C1 25 1 24 0 24 C0 25 0 25 0 26 C-3 26 -6 27 -9 27 C-9 28 -9 28 -9 29 C-10 29 -10 29 -11 29 C-11 30 -11 32 -11 33 C-9 33 -8 33 -6 33 C-2 33 1 33 5 34 C4 38 4 38 1 41 C-3 43 -3 43 -7 42 C-4 40 -1 39 2 37 C2 37 2 37 0 37 C-4 36 -8 36 -11 36 C-13 36 -14 35 -15 35 C-16 35 -18 35 -19 35 C-20 35 -21 35 -22 35 C-25 34 -25 34 -27 32 C-17 28 -6 24 4 20 C10 19 15 16 21 14 C22 14 23 13 24 13 C12 10 1 6 -12 4 C-15 3 -15 3 -17 1 C-16 1 -16 1 -14 1 C-12 1 -11 1 -10 1 C-9 1 -9 1 -5 1 C-2 1 -2 1 0 0 Z " fill="#F7E9C7" transform="translate(356,19)"/><path d="M0 0 C4 0 7 1 10 2 C13 3 16 4 19 4 C22 5 25 6 28 7 C30 7 31 8 33 8 C37 9 41 10 45 11 C44 13 44 13 42 14 C41 14 40 15 39 15 C34 16 30 18 26 20 C10 27 10 27 5 25 C8 24 10 23 13 23 C13 23 13 23 14 20 C17 18 19 18 22 17 C22 17 22 17 21 15 C22 14 22 12 23 11 C23 10 23 10 23 9 C22 9 21 8 20 8 C17 7 17 7 13 5 C10 5 10 5 7 4 C7 4 6 4 5 4 C2 4 2 4 -1 7 C-1 8 -2 9 -2 11 C-3 12 -3 13 -4 14 C-5 14 -6 14 -7 14 C-7 15 -7 16 -8 17 C-9 21 -11 24 -14 27 C-14 28 -15 30 -16 31 C-17 34 -17 34 -21 36 C-20 32 -18 29 -16 25 C-15 25 -15 25 -14 22 C-13 21 -12 20 -12 19 C-11 17 -10 16 -10 15 C-8 12 -6 9 -4 6 C-3 5 -3 4 -2 3 C-1 2 -1 1 0 0 Z " fill="#E0A33C" transform="translate(336,20)"/><path d="M0 0 C-2 3 -3 6 -5 8 C-6 9 -6 10 -7 11 C-8 11 -8 12 -9 13 C-15 21 -15 21 -16 24 C-14 24 -12 24 -10 24 C-9 24 -8 24 -7 25 C-6 24 -5 24 -4 24 C-3 22 -3 22 -2 19 C3 12 3 12 5 11 C7 11 10 11 12 11 C11 16 7 19 4 23 C3 21 3 21 4 17 C3 17 3 17 2 17 C2 18 1 20 1 21 C-1 25 -1 25 -3 26 C-5 26 -8 26 -11 26 C-12 26 -13 26 -15 26 C-16 26 -17 26 -18 26 C-18 25 -18 25 -18 24 C-18 24 -18 24 -20 25 C-23 25 -27 25 -30 25 C-32 25 -33 25 -34 25 C-35 25 -36 25 -37 25 C-37 25 -37 24 -37 24 C-36 24 -35 24 -35 24 C-32 24 -29 24 -26 23 C-23 20 -22 18 -20 15 C-18 13 -17 10 -15 8 C-14 7 -13 6 -12 5 C-8 0 -6 0 0 0 Z " fill="#F6EDD9" transform="translate(67,232)"/><path d="M0 0 C1 0 1 0 2 0 C0 4 -3 7 -6 10 C-11 15 -16 20 -20 25 C-22 27 -23 28 -25 30 C-24 26 -24 26 -21 22 C-22 22 -22 22 -27 23 C-27 24 -27 25 -27 26 C-30 28 -33 28 -36 29 C-36 30 -36 30 -37 32 C-38 32 -38 32 -41 33 C-41 34 -42 35 -42 36 C-46 38 -52 37 -56 37 C-58 37 -59 37 -60 37 C-60 38 -61 38 -61 39 C-63 39 -65 38 -67 38 C-67 37 -67 37 -67 36 C-66 36 -66 36 -65 36 C-65 35 -65 34 -65 33 C-66 32 -68 32 -69 31 C-70 28 -69 26 -68 23 C-66 21 -65 19 -63 17 C-62 17 -62 17 -61 17 C-63 22 -65 26 -68 30 C-66 30 -65 30 -64 30 C-60 31 -57 31 -53 33 C-48 34 -48 34 -44 33 C-42 31 -39 30 -37 28 C-35 27 -34 26 -33 25 C-32 24 -32 24 -29 22 C-27 21 -25 19 -24 18 C-19 15 -14 11 -9 8 C-9 7 -8 7 -7 6 C-2 2 -2 2 0 0 Z " fill="#F7E8C6" transform="translate(340,94)"/><path d="M0 0 C1 4 1 6 -1 10 C-1 10 -2 11 -2 11 C-1 11 1 12 2 12 C2 14 1 15 1 17 C2 17 2 17 3 17 C2 21 0 23 -3 26 C-6 27 -6 27 -9 27 C-9 26 -9 26 -9 25 C-12 27 -12 27 -13 30 C-13 30 -14 31 -14 32 C-15 32 -16 32 -17 32 C-17 33 -18 35 -18 36 C-19 36 -19 36 -20 36 C-20 37 -19 38 -19 39 C-21 41 -21 41 -23 44 C-24 45 -25 47 -26 48 C-28 51 -28 51 -31 52 C-30 48 -28 45 -26 42 C-25 40 -24 39 -24 38 C-23 37 -22 36 -22 35 C-21 34 -20 33 -19 31 C-14 23 -10 16 -4 8 C-1 2 -1 2 0 0 Z " fill="#282F31" transform="translate(292,54)"/><path d="M0 0 C1 0 1 0 2 0 C1 4 0 7 -2 10 C-2 11 -3 12 -3 13 C-4 14 -5 15 -5 16 C-7 18 -8 20 -9 22 C-10 23 -10 24 -11 25 C-14 29 -16 34 -19 38 C-29 56 -40 73 -51 90 C-51 91 -51 91 -53 94 C-55 96 -55 96 -57 97 C-56 93 -54 89 -52 85 C-52 84 -52 84 -51 81 C-50 80 -50 78 -49 77 C-49 76 -48 74 -48 73 C-46 69 -44 66 -43 62 C-42 61 -42 60 -41 58 C-40 56 -39 53 -38 50 C-37 55 -37 56 -39 60 C-40 62 -40 63 -41 64 C-42 67 -43 70 -45 73 C-44 73 -43 73 -42 73 C-41 71 -41 71 -40 68 C-39 66 -38 63 -36 61 C-36 60 -35 58 -35 57 C-33 54 -33 54 -31 53 C-30 52 -30 50 -29 49 C-28 48 -27 46 -26 45 C-26 44 -25 42 -25 41 C-24 41 -24 40 -23 40 C-23 39 -22 37 -22 36 C-21 36 -21 36 -20 36 C-20 35 -19 34 -19 34 C-19 33 -18 32 -18 31 C-17 31 -17 31 -16 31 C-16 29 -15 27 -15 25 C-14 25 -14 25 -13 25 C-13 24 -13 23 -13 22 C-12 22 -12 22 -11 22 C-10 20 -10 17 -9 15 C-8 15 -8 15 -7 15 C-7 14 -7 13 -7 12 C-6 12 -6 12 -5 12 C-5 11 -4 10 -4 9 C-3 6 -2 3 0 0 Z " fill="#937C49" transform="translate(250,155)"/><path d="M0 0 C5 4 5 4 6 6 C6 8 6 10 6 12 C6 13 6 14 6 15 C6 15 6 16 6 17 C7 16 8 15 10 14 C13 10 17 8 22 6 C23 6 25 7 26 7 C25 7 24 7 23 7 C23 8 22 9 22 10 C18 11 18 11 15 12 C15 13 15 13 15 14 C15 14 15 14 13 15 C13 16 12 17 12 18 C13 18 14 17 14 17 C17 16 17 16 20 17 C20 17 20 17 17 19 C13 23 11 26 8 30 C5 33 2 37 -2 40 C-4 43 -6 46 -8 49 C-9 45 -9 42 -8 38 C-8 37 -7 35 -7 34 C-7 33 -7 31 -7 30 C-6 28 -6 27 -6 26 C-5 22 -5 19 -4 15 C-6 16 -9 16 -11 17 C-11 16 -11 16 -11 15 C-9 15 -9 15 -2 14 C-2 19 -3 25 -3 30 C-4 30 -4 30 -5 30 C-5 33 -5 37 -5 40 C-4 40 -4 40 -3 40 C-3 39 -3 38 -3 37 C0 34 1 32 5 31 C5 30 6 29 6 28 C7 28 7 28 8 28 C8 26 8 24 8 22 C9 22 9 22 10 22 C10 21 11 20 11 19 C10 19 10 20 9 20 C8 20 7 21 6 21 C5 20 4 20 3 19 C3 16 3 16 2 13 C2 8 2 4 0 0 Z " fill="#F9E9C6" transform="translate(369,52)"/><path d="M0 0 C0 0 0 0 -2 1 C-24 13 -24 13 -34 19 C-47 27 -47 27 -50 27 C-50 26 -50 26 -50 25 C-49 24 -48 24 -47 23 C-49 21 -52 21 -55 21 C-56 21 -57 21 -58 20 C-59 20 -60 20 -61 20 C-61 19 -61 19 -61 18 C-62 18 -62 18 -63 18 C-63 17 -63 17 -63 16 C-64 15 -66 15 -67 14 C-69 13 -70 12 -72 11 C-73 10 -75 10 -76 9 C-76 8 -75 8 -75 7 C-72 9 -68 11 -65 13 C-58 17 -53 18 -44 17 C-40 15 -37 12 -34 9 C-33 8 -31 7 -30 6 C-29 5 -28 4 -27 3 C-27 4 -27 5 -27 6 C-28 6 -28 7 -29 7 C-30 9 -31 11 -32 13 C-31 13 -31 13 -25 12 C-25 11 -25 11 -25 10 C-23 10 -21 9 -19 9 C-19 8 -19 8 -19 7 C-17 6 -14 6 -12 5 C-12 4 -12 4 -12 3 C-4 -1 -4 -1 0 0 Z " fill="#8E7440" transform="translate(381,189)"/><path d="M0 0 C4 0 8 0 11 0 C13 0 14 0 15 0 C19 0 22 0 25 1 C21 13 12 23 1 29 C-5 32 -11 34 -17 36 C-15 29 -13 23 -10 16 C-10 15 -9 13 -9 12 C-8 10 -8 9 -7 8 C-6 6 -6 5 -6 4 C-3 1 -3 1 0 0 Z M-5 5 C-6 7 -6 7 -7 12 C-7 12 -8 13 -8 14 C-9 17 -10 20 -10 23 C-10 23 -9 23 -9 24 C-10 26 -10 28 -11 31 C-10 30 -9 30 -8 30 C-7 27 -7 27 -7 24 C-6 24 -6 24 -5 25 C-5 26 -6 27 -6 29 C-4 28 -3 28 -1 28 C-1 27 -1 26 -1 26 C2 25 4 24 7 24 C7 23 7 22 7 22 C8 22 8 22 9 22 C9 21 10 20 10 19 C11 18 12 18 13 18 C19 11 19 11 19 7 C19 6 18 5 18 5 C19 5 20 5 21 5 C21 4 21 3 21 3 C17 2 13 2 9 2 C9 2 9 2 6 2 C-2 2 -2 2 -5 5 Z " fill="#D9B778" transform="translate(164,116)"/><path d="M0 0 C1 1 2 1 3 2 C3 7 0 12 -2 16 C-2 17 -2 18 -3 19 C-3 20 -4 22 -5 24 C-6 26 -6 26 -7 29 C-8 32 -8 34 -11 36 C-17 37 -23 37 -29 37 C-30 37 -32 37 -34 37 C-38 36 -42 36 -46 36 C-42 31 -39 25 -35 20 C-34 19 -34 19 -32 17 C-30 14 -30 14 -28 13 C-28 16 -28 16 -28 19 C-30 21 -30 21 -33 24 C-34 26 -35 27 -36 29 C-37 30 -37 30 -38 31 C-38 32 -39 32 -39 33 C-35 33 -31 33 -28 33 C-27 33 -26 33 -25 33 C-24 33 -23 33 -21 33 C-21 33 -20 33 -19 32 C-15 32 -12 30 -9 27 C-7 22 -5 16 -4 10 C-3 9 -2 9 -1 8 C0 4 0 4 0 0 Z " fill="#B29357" transform="translate(181,220)"/><path d="M0 0 C3 1 7 2 10 3 C13 4 13 4 16 4 C18 4 19 4 21 4 C17 9 13 14 8 18 C7 19 6 19 6 20 C1 24 1 24 0 24 C0 16 0 8 0 0 Z " fill="#A39A8A" transform="translate(334,160)"/><path d="M0 0 C2 0 2 0 5 1 C7 4 9 6 10 9 C11 10 11 11 12 12 C14 15 15 17 15 21 C14 24 12 25 10 27 C5 19 1 11 -4 3 C-3 3 -1 2 0 2 C0 1 0 1 0 0 Z " fill="#F5EDDC" transform="translate(119,186)"/><path d="M0 0 C6 -1 6 -1 9 0 C12 4 15 8 17 13 C18 14 18 15 18 16 C21 21 21 21 21 23 C18 23 18 23 14 23 C12 20 12 20 9 17 C9 16 8 15 7 13 C6 12 6 11 5 10 C4 9 4 8 3 7 C0 2 0 2 0 0 Z " fill="#F5EBD4" transform="translate(89,195)"/><path d="M0 0 C1 1 1 2 2 3 C2 4 1 4 1 5 C7 4 7 4 9 3 C17 3 25 3 33 4 C33 4 33 4 34 6 C33 6 32 6 32 6 C28 6 24 6 21 6 C19 6 18 6 17 6 C16 6 16 6 13 6 C12 6 11 6 10 5 C9 6 8 6 7 6 C6 8 6 8 5 11 C4 13 3 15 2 17 C2 19 1 20 1 21 C1 22 1 22 -1 25 C-1 26 -2 27 -2 29 C-3 32 -5 35 -6 38 C-7 34 -6 32 -4 28 C-3 24 -2 20 -1 16 C-1 13 -1 13 1 10 C-1 10 -1 10 -4 11 C-4 12 -5 13 -5 14 C-6 11 -6 11 -7 7 C-5 4 -5 4 -2 2 C-1 2 -1 2 0 2 C0 1 0 1 0 0 Z " fill="#2B302D" transform="translate(259,46)"/><path d="M0 0 C0 1 0 1 1 4 C-1 6 -2 9 -4 11 C-5 13 -5 14 -6 16 C-7 17 -7 18 -8 19 C-10 21 -10 23 -11 26 C-17 29 -24 27 -29 25 C-30 25 -31 24 -32 24 C-32 24 -32 24 -34 23 C-37 22 -41 21 -44 20 C-47 19 -49 19 -52 19 C-57 18 -57 18 -61 16 C-61 15 -62 13 -62 12 C-61 11 -60 9 -59 8 C-58 8 -56 8 -55 8 C-55 7 -55 6 -55 5 C-54 5 -52 6 -51 6 C-52 7 -53 8 -54 9 C-57 12 -57 12 -57 14 C-53 15 -49 16 -46 17 C-45 18 -45 18 -42 18 C-40 19 -38 20 -36 20 C-34 21 -32 21 -30 22 C-27 23 -25 23 -22 24 C-21 24 -19 25 -18 25 C-13 24 -12 20 -9 16 C-9 15 -9 15 -8 13 C-6 10 -5 8 -4 6 C-3 5 -3 4 -2 3 C-1 1 -1 1 0 0 Z " fill="#F9E9C7" transform="translate(366,119)"/><path d="M0 0 C1 0 2 1 3 1 C-3 6 -9 11 -15 16 C-18 18 -21 20 -25 22 C-25 23 -26 23 -27 24 C-29 26 -31 27 -33 29 C-42 35 -42 35 -47 35 C-49 34 -50 34 -52 33 C-54 32 -57 32 -59 31 C-61 31 -63 31 -65 30 C-64 28 -64 27 -63 25 C-63 26 -62 28 -62 29 C-58 29 -55 29 -51 29 C-51 30 -51 30 -51 31 C-46 31 -42 31 -38 30 C-38 29 -38 28 -38 27 C-37 27 -35 27 -34 27 C-34 26 -34 26 -34 25 C-32 22 -30 21 -27 20 C-26 20 -25 20 -24 20 C-24 19 -24 19 -24 18 C-23 18 -22 18 -21 18 C-21 17 -20 15 -20 14 C-19 14 -17 14 -16 14 C-16 13 -16 12 -16 11 C-15 11 -14 11 -13 11 C-13 10 -13 10 -13 9 C-12 9 -12 9 -11 8 C-7 7 -5 5 -3 2 C-2 1 -1 1 0 0 Z " fill="#DCA647" transform="translate(337,94)"/><path d="M0 0 C0 1 -1 3 -1 4 C-4 5 -6 5 -9 6 C-10 7 -11 8 -12 9 C-14 9 -17 10 -19 10 C-20 11 -20 11 -21 12 C-22 12 -23 13 -23 13 C-26 14 -26 14 -30 17 C-33 18 -33 18 -36 18 C-37 18 -38 19 -39 19 C-39 19 -40 19 -41 19 C-41 20 -41 21 -41 22 C-42 22 -43 23 -44 23 C-47 24 -47 24 -49 26 C-51 26 -52 26 -54 26 C-56 29 -58 31 -59 35 C-60 35 -60 35 -61 35 C-62 36 -62 38 -63 39 C-63 33 -60 28 -56 24 C-49 20 -41 17 -34 14 C-28 12 -23 10 -17 7 C-17 7 -17 7 -14 6 C-13 5 -12 5 -11 4 C-2 0 -2 0 0 0 Z " fill="#DDA545" transform="translate(341,77)"/><path d="M0 0 C1 0 2 1 3 1 C0 4 -2 6 -5 9 C-6 9 -6 10 -7 11 C-13 16 -13 16 -15 16 C-15 17 -15 17 -16 19 C-18 21 -20 23 -22 24 C-24 26 -24 26 -26 28 C-30 32 -34 34 -40 34 C-46 34 -50 32 -55 28 C-54 28 -54 27 -53 27 C-53 27 -53 27 -51 28 C-47 30 -45 30 -41 30 C-40 30 -39 30 -38 30 C-37 30 -36 30 -35 30 C-35 29 -34 28 -34 27 C-31 25 -28 23 -25 22 C-21 21 -20 19 -18 16 C-17 16 -15 15 -14 15 C-14 14 -14 12 -14 11 C-13 11 -12 11 -11 11 C-11 10 -10 9 -10 8 C-8 7 -7 7 -5 6 C-5 5 -5 5 -5 4 C-4 4 -4 4 -3 4 C-3 3 -2 2 -2 1 C-1 1 -1 0 0 0 Z " fill="#303029" transform="translate(370,174)"/><path d="M0 0 C-1 3 -3 7 -5 10 C-5 10 -5 10 -6 12 C-7 13 -7 14 -8 15 C-8 15 -8 15 -9 17 C-12 23 -16 28 -19 33 C-20 29 -19 27 -18 23 C-17 23 -17 23 -16 23 C-16 22 -15 20 -15 19 C-14 19 -14 19 -13 19 C-13 18 -13 17 -13 16 C-12 16 -12 16 -11 16 C-11 15 -10 13 -10 12 C-9 12 -8 11 -7 11 C-7 9 -7 8 -7 6 C-13 10 -13 10 -14 12 C-15 12 -17 11 -18 11 C-13 5 -9 0 0 0 Z " fill="#DCA241" transform="translate(398,66)"/></svg>
