<?xml version="1.0" encoding="UTF-8"?>
<!-- Generator: visioncortex VTracer 0.6.12 -->
<svg role="img" aria-hidden="true" version="1.1" xmlns="http://www.w3.org/2000/svg" viewBox="0 0 395 395" width="395" height="395">
<path d="M0 0 C1.58 0.53 3.15 1.06 4.73 1.6 C7.18 2.42 9.63 3.25 12.09 4.08 C17.94 6.06 23.81 8.01 29.68 9.95 C31.31 10.48 32.94 11.02 34.57 11.56 C36.92 12.34 39.27 13.11 41.61 13.88 C65.5 21.71 65.5 21.71 70.38 30.94 C72.77 38 71.61 43.67 69.62 50.62 C70.44 50.73 71.26 50.83 72.1 50.93 C81.77 52.83 92.46 56.65 98.5 64.73 C102.17 70.9 102.63 76.21 101.02 83.28 C99.65 87.68 99.65 87.68 98.62 89.62 C97.97 89.62 97.31 89.62 96.62 89.62 C96.53 90.45 96.43 91.27 96.33 92.11 C95.5 96.28 94.05 99.89 92.41 103.79 C92.09 104.58 91.77 105.36 91.43 106.17 C90.38 108.72 89.31 111.27 88.25 113.81 C87.52 115.58 86.78 117.36 86.05 119.13 C84.59 122.67 83.12 126.2 81.65 129.73 C79.01 136.1 76.41 142.49 73.81 148.88 C72.95 151 72.08 153.13 71.21 155.26 C70.79 156.3 70.37 157.34 69.94 158.4 C68.55 161.82 67.15 165.23 65.75 168.64 C56.81 190.52 56.81 190.52 52.82 201.07 C48.32 212.85 48.32 212.85 43.44 215.44 C42.72 215.84 42.01 216.23 41.27 216.64 C34.65 219.1 29.98 218.9 23.44 216.44 C22.74 216.18 22.04 215.92 21.33 215.65 C10.13 211.41 -0.9 206.7 -11.94 202.07 C-17.08 199.91 -22.23 197.77 -27.38 195.62 C-27.38 196.28 -27.38 196.94 -27.38 197.62 C-29.36 198.31 -31.34 198.99 -33.34 199.61 C-37.01 200.84 -40.57 202.27 -44.15 203.73 C-44.84 204.01 -45.54 204.29 -46.25 204.59 C-48.42 205.47 -50.59 206.36 -52.75 207.25 C-54.94 208.15 -57.13 209.04 -59.32 209.94 C-60.68 210.49 -62.03 211.05 -63.39 211.61 C-70.6 214.56 -77.05 216.33 -84.56 213.25 C-92.67 208.48 -95.83 197.6 -99 189.25 C-102.59 180.05 -106.33 170.94 -110.25 161.88 C-115.95 148.67 -121.46 135.39 -126.94 122.1 C-129.2 116.62 -131.47 111.15 -133.75 105.69 C-133.95 105.19 -133.95 105.19 -134.99 102.7 C-136.7 98.57 -138.43 94.45 -140.29 90.38 C-143.9 82.42 -147.04 75.08 -144.31 66.38 C-141.53 60.23 -137.55 56.98 -131.44 54.28 C-130.95 54.07 -130.95 54.07 -128.49 52.97 C-123.28 50.72 -118.05 48.5 -112.81 46.31 C-111.73 45.86 -110.66 45.4 -109.54 44.94 C-108.52 44.51 -107.49 44.08 -106.43 43.64 C-105.51 43.25 -104.58 42.86 -103.63 42.46 C-101.38 41.62 -101.38 41.62 -99.38 41.62 C-99.39 41.2 -99.39 41.2 -99.48 39.03 C-99.69 30.3 -99.16 25.54 -94.06 18.38 C-85.22 9.32 -70.66 11.36 -58.88 11.02 C-57.72 10.98 -56.56 10.94 -55.36 10.91 C-54.3 10.88 -53.25 10.85 -52.16 10.81 C-49.73 10.65 -47.67 10.45 -45.38 9.62 C-44.07 7.48 -44.07 7.48 -42.94 4.81 C-40.14 -1.13 -37.25 -3.77 -31.19 -6.25 C-21.01 -9.18 -9.63 -3.29 0 0 Z " fill="#141F26" transform="translate(219.375,91.375)"/>
<path d="M0 0 C0.75 0.53 1.5 1.05 2.27 1.6 C2.84 2.06 3.41 2.52 4 3 C4 3.66 4 4.32 4 5 C5.32 5.69 6.66 6.36 8 7 C10.36 8.95 12.47 11.14 14.62 13.31 C15.25 13.94 15.87 14.56 16.5 15.21 C46.03 45.48 63.68 87.81 64.94 129.94 C64.99 131.74 65.07 133.54 65.16 135.34 C66.55 184.22 45.64 227.97 13.13 263.12 C5.54 271.13 -2.98 277.67 -12 284 C-12.57 284.41 -13.15 284.82 -13.74 285.24 C-35.05 300.25 -61.17 310.55 -87 314 C-87.32 314.05 -87.32 314.05 -88.94 314.28 C-122.59 318.63 -156.63 312.9 -187 298 C-187.61 297.71 -188.22 297.41 -188.85 297.11 C-219.59 282.16 -243.3 258.21 -262 230 C-262.28 229.58 -262.28 229.58 -263.71 227.46 C-277.11 206.49 -284.09 181.51 -287 157 C-287.09 156.25 -287.19 155.5 -287.28 154.72 C-292.72 109.19 -277.6 63.04 -249.68 27.31 C-238.39 13.21 -225.83 1.32 -211 -9 C-210.4 -9.42 -209.8 -9.84 -209.18 -10.27 C-200.24 -16.42 -190.85 -21.46 -181 -26 C-179.84 -26.53 -178.69 -27.07 -177.5 -27.62 C-119.22 -52.69 -48.2 -40.45 0 0 Z M-190 -2 C-190 -1.34 -190 -0.68 -190 0 C-190.72 0.09 -191.44 0.19 -192.18 0.28 C-197.57 1.66 -201.67 5.64 -206 9 C-206.87 9.66 -207.74 10.32 -208.63 11 C-223.65 22.82 -237.67 37.21 -247 54 C-247 54.99 -247 55.98 -247 57 C-247.66 57 -248.32 57 -249 57 C-250.35 59.25 -251.54 61.46 -252.69 63.81 C-253.04 64.53 -253.39 65.25 -253.76 65.99 C-272.83 105.83 -275.33 150.26 -261 192 C-245.97 232.22 -215.15 265.48 -176.45 283.91 C-154.5 293.64 -130.1 299.31 -106 298 C-105.28 297.96 -104.56 297.93 -103.82 297.89 C-83.27 296.75 -63.61 291.82 -45 283 C-44.37 282.7 -43.74 282.41 -43.1 282.1 C-26.86 274.29 -12.83 263.56 0 251 C0.72 250.33 1.45 249.65 2.19 248.96 C12.81 238.87 20.92 226.74 28 214 C28.6 212.94 29.21 211.88 29.83 210.79 C49.35 174.43 52.38 130.01 40.85 90.68 C36.76 77.83 31.42 65.28 24 54 C23.33 52.96 22.66 51.93 21.96 50.86 C20.01 47.89 18.01 44.94 16 42 C15.49 41.24 14.98 40.48 14.45 39.69 C13.36 38.09 12.19 36.54 11 35 C10.34 35 9.68 35 9 35 C8.32 33.68 7.65 32.34 7 31 C5.46 29.2 5.46 29.2 3.66 27.39 C2.99 26.72 2.33 26.05 1.64 25.36 C0.94 24.67 0.23 23.97 -0.5 23.25 C-1.22 22.53 -1.95 21.81 -2.7 21.07 C-11.11 12.82 -19.92 6.1 -30 0 C-30.98 -0.63 -31.96 -1.25 -32.96 -1.9 C-40.37 -6.44 -47.99 -9.75 -56.12 -12.81 C-57.11 -13.19 -58.1 -13.56 -59.12 -13.94 C-100.85 -29.18 -151.69 -25.23 -190 -2 Z " fill="#0B0B0B" transform="translate(309,59)"/>
<path d="M0 0 C4.33 0.12 8.15 1.22 12.19 2.7 C12.93 2.95 13.66 3.21 14.42 3.47 C16.82 4.31 19.22 5.17 21.61 6.03 C24.15 6.92 26.68 7.8 29.21 8.69 C30.95 9.3 32.69 9.91 34.44 10.52 C40.51 12.65 46.61 14.7 52.73 16.71 C53.56 16.98 54.38 17.25 55.24 17.53 C58.44 18.58 61.64 19.63 64.84 20.66 C67.04 21.37 69.24 22.09 71.43 22.82 C72.68 23.22 73.93 23.62 75.21 24.04 C80.34 26.05 80.34 26.05 82.36 28.28 C82.91 32.57 82.04 35.92 80.61 39.95 C80.42 40.49 80.42 40.49 79.47 43.19 C79.06 44.31 78.66 45.43 78.24 46.59 C77.4 48.93 76.56 51.27 75.72 53.62 C75.31 54.76 74.91 55.89 74.48 57.07 C73.53 59.81 72.64 62.56 71.82 65.34 C68.7 75.63 64.24 82 56.36 89.28 C55.63 90 54.9 90.73 54.15 91.47 C30.26 114.2 -8.6 127.65 -41.14 127.34 C-42.36 127.33 -43.59 127.32 -44.85 127.31 C-45.31 127.31 -45.31 127.31 -47.64 127.28 C-46.7 122.53 -45.63 118.06 -43.92 113.54 C-41.31 106.49 -38.97 99.35 -36.61 92.21 C-32.64 80.21 -28.63 68.23 -24.41 56.31 C-22.34 50.45 -20.32 44.56 -18.29 38.68 C-17.22 35.57 -16.15 32.46 -15.07 29.35 C-13.54 24.92 -12.02 20.48 -10.51 16.05 C-9.89 14.23 -9.26 12.41 -8.64 10.59 C-8.36 9.76 -8.08 8.94 -7.79 8.09 C-5.13 0.39 -5.13 0.39 0 0 Z " fill="#E9A126" transform="translate(194.6357421875,98.7236328125)"/>
<path d="M0 0 C21.43 6.79 21.43 6.79 24 11 C23.6 16.95 21.65 21.9 19.35 27.36 C18.98 28.25 18.62 29.15 18.24 30.07 C17.04 32.96 15.83 35.86 14.62 38.75 C13.79 40.77 12.96 42.78 12.13 44.8 C10.49 48.77 8.84 52.73 7.2 56.7 C4.58 63 2 69.31 -0.56 75.62 C-0.97 76.62 -1.37 77.61 -1.79 78.64 C-4.26 84.7 -6.71 90.77 -9.16 96.84 C-10.7 100.67 -12.24 104.5 -13.78 108.32 C-14.54 110.21 -15.31 112.1 -16.06 114 C-17.13 116.66 -18.2 119.32 -19.28 121.98 C-19.59 122.77 -19.91 123.56 -20.24 124.38 C-25.57 137.57 -25.57 137.57 -29 141 C-34.78 141.81 -39.42 139.51 -44.62 137.31 C-45.45 136.97 -46.28 136.63 -47.13 136.28 C-50.66 134.83 -54.18 133.35 -57.69 131.87 C-63.65 129.37 -69.62 126.94 -75.62 124.55 C-76.37 124.26 -77.12 123.96 -77.9 123.65 C-81.02 122.41 -84.13 121.17 -87.25 119.93 C-89.56 119.02 -91.87 118.1 -94.18 117.18 C-94.53 117.04 -94.53 117.04 -96.29 116.35 C-108.74 111.38 -108.74 111.38 -111 107 C-110.69 104.75 -110.69 104.75 -110 103 C-104.57 103.62 -99.68 104.9 -94.5 106.62 C-93.71 106.88 -92.92 107.13 -92.1 107.4 C-90.44 107.94 -88.77 108.49 -87.1 109.04 C-84.58 109.87 -82.04 110.7 -79.51 111.52 C-77.89 112.05 -76.26 112.58 -74.63 113.12 C-73.88 113.36 -73.14 113.6 -72.37 113.86 C-68.75 115.05 -65.17 116.3 -61.61 117.65 C-55.66 119.87 -50.57 119.97 -44.69 117.44 C-39.53 115.01 -37.52 109.32 -35.54 104.29 C-35.08 102.95 -34.63 101.61 -34.19 100.27 C-33.94 99.53 -33.69 98.8 -33.43 98.04 C-32.61 95.63 -31.81 93.22 -31 90.81 C-30.43 89.11 -29.85 87.42 -29.28 85.72 C-27.51 80.48 -25.75 75.24 -24 70 C-23.86 69.6 -23.86 69.6 -23.18 67.55 C-20.89 60.69 -18.61 53.84 -16.33 46.98 C-13.07 37.16 -9.75 27.35 -6.38 17.56 C-5.96 16.36 -5.55 15.16 -5.12 13.92 C-3.5 9.24 -1.87 4.59 0 0 Z " fill="#BC892A" transform="translate(283,154)"/>
<path d="M0 0 C-0.59 4.1 -1.5 7.81 -2.89 11.71 C-3.08 12.25 -3.08 12.25 -4.03 14.96 C-4.44 16.09 -4.84 17.21 -5.25 18.38 C-7.89 25.88 -10.51 33.38 -12.81 41 C-14.3 45.86 -15.96 50.53 -17.91 55.21 C-19.36 58.93 -20.62 62.71 -21.88 66.5 C-22.13 67.26 -22.38 68.02 -22.64 68.8 C-24 72.92 -25.33 77.04 -26.65 81.16 C-26.92 81.99 -27.19 82.83 -27.46 83.68 C-27.98 85.29 -28.49 86.9 -29 88.51 C-29.6 90.37 -30.29 92.19 -31 94 C-31.66 94 -32.32 94 -33 94 C-34.1 45.88 -34.1 45.88 -34.18 22.54 C-34.18 20.81 -34.19 19.07 -34.21 17.34 C-34.23 14.94 -34.23 12.55 -34.23 10.15 C-34.24 9.45 -34.24 8.75 -34.25 8.02 C-34.23 3.23 -34.23 3.23 -32 1 C-21.81 -1.26 -10.39 -0.09 0 0 Z " fill="#BE8927" transform="translate(169,117)"/>
<path d="M0 0 C0.66 0 1.32 0 2 0 C2.34 1.87 2.67 3.75 3 5.62 C3.19 6.67 3.37 7.71 3.56 8.79 C4 12 4 12 3.75 15.27 C3.83 16.17 3.91 17.07 4 18 C6.14 19.18 6.14 19.18 9 20 C10.95 21.02 12.89 22.06 14.81 23.12 C15.79 23.66 16.76 24.2 17.77 24.76 C18.51 25.17 19.24 25.58 20 26 C17.36 29.23 14.27 30.16 10.44 31.62 C4.4 34.34 4.4 34.34 2.74 37.07 C2.22 39.43 2.06 41.59 2 44 C1.8 45.69 1.59 47.38 1.38 49.06 C1.25 50.36 1.13 51.66 1 53 C-2.39 51.57 -4.28 49.81 -6.62 47 C-8.37 44.92 -10.08 42.92 -12 41 C-13.88 40.86 -13.88 40.86 -16.13 41.02 C-16.94 41.07 -17.74 41.13 -18.57 41.18 C-19 41.21 -19 41.21 -21.12 41.38 C-21.97 41.43 -22.82 41.49 -23.7 41.55 C-25.8 41.69 -27.9 41.84 -30 42 C-28.59 37.33 -26.76 33.94 -23.93 30.03 C-22.66 27.25 -23.11 25.89 -24 23 C-24.81 21.08 -25.66 19.19 -26.56 17.31 C-29 12.21 -29 12.21 -29 10 C-27.83 10.2 -26.66 10.4 -25.45 10.61 C-13.29 12.24 -13.29 12.24 -9.1 9.97 C-6.35 7.75 -4.16 5.2 -1.97 2.44 C-1.32 1.64 -0.67 0.83 0 0 Z " fill="#0D0502" transform="translate(225,134)"/>
<path d="M0 0 C-0.59 4.19 -1.57 7.92 -3.06 11.88 C-3.42 12.84 -3.79 13.81 -4.16 14.8 C-4.44 15.53 -4.71 16.25 -5 17 C-6.31 12.81 -5.27 10.17 -4 6 C-4 4.68 -4 3.36 -4 2 C-8.48 2.14 -12.96 2.29 -17.44 2.44 C-18.72 2.48 -20 2.52 -21.31 2.56 C-21.92 2.58 -21.92 2.58 -25 2.68 C-26.12 2.72 -27.25 2.76 -28.41 2.79 C-31 3 -31 3 -32 4 C-32.1 6.12 -32.13 8.24 -32.13 10.36 C-32.13 10.69 -32.13 10.69 -32.14 12.33 C-32.14 14.47 -32.13 16.61 -32.12 18.75 C-32.12 19.48 -32.12 20.21 -32.12 20.96 C-32.11 30.49 -31.91 39.98 -31.36 49.49 C-30.79 59.65 -30.91 69.83 -31 80 C-30.01 80 -29.02 80 -28 80 C-27.92 79.05 -27.84 78.1 -27.75 77.12 C-27.17 72.99 -25.65 69.43 -24.04 65.6 C-22.73 62.33 -21.76 59.02 -20.78 55.64 C-18.71 48.65 -16.35 41.75 -13.72 34.96 C-12.6 31.91 -11.68 28.8 -10.75 25.69 C-10.5 25.13 -10.25 24.57 -10 24 C-9.34 24 -8.68 24 -8 24 C-8.17 24.56 -8.34 25.12 -8.52 25.7 C-9.7 29.6 -10.86 33.5 -11.95 37.43 C-13.63 43.5 -15.45 49.33 -17.88 55.14 C-19.35 58.88 -20.61 62.68 -21.88 66.5 C-22.13 67.26 -22.38 68.02 -22.64 68.8 C-24 72.92 -25.33 77.04 -26.65 81.16 C-26.92 81.99 -27.19 82.83 -27.46 83.68 C-27.98 85.29 -28.49 86.9 -29 88.51 C-29.6 90.37 -30.29 92.19 -31 94 C-31.66 94 -32.32 94 -33 94 C-34.1 45.88 -34.1 45.88 -34.18 22.54 C-34.18 20.81 -34.19 19.07 -34.21 17.34 C-34.23 14.94 -34.23 12.55 -34.23 10.15 C-34.24 9.45 -34.24 8.75 -34.25 8.02 C-34.23 3.23 -34.23 3.23 -32 1 C-21.81 -1.26 -10.39 -0.09 0 0 Z " fill="#A98647" transform="translate(169,117)"/>
<path d="M0 0 C0.33 0 0.66 0 1 0 C0.78 8.66 -1.95 15.97 -5 24 C-6.03 26.99 -7.02 29.99 -8 33 C-8.67 35 -9.33 37 -10 39 C2.63 38.32 14.76 36.41 27.06 33.5 C27.73 33.34 28.39 33.19 29.07 33.03 C40.19 30.41 40.19 30.41 43.25 28.87 C45 28 45 28 47.25 28.38 C47.54 28.48 47.54 28.48 49 29 C31.75 36.38 12.35 41.24 -6.5 41.06 C-7.73 41.05 -8.95 41.04 -10.22 41.04 C-11.14 41.02 -12.05 41.01 -13 41 C-11.87 35.26 -10.35 29.99 -8.28 24.53 C-6.17 18.7 -4.28 12.8 -2.37 6.91 C-2.08 6.02 -1.79 5.13 -1.49 4.21 C-1.23 3.4 -0.96 2.59 -0.69 1.75 C-0.46 1.17 -0.24 0.6 0 0 Z " fill="#CA9946" transform="translate(160,185)"/>
<path d="M0 0 C0.66 0 1.32 0 2 0 C-1.95 16.08 -7.87 31.7 -13.3 47.32 C-16.68 57.06 -20.03 66.81 -23.38 76.56 C-23.63 77.32 -23.89 78.07 -24.16 78.85 C-26.8 86.56 -29.44 94.26 -32 102 C-34.41 93.93 -29.22 84.25 -26.07 76.78 C-24.41 72.46 -23.09 68.05 -21.75 63.62 C-20.93 60.92 -20.11 58.26 -19.04 55.64 C-18.09 53.23 -17.35 50.86 -16.62 48.38 C-14.71 41.87 -12.33 35.56 -9.96 29.21 C-7.74 23.2 -5.8 17.15 -4 11 C-3.47 9.33 -2.93 7.66 -2.38 6 C-2.14 5.28 -1.9 4.56 -1.65 3.81 C-1 2 -1 2 0 0 Z " fill="#342208" transform="translate(187,101)"/>
<path d="M0 0 C0.99 0.33 1.98 0.66 3 1 C3.29 3.83 3.38 6.45 3.34 9.28 C3.34 9.72 3.34 9.72 3.34 11.91 C3.34 14.8 3.32 17.68 3.29 20.57 C3.29 22.56 3.28 24.55 3.28 26.55 C3.27 31.81 3.24 37.07 3.21 42.33 C3.18 47.69 3.16 53.05 3.15 58.41 C3.11 68.94 3.06 79.47 3 90 C2.67 90 2.34 90 2 90 C0.48 59.98 -0.3 30.06 0 0 Z " fill="#372A0F" transform="translate(133,119)"/>
<path d="M0 0 C0.66 0 1.32 0 2 0 C1.83 0.56 1.66 1.12 1.48 1.7 C0.3 5.6 -0.86 9.5 -1.95 13.43 C-3.63 19.5 -5.45 25.33 -7.88 31.14 C-9.35 34.88 -10.61 38.68 -11.88 42.5 C-12 42.88 -12 42.88 -12.64 44.8 C-14 48.92 -15.33 53.04 -16.65 57.16 C-16.92 57.99 -17.19 58.83 -17.46 59.68 C-17.98 61.29 -18.49 62.9 -19 64.51 C-19.6 66.37 -20.29 68.19 -21 70 C-21.66 70 -22.32 70 -23 70 C-23 65.38 -23 60.76 -23 56 C-21.35 56 -19.7 56 -18 56 C-17.92 55.05 -17.84 54.1 -17.75 53.12 C-17.17 48.99 -15.65 45.43 -14.04 41.6 C-12.73 38.33 -11.76 35.02 -10.78 31.64 C-8.71 24.65 -6.35 17.75 -3.72 10.96 C-2.6 7.91 -1.68 4.8 -0.75 1.69 C-0.5 1.13 -0.25 0.57 0 0 Z " fill="#9C7D42" transform="translate(159,141)"/>
<path d="M0 0 C0.33 0 0.66 0 1 0 C1.45 7.02 1.5 11.27 -3 17 C-3.35 18.66 -3.68 20.33 -4 22 C-4.73 23.85 -5.51 25.68 -6.31 27.5 C-8.19 31.85 -9.64 36.12 -10.88 40.69 C-13.65 50.08 -20.61 58.79 -29 64 C-29.66 63.67 -30.32 63.34 -31 63 C-30.18 62.21 -29.36 61.43 -28.52 60.62 C-27.43 59.56 -26.34 58.5 -25.25 57.44 C-24.71 56.92 -24.17 56.41 -23.62 55.88 C-17.43 49.8 -14.47 43.16 -11.75 35.06 C-11.6 34.64 -11.6 34.64 -10.87 32.5 C-9.15 27.46 -7.47 22.41 -5.8 17.36 C-5.44 16.26 -5.08 15.16 -4.7 14.03 C-3.99 11.86 -3.28 9.69 -2.58 7.52 C-2.26 6.54 -1.93 5.56 -1.6 4.55 C-1.46 4.11 -1.46 4.11 -0.74 1.89 C-0.49 1.26 -0.25 0.64 0 0 Z " fill="#33220A" transform="translate(277,129)"/>
<path d="M0 0 C0.99 0 1.98 0 3 0 C4.18 4.33 5.07 8.33 5.38 12.81 C5.76 16.73 5.76 16.73 7.81 19 C9.88 19.95 11.76 20.6 14 21 C14 21.66 14 22.32 14 23 C14.78 23.12 15.57 23.25 16.38 23.38 C19 24 19 24 21 26 C20.93 28.48 20.93 28.48 20 31 C17.82 32.36 17.82 32.36 15.12 33.31 C14.68 33.48 14.68 33.48 12.45 34.3 C10 35 10 35 7 35 C5.47 37.74 4.99 39.67 5.06 42.81 C4.98 47.1 3.7 50.07 2 54 C1.67 54 1.34 54 1 54 C0.9 50.98 0.92 48.02 1 45 C0.96 44.23 0.92 43.47 0.88 42.68 C1.03 39.78 1.35 38.43 3 36 C7.89 32.56 13.51 30.3 19 28 C16.81 26.21 14.89 24.95 12.27 23.85 C9.09 22.51 6.64 21.24 4 19 C2.06 13.82 1.9 8.65 2.11 3.16 C2.09 2.8 2.09 2.8 2 1 C1.34 0.67 0.68 0.34 0 0 Z " fill="#CC9845" transform="translate(225,133)"/>
<path d="M0 0 C3.06 -0.5 3.06 -0.5 6 0 C6.66 0.66 7.32 1.32 8 2 C9.65 2.58 11.32 3.1 13 3.56 C17.84 4.92 17.84 4.92 20 6 C20 6.66 20 7.32 20 8 C15.59 7.33 11.73 5.73 7.69 3.94 C7.04 3.66 6.4 3.37 5.73 3.08 C4.15 2.39 2.58 1.7 1 1 C0.89 1.67 0.78 2.33 0.66 3.02 C-0.15 6.69 -1.35 10.18 -2.58 13.72 C-2.84 14.46 -3.09 15.21 -3.36 15.97 C-4.17 18.33 -4.99 20.7 -5.81 23.06 C-6.88 26.16 -7.95 29.25 -9.02 32.35 C-9.28 33.09 -9.53 33.84 -9.8 34.6 C-11.91 40.72 -13.97 46.85 -16 53 C-17.34 48.7 -16.21 45.58 -14.81 41.44 C-14.7 41.08 -14.7 41.08 -14.11 39.27 C-12.53 34.44 -10.82 29.68 -9.04 24.93 C-7.49 20.55 -6.15 16.11 -4.84 11.66 C-3.59 7.54 -2.23 3.69 0 0 Z " fill="#29200A" transform="translate(282,153)"/>
<path d="M0 0 C0.66 0 1.32 0 2 0 C-0.12 7.91 -3.05 15.43 -6.19 22.98 C-7.01 24.95 -7.81 26.94 -8.62 28.92 C-9.14 30.18 -9.66 31.45 -10.19 32.71 C-10.66 33.85 -11.12 34.99 -11.61 36.16 C-12.86 38.72 -13.74 40.29 -16 42 C-21.21 42.73 -25.19 41.02 -29.88 39 C-30.22 38.86 -30.22 38.86 -31.96 38.13 C-33.64 37.43 -35.32 36.72 -37 36 C-33.61 34.83 -31.66 35.17 -28.31 36.38 C-27.52 36.65 -26.74 36.93 -25.93 37.21 C-24 38 -24 38 -23 39 C-20.23 39.3 -18.51 39.27 -16.02 37.96 C-13.19 35.22 -12.19 32.02 -10.94 28.38 C-10.68 27.66 -10.42 26.95 -10.16 26.21 C-8.77 22.33 -7.49 18.43 -6.25 14.5 C-5.84 13.35 -5.43 12.19 -5 11 C-4.34 11 -3.68 11 -3 11 C-2.87 10.37 -2.73 9.75 -2.6 9.1 C-2.42 8.28 -2.24 7.47 -2.06 6.62 C-1.89 5.81 -1.71 5 -1.54 4.16 C-1 2 -1 2 0 0 Z " fill="#A98643" transform="translate(270,253)"/>
<path d="M0 0 C9.34 0.36 18.45 3.89 27.08 7.28 C30.11 8.41 33.21 9.33 36.31 10.25 C36.87 10.5 37.43 10.75 38 11 C38 11.66 38 12.32 38 13 C29.54 11.32 21.58 8.58 13.44 5.75 C12.41 5.39 11.38 5.04 10.32 4.68 C9.4 4.36 8.47 4.03 7.51 3.7 C5 3 5 3 1 3 C1.32 5.95 1.56 7.56 3.69 9.69 C6.37 11.21 9.04 12.13 12 13 C11.67 13.66 11.34 14.32 11 15 C9.5 14.55 8 14.09 6.5 13.62 C5.66 13.37 4.83 13.11 3.97 12.85 C3.32 12.57 2.67 12.29 2 12 C2 11.34 2 10.68 2 10 C1.34 10 0.68 10 0 10 C-1.37 7.26 -1.13 5.03 -1 2 C-0.67 1.34 -0.34 0.68 0 0 Z " fill="#2D230E" transform="translate(172,255)"/>
<path d="M0 0 C0.33 0 0.66 0 1 0 C0.94 2 0.85 4 0.75 6 C0.73 6.56 0.73 6.56 0.61 9.38 C-0.02 13.1 -1.13 15.44 -2.89 18.72 C-5.1 23.26 -6.47 28.13 -8 32.94 C-10.31 40.16 -12.74 47.15 -16 54 C-17.1 50.72 -16.92 48.98 -15.66 45.78 C-15.35 44.94 -15.03 44.11 -14.7 43.24 C-14.34 42.34 -13.99 41.43 -13.62 40.5 C-9.66 30.06 -6.2 19.5 -2.88 8.84 C-2.52 7.69 -2.16 6.54 -1.79 5.35 C-1.46 4.32 -1.14 3.29 -0.81 2.22 C-0.54 1.49 -0.28 0.76 0 0 Z " fill="#A4823E" transform="translate(272,185)"/>
<path d="M0 0 C0.33 0 0.66 0 1 0 C0.55 5.63 -0.32 10.42 -2.24 15.72 C-3.27 18.82 -3.88 21.95 -4.47 25.15 C-5 27 -5 27 -7 29 C-7.62 31.62 -7.62 31.62 -8 34 C-8.66 34 -9.32 34 -10 34 C-10.12 34.64 -10.24 35.28 -10.37 35.94 C-12.39 46.36 -12.39 46.36 -14 51 C-14.66 51 -15.32 51 -16 51 C-15.41 44.18 -13.11 38.1 -10.81 31.69 C-10 29.37 -9.18 27.06 -8.36 24.74 C-7.96 23.6 -7.56 22.46 -7.15 21.29 C-5.27 15.91 -3.5 10.5 -1.76 5.08 C-1.21 3.38 -0.61 1.69 0 0 Z " fill="#CA9843" transform="translate(188,103)"/>
</svg>
